<?xml version="1.0" encoding="utf-8"?>
<!-- Generator: Adobe Illustrator 18.0.0, SVG Export Plug-In . SVG Version: 6.00 Build 0)  -->
<!DOCTYPE svg PUBLIC "-//W3C//DTD SVG 1.1//EN" "http://www.w3.org/Graphics/SVG/1.1/DTD/svg11.dtd">
<svg version="1.1" id="Layer_1" xmlns="http://www.w3.org/2000/svg" xmlns:xlink="http://www.w3.org/1999/xlink" x="0px" y="0px"
	 viewBox="0 0 85 16" enable-background="new 0 0 85 16" xml:space="preserve">
<g>
	<g>
		<path fill="#1FC9D0" d="M40.7,3.1c0.4-0.7,0.4-0.8,1.3-0.8h5.1c0.6,0,1.2-0.4,1.2-1.2c0-0.9-0.6-1.2-1.2-1.2h-5.2
			c-1.6,0-2.5,0.6-3.3,2l-1.9,3.7c-0.4,0.9-0.6,1.4-0.6,2.3c0,0.7,0.2,1.4,0.6,2.2l1.9,3.7c0.7,1.4,1.6,2,3.2,2h5.3
			c0.6,0,1.2-0.4,1.2-1.2c0-0.9-0.6-1.2-1.2-1.2h-5c-0.9,0-1,0-1.4-0.8l-1.7-3.5l0,0c-0.2-0.4-0.4-0.8-0.4-1.3
			c0-0.6,0.1-0.9,0.4-1.5L40.7,3.1z M65.6,0.1H54.9c-0.6,0-1.2,0.3-1.2,1.2c0,0.9,0.6,1.2,1.2,1.2h4.2v12.4c0,0.6,0.3,1.2,1.2,1.2
			c0.9,0,1.2-0.6,1.2-1.2V2.4h4.2c0.6,0,1.2-0.3,1.2-1.2C66.7,0.4,66.1,0.1,65.6,0.1z M28.6,9.1c0.6,0,1.2-0.3,1.2-1.2
			c0-0.9-0.6-1.2-1.2-1.2h-8.3c-0.6,0-1.2,0.3-1.2,1.2v6.8c0,0.9,0.6,1.2,1.2,1.2h8.3c0.6,0,1.2-0.3,1.2-1.2c0-0.9-0.6-1.2-1.2-1.2
			h-7.1V9.1H28.6z M28.6,0h-8.3c-0.6,0-1.2,0.3-1.2,1.2c0,0.9,0.6,1.2,1.2,1.2h8.3c0.6,0,1.2-0.3,1.2-1.2C29.8,0.3,29.2,0,28.6,0z
			 M10.2,2.1C9.4,0.6,8.5,0,7,0H1.4C0.5,0,0.2,0.6,0.2,1.2v13.7c0,0.6,0.3,1.2,1.2,1.2h5.4c1.7,0,2.6-0.6,3.3-2l1.8-3.7
			c0.4-0.8,0.6-1.5,0.6-2.3c0-1-0.2-1.6-0.6-2.4L10.2,2.1z M9.9,9.3l-1.8,3.6c-0.3,0.7-0.5,0.8-1.3,0.8H2.5V2.3h4.3
			c0.8,0,0.9,0,1.3,0.8l1.7,3.4l0.1,0.2c0.2,0.5,0.4,0.8,0.4,1.4C10.3,8.5,10.1,8.9,9.9,9.3z M84.7,14.5l-2.4-8.9l-1-3.5
			c-0.4-1.3-1.6-2-3.3-2h-0.9c-1.7,0-2.8,0.7-3.3,2l-1,3.5l-2.4,8.9c-0.2,0.5-0.1,1.2,0.7,1.5c0.7,0.2,1.2-0.1,1.5-0.7l1.2-4.4h7.4
			l1.2,4.5c0.2,0.5,0.5,0.8,1,0.8c0.1,0,0.3,0,0.5-0.1C84.8,15.6,84.9,15,84.7,14.5z M74.5,8.4l0.8-2.8L76,3.1
			c0.2-0.6,0.4-0.7,1.3-0.7h0.6c0.9,0,1.1,0.1,1.3,0.7l0.7,2.6l0.8,2.8H74.5z"/>
	</g>
</g>
</svg>
