<?xml version="1.0" encoding="utf-8"?>
<!-- Generator: Adobe Illustrator 18.0.0, SVG Export Plug-In . SVG Version: 6.00 Build 0)  -->
<!DOCTYPE svg PUBLIC "-//W3C//DTD SVG 1.1//EN" "http://www.w3.org/Graphics/SVG/1.1/DTD/svg11.dtd">
<svg version="1.1" id="Layer_1" xmlns="http://www.w3.org/2000/svg" xmlns:xlink="http://www.w3.org/1999/xlink" x="0px" y="0px"
	 viewBox="0 0 150 60" enable-background="new 0 0 150 60" xml:space="preserve">
<g>
	<g>
		<path fill="#1FC9D0" d="M79.4,15.9H70c-0.5,1.4-1,2.9-1.6,4.6c-0.6,1.7-1.3,3.4-2.1,5.3c-0.8,1.8-1.6,3.7-2.5,5.6
			c-0.9,1.9-1.9,3.7-3,5.5c-0.4-4-0.6-7.8-0.7-11.3c-0.1-3.6-0.1-6.8-0.1-9.7h-7.4c-0.6,1.5-1.3,3.2-2.1,4.9
			c-0.8,1.8-1.6,3.5-2.5,5.4c-0.9,1.8-1.8,3.6-2.8,5.5c-1,1.8-2,3.6-3,5.2c-0.2-1.8-0.4-3.7-0.5-5.6c-0.1-1.9-0.2-3.7-0.3-5.5
			c-0.1-1.8-0.1-3.5-0.1-5.2c0-1.7,0-3.2,0-4.7h-8.7c0.1,3.1,0.3,6.2,0.6,9.3c0.3,3.1,0.5,6,0.9,8.7c0.3,2.7,0.6,5.3,1,7.6
			c0.3,2.3,0.7,4.3,1,6h6.9c0.7-1.1,1.5-2.4,2.4-3.9c0.9-1.5,1.9-3,2.8-4.6c1-1.6,1.9-3.3,2.9-5c0.9-1.7,1.8-3.4,2.5-5
			c0.1,3,0.2,6.1,0.5,9.1c0.2,3,0.6,6.1,1.1,9.4H62c2.2-2.8,4.2-5.6,6-8.5c1.8-2.9,3.4-5.7,4.8-8.5c1.4-2.8,2.7-5.4,3.8-7.9
			C77.7,20.1,78.6,17.9,79.4,15.9z M81.9,15.9l-7.5,31.5h8.8l7.5-31.5H81.9z M84.2,10.9c1,0.7,2.1,1.1,3.3,1.1
			c0.8,0,1.6-0.2,2.4-0.5c0.7-0.3,1.4-0.7,1.9-1.3c0.6-0.5,1-1.2,1.3-1.9c0.3-0.7,0.5-1.5,0.5-2.4c0-1.5-0.5-2.6-1.5-3.4
			c-1-0.7-2.1-1.1-3.3-1.1c-0.8,0-1.6,0.2-2.4,0.5c-0.7,0.3-1.4,0.7-1.9,1.3c-0.6,0.5-1,1.2-1.3,1.9c-0.3,0.7-0.5,1.5-0.5,2.4
			C82.7,9.1,83.2,10.2,84.2,10.9z M116.5,19c-1-1.2-2.4-2.1-4-2.8c-1.6-0.7-3.5-1-5.8-1c-2.4,0-4.6,0.2-6.6,0.6
			c-2,0.4-3.9,0.8-5.5,1.3l-9.9,41.5h8.8l2.7-10.8c1.4,0.2,2.7,0.4,4.1,0.4c2.8,0,5.4-0.5,7.7-1.5c2.4-1,4.4-2.3,6.1-4.1
			c1.7-1.8,3-3.8,4-6.3c1-2.4,1.4-5.1,1.4-8c0-1.8-0.2-3.5-0.7-5.1C118.3,21.5,117.6,20.2,116.5,19z M110,33.7
			c-0.5,1.5-1.2,2.7-2.1,3.7c-0.9,1-2,1.8-3.2,2.4c-1.3,0.6-2.7,0.9-4.2,0.9c-1,0-1.8-0.1-2.5-0.2l4.2-17.4c1.1-0.2,2.3-0.4,3.6-0.4
			c1.9,0,3.2,0.6,3.9,1.8c0.8,1.2,1.1,2.7,1.1,4.4C110.8,30.6,110.5,32.2,110,33.7z M149.3,20.2c-0.5-1.1-1.2-2-2.1-2.8
			c-0.9-0.8-1.9-1.3-3.1-1.7c-1.2-0.4-2.5-0.6-3.9-0.6c-2.8,0-5.4,0.6-7.7,1.7c-2.3,1.1-4.3,2.6-5.9,4.5c-1.6,1.9-2.9,4-3.8,6.4
			c-0.9,2.4-1.3,4.9-1.3,7.4c0,1.8,0.2,3.5,0.7,5.1c0.5,1.6,1.2,3,2.3,4.2c1.1,1.2,2.4,2.1,4.1,2.8c1.7,0.7,3.8,1,6.2,1
			c2,0,3.9-0.2,5.6-0.5c1.7-0.4,3.1-0.8,4.3-1.2l-0.7-7c-1.2,0.4-2.4,0.8-3.7,1c-1.3,0.2-2.6,0.3-3.9,0.3c-2,0-3.5-0.3-4.4-1
			c-0.9-0.7-1.5-1.9-1.8-3.6c2.9,0,5.5-0.2,7.9-0.7c2.4-0.4,4.5-1.1,6.3-2.1c1.8-1,3.1-2.2,4.1-3.8c1-1.6,1.5-3.5,1.5-5.7
			C150,22.5,149.8,21.3,149.3,20.2z M141.5,26.7c-0.3,0.6-0.8,1.1-1.7,1.6c-0.8,0.5-2,0.9-3.5,1.2c-1.5,0.3-3.5,0.5-6,0.6
			c0.5-2.4,1.5-4.3,3-5.8c1.5-1.5,3.3-2.2,5.3-2.2c2.1,0,3.2,1,3.2,2.9C142,25.6,141.8,26.1,141.5,26.7z M26.9,27.4
			c-0.9-0.9-1.9-1.8-3-2.5c-1.2-0.7-2.3-1.4-3.6-2c-0.7-0.4-1.4-0.7-2-1c-0.6-0.3-1.2-0.7-1.7-1.1c-0.5-0.4-0.9-0.9-1.2-1.4
			c-0.3-0.5-0.4-1.2-0.4-2c0-0.9,0.2-1.6,0.6-2.2c0.4-0.6,0.9-1.1,1.5-1.5c0.6-0.4,1.4-0.6,2.2-0.8c0.8-0.2,1.7-0.2,2.6-0.2
			c1.7,0,3.2,0.3,4.6,0.8c1,0.4,1.9,0.8,2.7,1.3l3.8-6.9c-0.4-0.2-0.7-0.4-1.2-0.6c-0.9-0.4-1.8-0.8-2.8-1.1c-1-0.3-2.1-0.6-3.3-0.8
			C24.5,5,23.3,4.9,22,4.9c-2.8,0-5.2,0.3-7.3,1C12.7,6.6,11,7.5,9.6,8.6c-1.4,1.2-2.4,2.5-3.1,4.1c-0.7,1.6-1,3.3-1,5.1
			c0,1.4,0.2,2.7,0.6,3.8c0.4,1.1,0.9,2.1,1.6,3c0.7,0.9,1.5,1.7,2.4,2.4c1,0.7,2,1.4,3,2c0.8,0.5,1.7,0.9,2.5,1.3
			c0.8,0.4,1.6,0.8,2.3,1.3c0.7,0.5,1.2,1,1.7,1.6c0.4,0.6,0.7,1.3,0.7,2.1c0,1-0.2,1.9-0.7,2.5c-0.5,0.7-1,1.2-1.8,1.5
			c-0.7,0.4-1.5,0.6-2.4,0.7c-0.9,0.1-1.8,0.2-2.7,0.2c-1,0-2-0.1-3-0.3c-1-0.2-1.9-0.5-2.7-0.8c-0.9-0.3-1.6-0.7-2.3-1
			c-0.2-0.1-0.5-0.3-0.7-0.4L0,45.1c0.3,0.2,0.6,0.4,1,0.6c0.9,0.4,1.9,0.8,3,1.2c1.2,0.4,2.5,0.7,3.9,1c1.5,0.3,3,0.4,4.7,0.4
			c2.5,0,4.9-0.3,6.9-0.8c2.1-0.5,3.9-1.4,5.4-2.5c1.5-1.1,2.7-2.5,3.5-4.2c0.8-1.7,1.3-3.7,1.3-5.9c0-1.6-0.3-3.1-0.8-4.3
			C28.5,29.4,27.8,28.3,26.9,27.4z"/>
	</g>
</g>
</svg>
