<?xml version="1.0" encoding="utf-8"?>
<!-- Generator: Adobe Illustrator 18.0.0, SVG Export Plug-In . SVG Version: 6.00 Build 0)  -->
<!DOCTYPE svg PUBLIC "-//W3C//DTD SVG 1.1//EN" "http://www.w3.org/Graphics/SVG/1.1/DTD/svg11.dtd">
<svg version="1.1" id="Layer_1" xmlns="http://www.w3.org/2000/svg" xmlns:xlink="http://www.w3.org/1999/xlink" x="0px" y="0px"
	 viewBox="0 0 125 22" enable-background="new 0 0 125 22" xml:space="preserve">
<g>
	<g>
		<path fill="#869898" d="M109.4,16.2c-0.2-0.3-0.2-0.8-0.3-1.1l-1.2-9.8c0-0.3-0.1-0.4-0.3-0.4c-0.1,0-0.2,0.1-0.3,0.3l-5.3,9.9
			l-5.5-9.9c-0.1-0.2-0.3-0.2-0.4-0.2c-0.1,0-0.2,0.1-0.2,0.3l-1.3,10.4c-0.2,1.2-0.5,1.4-0.7,1.6c0.5,0,1,0,1.1,0
			c0.1,0,0.7,0,1.2,0.1c-0.4-0.3-0.6-0.6-0.5-1.6l0.7-7.2h0.1c0.3,0.7,1.8,3.3,2.3,4.3c0.5,0.9,1.7,2.9,2.1,3.7
			c0.4,0.6,0.5,0.7,0.6,0.7c0.2,0,0.3-0.1,0.6-0.8l4.4-8.1h0l0.9,8c0,0.6-0.1,0.9-0.2,0.9l1.3,0l1.3,0
			C109.9,17,109.7,16.8,109.4,16.2z M123.8,5.2c-0.1,0-0.7,0-1.3,0v0c0.2,0.2,0.5,0.5,0.6,1.2c0,0.5,0,1,0,3.4v2
			c0,1.6-0.2,2.9-1,3.9c-0.6,0.7-1.7,1.1-2.8,1.1c-1,0-1.8-0.1-2.7-0.9c-0.8-0.6-1.3-1.6-1.3-3.9V9.8c0-2.5,0-2.9,0-3.4
			c0.1-0.7,0.4-1,0.6-1.2c0,0,0,0,0,0c-0.6,0-1.4,0-1.5,0c-0.1,0-0.8,0-1.5,0v0c0.2,0.2,0.5,0.5,0.6,1.2c0,0.5,0,1,0,3.4v2.3
			c0,2.3,0.7,3.4,1.6,4.2c1.3,1.1,3.2,1.1,3.8,1.1c1.1,0,2.5-0.1,3.8-1.2c1.4-1.1,1.7-3,1.7-4.8V9.8c0-2.5,0-2.9,0-3.4
			c0-0.7,0.4-1,0.6-1.2v0C124.4,5.2,123.9,5.2,123.8,5.2z M88.7,5.2L88.7,5.2c0.2,0.2,0.5,0.5,0.6,1.2c0,0.5,0,1,0,3.4v2
			c0,1.6-0.2,2.9-1,3.9c-0.6,0.7-1.7,1.1-2.8,1.1c-1,0-1.8-0.1-2.7-0.9c-0.8-0.6-1.3-1.6-1.3-3.9V9.8c0-2.5,0-2.9,0-3.4
			c0.1-0.7,0.4-1,0.6-1.2c0,0,0,0,0,0c-0.6,0-1.4,0-1.5,0c-0.1,0-0.8,0-1.5,0v0c0.2,0.2,0.6,0.5,0.6,1.2c0,0.5,0,1,0,3.4v2.3
			c0,2.3,0.7,3.4,1.6,4.2c1.3,1.1,3.2,1.1,3.8,1.1c1.1,0,2.5-0.1,3.8-1.2c1.5-1.1,1.7-3,1.7-4.8V9.8c0-2.5,0-2.9,0-3.4
			c0-0.7,0.4-1,0.6-1.2c0,0,0,0,0,0c-0.5,0-1.1,0-1.2,0C90,5.2,89.4,5.2,88.7,5.2z M52.1,16.6C52.1,16.5,52,16.3,52,16
			c-0.1-0.7-0.1-1.9-0.1-3.4V9.8c0-2.5,0-2.9,0-3.4c0-0.2,0-0.4,0.1-0.5c0.2-0.5,0.3-0.5,0.5-0.7v0c-0.6,0-1.4,0-1.4,0
			c-0.1,0-0.8,0-1.4,0l0,0c0.2,0.2,0.2,0.2,0.4,0.6c0.1,0.1,0.1,0.3,0.2,0.6c0,0.5,0,1,0,3.4v2.8c0,1.5,0,2.8-0.1,3.4
			c0,0.2-0.1,0.4-0.1,0.5h0c0,0,0,0,0,0c0,0,0,0,0,0.1c-0.2,0.4-0.2,0.4-0.4,0.6c0.6,0,1.4-0.1,1.5-0.1c0.1,0,0.8,0,1.5,0.1
			C52.4,17,52.3,17,52.1,16.6z M68.7,5.2c0,0-0.1,0-0.2,0c-1.5,0-2.1-0.1-2.2-0.1L66,6.4c0.3-0.2,0.9-0.5,2.3-0.5l2.6,0v6.7
			c0,1.5,0,2.8-0.1,3.4c0,0.2-0.1,0.4-0.1,0.5h0c-0.2,0.5-0.3,0.5-0.5,0.7c0.6,0,1.5-0.1,1.5-0.1c0.1,0,0.7,0,1.5,0
			c-0.2-0.2-0.2-0.2-0.4-0.6c-0.1-0.1-0.1-0.3-0.2-0.6c-0.1-0.6-0.1-1.9-0.1-3.4V5.9l2.3,0c0.7,0,1.3,0.1,1.6,0.2
			c0.3,0.1,0.7,0.3,1,0.4V5.1c-0.4,0-1,0.1-1.8,0.1H68.7z M47.8,17.2C47.8,17.1,47.8,17.1,47.8,17.2c-1.6,0-3-1.5-4.1-2.9
			c-0.8-1-2-2.3-3-2.6c0,0-0.1,0-0.1,0c2-0.4,3.2-1.8,3.2-3.6c0-0.9-0.5-1.6-0.9-1.9c-0.3-0.2-1.1-0.9-3.5-0.9c-0.8,0-2.2,0-2.6,0
			c-0.1,0-0.8,0-1.5,0v0c0.2,0.2,0.3,0.2,0.5,0.6c0.1,0.1,0.1,0.3,0.1,0.5c0,0.5,0,1,0,3.4v2.8c0,1.5,0,2.8-0.1,3.4
			c0,0.3-0.1,0.5-0.2,0.7c-0.2,0.3-0.2,0.4-0.4,0.5c0.6,0,1.4-0.1,1.5-0.1c0.1,0,0.7,0,1.5,0C38.1,17,38,17,37.8,16.5h0
			c-0.1-0.1-0.1-0.3-0.1-0.5c-0.1-0.7-0.1-1.9-0.1-3.4V6.1c0-0.2,0-0.3,0.1-0.3c0.2,0,0.7-0.1,1-0.1c0.4,0,1.5-0.1,2.5,0.8
			c1,0.9,1,1.9,1,2.4c0,1.4-1.4,2.6-3.4,2.6c0,0-0.1,0-0.1,0c-0.1,0-0.2,0.1-0.2,0.2c0,0.2,0.1,0.2,0.1,0.2c1.1,0.3,2,1.4,3,2.6
			c0.8,1,1.9,2.2,3,2.7c0.4,0.2,1,0.3,1.6,0.3C46.8,17.4,47.3,17.4,47.8,17.2C47.9,17.2,47.8,17.2,47.8,17.2
			C47.8,17.2,47.8,17.2,47.8,17.2z M64.2,15.1c-0.1,0-0.2,0.1-0.2,0.2c-0.1,0.6-0.5,1-1,1.1c-0.5,0.1-1.2,0.2-1.7,0.2
			c-1.8,0-2.1-0.2-2.2-1.3c0-0.3,0-2.2,0-2.7v-1.3c0-0.1,0-0.1,0.1-0.1c0.3,0,2.3,0,2.8,0.1c0.9,0.1,1.1,0.3,1.3,0.4
			c0-0.3,0-0.7,0-1c0-0.1,0-0.2,0-0.3c0,0,0,0,0,0c0,0,0-0.1-0.1-0.1c-0.2,0,0.1,0.3-1.8,0.3c0,0-2.1,0-2.3,0
			c-0.1,0-0.1-0.1-0.1-0.2V6c0-0.1,0-0.2,0.1-0.2c0.2,0,1.4,0,2.2,0h0c0.2,0,0.5,0,0.6,0C63,6,63.2,6.2,63.7,6.5
			c0-0.3,0-0.6,0.1-0.9c0-0.2,0.1-0.3,0.1-0.5c-0.2,0-0.6,0.1-1.1,0.1c-0.3,0-2,0-3.2,0h0c-0.6,0-1.1,0-1.2,0c-0.1,0-0.8,0-1.5,0v0
			c0.2,0.2,0.3,0.2,0.4,0.6c0.1,0.1,0.1,0.3,0.2,0.6c0,0.5,0,1,0,3.4v2.8c0,1.5,0,2.8-0.1,3.4c-0.1,0.3-0.1,0.5-0.2,0.7
			C57.1,17,57,17,56.9,17.2c0.2,0,0.5,0,0.8,0c0.4,0,0.7,0,0.8,0c0.3,0,0.7,0,1.5,0c0.7,0,1.8,0.1,3.2,0.1c0.7,0,0.9,0,1-0.4
			c0.1-0.3,0.2-1.4,0.2-1.5C64.4,15.2,64.4,15.1,64.2,15.1z M28.4,14.4h-0.1c-1.8,0-3.6-0.3-5.5-1l-0.6-0.2
			c-4.2-1.4-6.3-2.1-8.5-2.4l0,0c-0.1,0-0.1-0.1-0.1-0.2c0-0.1,0.1-0.1,0.1-0.2l0,0c2-0.3,5.5-1.2,6.6-3.5c0.3-0.6,0.3-1.1,0-1.5
			c-0.4-0.5-1.3-0.8-2.7-0.8l-0.1,0c-2.6,0-6.1,1.1-8.1,2.3C6.1,9,4.7,11.5,4.7,13.1c0,1.6,1.8,2.2,1.8,2.2l0,0c0,0,0.6-4.3,3.1-6.9
			c1.6-1.7,3.9-2.8,5.9-2.8h0.1c0.7,0,1.3,0.1,1.8,0.4c0.5,0.3,0.8,0.7,0.7,1.2c-0.3,1.3-2.8,3-7.1,3.5l0,0c-0.1,0-0.1,0-0.1,0.1
			c0,0.1,0.1,0.1,0.1,0.1c1.7,0.5,3.6,1.3,5.5,2.2c3,1.4,6.2,2.7,9.1,3c-2.5,2.5-6.9,4.2-11.7,4c-7.2-0.2-12.7-4.2-12.7-9
			c0-4.7,5.5-8.7,12.7-9c7.5-0.2,13.9,3.8,13.9,9c0,0.5-0.1,1-0.2,1.5c0.4,0,1.2-0.2,1.4-1.1c0-0.1,0-0.3,0-0.4
			c0-6.4-7-11.3-15.2-11C6.1,0.3,0.1,5.2,0.1,11c0,5.8,6,10.7,13.8,11c5.9,0.2,11.2-2.3,13.7-6.1c2.6-0.3,3.2-1.7,3.2-1.8l0,0l0,0
			C30.7,14.1,29.9,14.4,28.4,14.4z"/>
	</g>
</g>
</svg>
