<?xml version="1.0" encoding="utf-8"?>
<!-- Generator: Adobe Illustrator 18.0.0, SVG Export Plug-In . SVG Version: 6.00 Build 0)  -->
<!DOCTYPE svg PUBLIC "-//W3C//DTD SVG 1.1//EN" "http://www.w3.org/Graphics/SVG/1.1/DTD/svg11.dtd">
<svg version="1.1" id="Layer_1" xmlns="http://www.w3.org/2000/svg" xmlns:xlink="http://www.w3.org/1999/xlink" x="0px" y="0px"
	 viewBox="0 0 660 125" enable-background="new 0 0 660 125" xml:space="preserve">
<g>
	<g>
		<path fill="#1FC9D0" d="M79.5,63.1l2.8,2.7l5.3-5.5l-2.8-2.7L79.5,63.1z M90.1,52.2l2.8,2.7c2-2,3.7-3.7,5.3-5.3l-2.8-2.8
			C93.8,48.4,92.1,50.2,90.1,52.2z M68.9,73.9l2.8,2.8c1.7-1.6,3.4-3.4,5.4-5.4l-2.8-2.7C72.3,70.5,70.6,72.3,68.9,73.9z
			 M113.3,31.2l-0.5,0.4l2.4,3.1l0.5-0.4c1.9-1.4,3.8-2.7,5.6-3.8l-2.1-3.3C117.2,28.4,115.3,29.8,113.3,31.2z M51.6,89.1
			c-1.9,1.4-3.8,2.7-5.6,3.8l2.1,3.3c1.9-1.2,3.9-2.5,5.9-4l0.5-0.4l-2.4-3.1L51.6,89.1z M57.9,84.1l2.5,3c1.8-1.5,3.8-3.3,5.7-5.1
			l-2.7-2.9C61.6,80.9,59.7,82.6,57.9,84.1z M101,41.5l2.7,2.9c1.9-1.8,3.8-3.5,5.6-5l-2.5-3C104.9,38,103,39.7,101,41.5z
			 M216.3,68.5l-2.8,2.7c2,2,3.7,3.8,5.4,5.4l2.8-2.8C220,72.2,218.2,70.5,216.3,68.5z M202.9,60.3l5.3,5.5l2.8-2.7l-5.3-5.5
			L202.9,60.3z M224.4,81.9c2,1.9,3.9,3.5,5.7,5.1l2.5-3c-1.8-1.5-3.6-3.2-5.6-5L224.4,81.9z M181.3,39.4c1.8,1.5,3.7,3.2,5.6,5
			l2.7-2.9c-2-1.8-3.9-3.5-5.7-5.1L181.3,39.4z M238.5,88.7l-2.3,3.1l0.5,0.4c2,1.5,4,2.8,5.9,4l2.1-3.3c-1.8-1.1-3.7-2.4-5.6-3.8
			L238.5,88.7z M171.4,27.2l-2.1,3.3c1.8,1.1,3.7,2.4,5.6,3.8l0.5,0.4l2.4-3.1l-0.5-0.4C175.3,29.8,173.3,28.4,171.4,27.2z
			 M195.1,46.8l-2.8,2.8c1.6,1.6,3.4,3.4,5.3,5.3l2.8-2.7C198.5,50.2,196.7,48.4,195.1,46.8z M347.8,41.5l2.7,2.9
			c2-1.8,3.8-3.5,5.6-5l-2.5-3C351.7,38,349.8,39.6,347.8,41.5z M304.7,84.1l2.5,3c1.8-1.5,3.8-3.3,5.7-5.1l-2.7-2.9
			C308.4,80.9,306.5,82.6,304.7,84.1z M360.1,31.2l-0.5,0.4l2.3,3.1l0.5-0.4c1.9-1.4,3.8-2.7,5.6-3.8l-2.1-3.3
			C364,28.4,362,29.8,360.1,31.2z M298.4,89.1c-1.9,1.4-3.8,2.7-5.6,3.8l2.1,3.3c1.9-1.2,3.9-2.5,5.9-4l0.5-0.4l-2.3-3.1L298.4,89.1
			z M336.9,52.2l2.8,2.7c2-2,3.7-3.7,5.3-5.3l-2.8-2.8C340.6,48.4,338.9,50.2,336.9,52.2z M315.7,73.9l2.8,2.8
			c1.7-1.6,3.4-3.4,5.4-5.4l-2.8-2.7C319.1,70.5,317.4,72.3,315.7,73.9z M326.3,63.1l2.8,2.7l5.3-5.5l-2.8-2.7L326.3,63.1z
			 M418.2,27.2l-2.1,3.3c1.8,1.1,3.7,2.4,5.6,3.8l0.5,0.4l2.4-3.1l-0.5-0.4C422.1,29.8,420.1,28.4,418.2,27.2z M485.3,88.7l-2.3,3.1
			l0.5,0.4c2,1.5,4,2.8,5.9,4l2.1-3.3c-1.8-1.1-3.7-2.4-5.6-3.8L485.3,88.7z M471.2,81.9c2,1.9,3.9,3.5,5.7,5.1l2.5-3
			c-1.8-1.5-3.6-3.2-5.6-5L471.2,81.9z M441.9,46.8l-2.8,2.8c1.6,1.6,3.4,3.4,5.3,5.3l2.8-2.7C445.3,50.2,443.5,48.4,441.9,46.8z
			 M449.7,60.3l5.3,5.5l2.8-2.7l-5.3-5.5L449.7,60.3z M463.1,68.5l-2.8,2.7c2,2,3.7,3.8,5.4,5.4l2.8-2.8
			C466.8,72.3,465,70.5,463.1,68.5z M428.1,39.4c1.8,1.5,3.7,3.2,5.6,5l2.7-2.9c-2-1.8-3.9-3.5-5.7-5.1L428.1,39.4z M612.7,27.2
			c-1.9,1.2-3.9,2.5-5.9,4l-0.5,0.4l2.3,3.1l0.5-0.4c1.9-1.4,3.8-2.7,5.6-3.8L612.7,27.2z M583.7,52.2l2.8,2.7
			c1.9-2,3.7-3.7,5.3-5.3l-2.8-2.8C587.4,48.4,585.6,50.2,583.7,52.2z M594.6,41.5l2.7,2.9c2-1.8,3.8-3.5,5.6-5l-2.5-3
			C598.5,38,596.6,39.6,594.6,41.5z M573.1,63.1l2.8,2.7l5.3-5.5l-2.8-2.7L573.1,63.1z M545.2,89.1c-1.9,1.4-3.8,2.7-5.6,3.8
			l2.1,3.3c1.9-1.2,3.9-2.5,5.9-4l0.5-0.4l-2.4-3.1L545.2,89.1z M551.5,84.1l2.5,3c1.8-1.6,3.7-3.2,5.7-5.1l-2.7-2.9
			C555.1,80.9,553.3,82.5,551.5,84.1z M562.5,73.9l2.8,2.8c1.7-1.6,3.4-3.4,5.4-5.4l-2.8-2.7C565.9,70.5,564.1,72.3,562.5,73.9z"/>
	</g>
</g>
</svg>
