<?xml version="1.0" encoding="utf-8"?>
<!-- Generator: Adobe Illustrator 18.0.0, SVG Export Plug-In . SVG Version: 6.00 Build 0)  -->
<!DOCTYPE svg PUBLIC "-//W3C//DTD SVG 1.1//EN" "http://www.w3.org/Graphics/SVG/1.1/DTD/svg11.dtd">
<svg version="1.1" id="Layer_1" xmlns="http://www.w3.org/2000/svg" xmlns:xlink="http://www.w3.org/1999/xlink" x="0px" y="0px"
	 viewBox="0 0 128 128" enable-background="new 0 0 128 128" xml:space="preserve">
<path fill="#231F20" d="M125.9,128H87.5h-8.5h-64H6.4H2.1C1,128,0,127,0,125.9c0-1.2,1-2.1,2.1-2.1h2.1V19.2c0-1.2,1-2.1,2.1-2.1
	h10.7v-6.4c0-1.2,1-2.1,2.1-2.1h25.6V2.1c0-1.2,1-2.1,2.1-2.1c1.2,0,2.1,1,2.1,2.1v6.4h25.6c1.2,0,2.1,1,2.1,2.1v6.4h10.7
	c1.2,0,2.1,1,2.1,2.1v104.5h17.1v-17.3c-7.2-1-12.8-7.2-12.8-14.7c0-5.9,5.2-36.3,14.9-36.3c9.7,0,14.9,30.4,14.9,36.3
	c0,7.5-5.6,13.7-12.8,14.7v17.3h14.9c1.2,0,2.1,1,2.1,2.1C128,127,127,128,125.9,128z M64,123.7h12.8V93.9H64V123.7z M68.3,42.7v8.5
	h8.5v-8.5H68.3z M76.8,38.4v-8.5h-8.5v8.5H76.8z M68.3,55.5V64h8.5v-8.5H68.3z M68.3,68.3v8.5h8.5v-8.5H68.3z M68.3,81.1v8.5h8.5
	v-8.5H68.3z M55.5,42.7v8.5H64v-8.5H55.5z M64,38.4v-8.5h-8.5v8.5H64z M55.5,55.5V64H64v-8.5H55.5z M55.5,68.3v8.5H64v-8.5H55.5z
	 M55.5,81.1v8.5H64v-8.5H55.5z M49.1,123.7h10.7V93.9H49.1V123.7z M42.7,42.7v8.5h8.5v-8.5H42.7z M51.2,38.4v-8.5h-8.5v8.5H51.2z
	 M42.7,55.5V64h8.5v-8.5H42.7z M42.7,68.3v8.5h8.5v-8.5H42.7z M42.7,81.1v8.5h8.5v-8.5H42.7z M34.1,123.7h10.7V93.9H34.1V123.7z
	 M29.9,42.7v8.5h8.5v-8.5H29.9z M38.4,38.4v-8.5h-8.5v8.5H38.4z M29.9,55.5V64h8.5v-8.5H29.9z M29.9,68.3v8.5h8.5v-8.5H29.9z
	 M29.9,81.1v8.5h8.5v-8.5H29.9z M17.1,123.7h12.8V93.9H17.1V123.7z M17.1,89.6h8.5v-8.5h-8.5V89.6z M17.1,76.8h8.5v-8.5h-8.5V76.8z
	 M17.1,64h8.5v-8.5h-8.5V64z M17.1,51.2h8.5v-8.5h-8.5V51.2z M17.1,38.4h8.5v-8.5h-8.5V38.4z M72.5,12.8H21.3v4.3h51.2V12.8z
	 M85.3,21.3H74.7H19.2H8.5v102.4h4.3v-96c0-1.2,1-2.1,2.1-2.1h64c1.2,0,2.1,1,2.1,2.1v96h4.3V21.3z M119.5,91.7
	c0-12.7-7.6-32-10.7-32c-3.1,0-10.7,19.3-10.7,32c0,5.9,4.8,10.7,10.7,10.7C114.7,102.4,119.5,97.6,119.5,91.7z M107.1,75.8
	c-1.1,0.3-2.3-0.5-2.6-1.6c-0.3-1.1,0.5-2.3,1.6-2.6c2.7-0.6,5,0.4,6.6,2.8c0.7,1,0.4,2.3-0.6,3c-0.4,0.2-0.8,0.4-1.2,0.4
	c-0.7,0-1.4-0.3-1.8-0.9C108.5,75.7,107.9,75.6,107.1,75.8z M106.6,93.6c1.1,0.3,1.8,1.4,1.5,2.6c-0.2,1-1.1,1.6-2.1,1.6
	c-0.2,0-0.3,0-0.5-0.1c-1.9-0.5-4.2-1.8-4.7-5.5c-0.1-1.2,0.7-2.2,1.8-2.4c1.2-0.1,2.2,0.7,2.4,1.9
	C105.3,93.1,105.8,93.4,106.6,93.6z"/>
</svg>
