<?xml version="1.0" encoding="utf-8"?>
<!-- Generator: Adobe Illustrator 18.0.0, SVG Export Plug-In . SVG Version: 6.00 Build 0)  -->
<!DOCTYPE svg PUBLIC "-//W3C//DTD SVG 1.1//EN" "http://www.w3.org/Graphics/SVG/1.1/DTD/svg11.dtd">
<svg version="1.1" id="Layer_1" xmlns="http://www.w3.org/2000/svg" xmlns:xlink="http://www.w3.org/1999/xlink" x="0px" y="0px"
	 viewBox="0 0 128 128" enable-background="new 0 0 128 128" xml:space="preserve">
<path fill="#231F20" d="M121.4,110.2H24.3c-3.7,0-6.6-3-6.6-6.6v-2.2h-2.2c-3.7,0-6.6-3-6.6-6.6v-2.2H6.6C3,92.6,0,89.6,0,86V24.4
	c0-3.6,3-6.6,6.6-6.6h97.1c3.7,0,6.6,3,6.6,6.6v2.2h2.2c3.7,0,6.6,3,6.6,6.6v2.2h2.2c3.7,0,6.6,3,6.6,6.6v61.6
	C128,107.2,125,110.2,121.4,110.2z M105.9,24.4c0-1.2-1-2.2-2.2-2.2H6.6c-1.2,0-2.2,1-2.2,2.2V86c0,1.2,1,2.2,2.2,2.2h2.2v-55
	c0-3.6,3-6.6,6.6-6.6h90.5V24.4z M114.8,33.2c0-1.2-1-2.2-2.2-2.2h-4.4H15.4c-1.2,0-2.2,1-2.2,2.2v57.2v4.4c0,1.2,1,2.2,2.2,2.2h2.2
	V42c0-3.6,3-6.6,6.6-6.6h90.5V33.2z M123.6,42c0-1.2-1-2.2-2.2-2.2H117H24.3c-1.2,0-2.2,1-2.2,2.2v57.2v4.4c0,1.2,1,2.2,2.2,2.2
	h97.1c1.2,0,2.2-1,2.2-2.2V42z M108.1,101.4c-2.4,0-4.7-0.8-6.6-2.2c-1.9,1.4-4.2,2.2-6.6,2.2c-6.1,0-11-4.9-11-11
	c0-6.1,4.9-11,11-11c2.4,0,4.7,0.8,6.6,2.2c1.9-1.4,4.2-2.2,6.6-2.2c6.1,0,11,4.9,11,11C119.2,96.4,114.2,101.4,108.1,101.4z
	 M108.1,83.8c-1.9,0-3.7,0.8-5,2.3c-0.8,1-2.5,1-3.3,0c-1.3-1.5-3.1-2.3-5-2.3c-3.7,0-6.6,3-6.6,6.6c0,3.6,3,6.6,6.6,6.6
	c1.9,0,3.7-0.8,5-2.3c0.4-0.5,1-0.8,1.7-0.8c0.6,0,1.2,0.3,1.7,0.8c1.3,1.5,3.1,2.3,5,2.3c3.7,0,6.6-3,6.6-6.6
	C114.8,86.7,111.8,83.8,108.1,83.8z M112.6,75c-1.2,0-2.2-1-2.2-2.2v-2.2c0-1.2,1-2.2,2.2-2.2c1.2,0,2.2,1,2.2,2.2v2.2
	C114.8,74,113.8,75,112.6,75z M103.7,75c-1.2,0-2.2-1-2.2-2.2v-2.2c0-1.2,1-2.2,2.2-2.2c1.2,0,2.2,1,2.2,2.2v2.2
	C105.9,74,104.9,75,103.7,75z M94.9,75c-1.2,0-2.2-1-2.2-2.2v-2.2c0-1.2,1-2.2,2.2-2.2c1.2,0,2.2,1,2.2,2.2v2.2
	C97.1,74,96.1,75,94.9,75z M86.1,75c-1.2,0-2.2-1-2.2-2.2v-2.2c0-1.2,1-2.2,2.2-2.2c1.2,0,2.2,1,2.2,2.2v2.2
	C88.3,74,87.3,75,86.1,75z M77.2,75C76,75,75,74,75,72.8v-2.2c0-1.2,1-2.2,2.2-2.2c1.2,0,2.2,1,2.2,2.2v2.2C79.4,74,78.5,75,77.2,75
	z M72.8,101.4H33.1c-1.2,0-2.2-1-2.2-2.2c0-1.2,1-2.2,2.2-2.2h39.7c1.2,0,2.2,1,2.2,2.2C75,100.4,74,101.4,72.8,101.4z M68.4,75
	c-1.2,0-2.2-1-2.2-2.2v-2.2c0-1.2,1-2.2,2.2-2.2c1.2,0,2.2,1,2.2,2.2v2.2C70.6,74,69.6,75,68.4,75z M59.6,92.6h-8.8
	c-1.2,0-2.2-1-2.2-2.2c0-1.2,1-2.2,2.2-2.2h8.8c1.2,0,2.2,1,2.2,2.2C61.8,91.6,60.8,92.6,59.6,92.6z M59.6,75c-1.2,0-2.2-1-2.2-2.2
	v-2.2c0-1.2,1-2.2,2.2-2.2c1.2,0,2.2,1,2.2,2.2v2.2C61.8,74,60.8,75,59.6,75z M50.8,75c-1.2,0-2.2-1-2.2-2.2v-2.2
	c0-1.2,1-2.2,2.2-2.2c1.2,0,2.2,1,2.2,2.2v2.2C53,74,52,75,50.8,75z M41.9,92.6h-8.8c-1.2,0-2.2-1-2.2-2.2c0-1.2,1-2.2,2.2-2.2h8.8
	c1.2,0,2.2,1,2.2,2.2C44.1,91.6,43.2,92.6,41.9,92.6z M41.9,75c-1.2,0-2.2-1-2.2-2.2v-2.2c0-1.2,1-2.2,2.2-2.2c1.2,0,2.2,1,2.2,2.2
	v2.2C44.1,74,43.2,75,41.9,75z M39.7,61.8h-8.8c-2.4,0-4.4-2-4.4-4.4v-8.8c0-2.4,2-4.4,4.4-4.4h8.8c2.4,0,4.4,2,4.4,4.4v8.8
	C44.1,59.8,42.2,61.8,39.7,61.8z M39.7,48.6h-8.8v8.8h8.8L39.7,48.6z M33.1,68.4c1.2,0,2.2,1,2.2,2.2v2.2c0,1.2-1,2.2-2.2,2.2
	c-1.2,0-2.2-1-2.2-2.2v-2.2C30.9,69.4,31.9,68.4,33.1,68.4z"/>
</svg>
