<?xml version="1.0" encoding="utf-8"?>
<!-- Generator: Adobe Illustrator 18.0.0, SVG Export Plug-In . SVG Version: 6.00 Build 0)  -->
<!DOCTYPE svg PUBLIC "-//W3C//DTD SVG 1.1//EN" "http://www.w3.org/Graphics/SVG/1.1/DTD/svg11.dtd">
<svg version="1.1" id="Layer_1" xmlns="http://www.w3.org/2000/svg" xmlns:xlink="http://www.w3.org/1999/xlink" x="0px" y="0px"
	 viewBox="0 0 128 128" enable-background="new 0 0 128 128" xml:space="preserve">
<path fill="#231F20" d="M126.4,75.3l-14.9,5c-0.7,2-1.5,3.9-2.5,5.9l7,14c0.4,0.9,0.3,1.9-0.4,2.6l-12.9,12.9
	c-0.7,0.7-1.8,0.9-2.6,0.4l-14-7c-1.9,1-3.9,1.8-5.9,2.5l-4.9,14.9c-0.3,0.9-1.2,1.6-2.2,1.6H54.9c-1,0-1.9-0.6-2.2-1.6l-4.9-14.9
	c-2-0.7-3.9-1.5-5.9-2.5l-14,7c-0.9,0.4-1.9,0.3-2.6-0.4l-12.9-12.9c-0.7-0.7-0.9-1.8-0.4-2.6l7-14c-1-1.9-1.8-3.9-2.5-5.9l-14.9-5
	C0.6,75,0,74.1,0,73.1V54.9c0-1,0.6-1.9,1.6-2.2l14.9-5c0.7-2,1.5-3.9,2.5-5.9l-7-14c-0.4-0.9-0.3-1.9,0.4-2.6l12.9-12.9
	c0.7-0.7,1.8-0.9,2.6-0.4l14,7c1.9-1,3.9-1.8,5.9-2.5l4.9-14.9C53,0.6,53.9,0,54.9,0h18.3c1,0,1.9,0.6,2.2,1.6l4.9,14.9
	c2,0.7,3.9,1.5,5.9,2.5l14-7c0.9-0.4,1.9-0.3,2.6,0.4l12.9,12.9c0.7,0.7,0.9,1.8,0.4,2.6l-7,14c1,1.9,1.8,3.9,2.5,5.9l14.9,5
	c0.9,0.3,1.6,1.2,1.6,2.2v18.3C128,74.1,127.4,75,126.4,75.3z M123.4,56.5l-14.4-4.8c-0.7-0.2-1.2-0.8-1.5-1.5
	c-0.8-2.4-1.8-4.9-3-7.3c-0.3-0.7-0.3-1.4,0-2.1l6.8-13.6l-10.6-10.6l-13.6,6.8c-0.7,0.3-1.4,0.3-2.1,0c-2.4-1.3-4.9-2.3-7.3-3
	c-0.7-0.2-1.3-0.8-1.5-1.5L71.5,4.6h-15l-4.8,14.4c-0.2,0.7-0.8,1.2-1.5,1.5c-2.4,0.8-4.9,1.8-7.3,3c-0.7,0.3-1.4,0.3-2.1,0
	l-13.6-6.8L16.7,27.3l6.8,13.6c0.3,0.7,0.3,1.4,0,2.1c-1.3,2.4-2.3,4.9-3,7.3c-0.2,0.7-0.8,1.2-1.5,1.5L4.6,56.5v15l14.4,4.8
	c0.7,0.2,1.2,0.8,1.5,1.5c0.8,2.4,1.8,4.9,3,7.3c0.3,0.7,0.3,1.4,0,2.1l-6.8,13.6l10.6,10.6l13.6-6.8c0.7-0.3,1.4-0.3,2.1,0
	c2.4,1.3,4.9,2.3,7.3,3c0.7,0.2,1.2,0.8,1.5,1.5l4.8,14.4h15l4.8-14.4c0.2-0.7,0.8-1.2,1.5-1.5c2.4-0.8,4.9-1.8,7.3-3
	c0.7-0.3,1.4-0.3,2.1,0l13.6,6.8l10.6-10.6l-6.8-13.6c-0.3-0.7-0.3-1.4,0-2.1c1.3-2.4,2.3-4.9,3-7.3c0.2-0.7,0.8-1.3,1.5-1.5
	l14.4-4.8V56.5z M64,96c-17.6,0-32-14.4-32-32c0-17.6,14.4-32,32-32c17.6,0,32,14.4,32,32C96,81.6,81.6,96,64,96z M64,36.6
	c-15.1,0-27.4,12.3-27.4,27.4c0,15.1,12.3,27.4,27.4,27.4S91.4,79.1,91.4,64C91.4,48.9,79.1,36.6,64,36.6z M64,82.3
	c-10.1,0-18.3-8.2-18.3-18.3c0-10.1,8.2-18.3,18.3-18.3S82.3,53.9,82.3,64C82.3,74.1,74.1,82.3,64,82.3z M64,50.3
	c-7.6,0-13.7,6.2-13.7,13.7c0,7.6,6.2,13.7,13.7,13.7S77.7,71.6,77.7,64C77.7,56.4,71.6,50.3,64,50.3z"/>
</svg>
