<?xml version="1.0" encoding="utf-8"?>
<!-- Generator: Adobe Illustrator 18.0.0, SVG Export Plug-In . SVG Version: 6.00 Build 0)  -->
<!DOCTYPE svg PUBLIC "-//W3C//DTD SVG 1.1//EN" "http://www.w3.org/Graphics/SVG/1.1/DTD/svg11.dtd">
<svg version="1.1" id="Layer_1" xmlns="http://www.w3.org/2000/svg" xmlns:xlink="http://www.w3.org/1999/xlink" x="0px" y="0px"
	 viewBox="0 0 128 128" enable-background="new 0 0 128 128" xml:space="preserve">
<path fill="#231F20" d="M90.1,7.7v19.7h0c0,0-8.8,0-12.3,0c-4.4,0-5.3,1.8-5.3,6.3c0,3.7,0,10.8,0,10.8h17.6l-1.7,19H72.5v56.8H49.7
	V63.8H37.9V44.5h11.8c0,0,0-2.8,0-15.2c0-14.2,7.6-21.7,24.6-21.7C77.1,7.7,90.1,7.7,90.1,7.7 M90.1,44.5L90.1,44.5 M90.1,0H74.3
	C64,0,56,2.5,50.5,7.5C44.9,12.6,42,19.9,42,29.3v7.5h-4.1c-4.3,0-7.7,3.4-7.7,7.7v19.3c0,4.2,3.5,7.7,7.7,7.7H42v48.9
	c0,4.2,3.5,7.7,7.7,7.7h22.8c4.3,0,7.7-3.4,7.7-7.7V71.2h8.2c4,0,7.3-3,7.7-7l1.7-18.9c0-0.3,0-0.6,0-0.8c0-4.2-3.4-7.7-7.7-7.7h0
	h-9.9v-1.7h9.9c4.3,0,7.7-3.4,7.7-7.7l0-19.7c0-2-0.8-4-2.3-5.4C94.1,0.8,92.2,0,90.1,0L90.1,0z"/>
</svg>
