<?xml version="1.0" encoding="utf-8"?>
<!-- Generator: Adobe Illustrator 18.0.0, SVG Export Plug-In . SVG Version: 6.00 Build 0)  -->
<!DOCTYPE svg PUBLIC "-//W3C//DTD SVG 1.1//EN" "http://www.w3.org/Graphics/SVG/1.1/DTD/svg11.dtd">
<svg version="1.1" id="Layer_1" xmlns="http://www.w3.org/2000/svg" xmlns:xlink="http://www.w3.org/1999/xlink" x="0px" y="0px"
	 viewBox="0 0 128 128" enable-background="new 0 0 128 128" xml:space="preserve">
<path fill="#505070" d="M125.9,106.1C125.9,106.1,125.9,106.1,125.9,106.1C125.9,106.1,125.9,106.1,125.9,106.1
	c-1.4,1.4-3.2,2.2-5.3,2.2H7.4c-2,0-3.9-0.8-5.2-2.2c0,0,0,0,0,0c0,0,0,0,0,0c-1.3-1.3-2.1-3.1-2.1-5.1V27.1c0-2,0.8-3.8,2.1-5.1
	c0,0,0,0,0,0c0,0,0,0,0,0c1.3-1.3,3.2-2.2,5.2-2.2h113.2c2.1,0,3.9,0.8,5.2,2.2c0,0,0,0,0,0c0,0,0,0,0,0c1.3,1.3,2.1,3.1,2.1,5.1
	v73.8C128,102.9,127.2,104.7,125.9,106.1z M46,67.4l-37.5,36h111L82,67.4l-6,5.8C72.6,76.4,68.3,78,64,78s-8.6-1.6-11.9-4.8L46,67.4
	z M4.9,28v72l37.6-36L4.9,28z M8.5,24.6l47,45c4.8,4.6,12.3,4.6,17,0l47-45H8.5z M123.1,28L85.5,64l37.6,36V28z"/>
</svg>
