<?xml version="1.0" encoding="utf-8"?>
<!-- Generator: Adobe Illustrator 18.0.0, SVG Export Plug-In . SVG Version: 6.00 Build 0)  -->
<!DOCTYPE svg PUBLIC "-//W3C//DTD SVG 1.1//EN" "http://www.w3.org/Graphics/SVG/1.1/DTD/svg11.dtd">
<svg version="1.1" id="Layer_1" xmlns="http://www.w3.org/2000/svg" xmlns:xlink="http://www.w3.org/1999/xlink" x="0px" y="0px"
	 viewBox="0 0 128 128" enable-background="new 0 0 128 128" xml:space="preserve">
<path fill="#231F20" d="M128,64c0,20.8-17.1,37.6-38.3,37.6c-8.7,0-16.7-2.8-23.1-7.6c0,0,0,0,0,0c5.4-4.9,9.4-11.2,11.6-18.3h-3.6
	C72.6,82,68.9,87.6,64,91.9c-4.9-4.3-8.6-9.9-10.7-16.1h-3.6C51.9,82.8,56,89.1,61.4,94l0,0c-6.4,4.8-14.4,7.6-23.1,7.6
	C17.1,101.6,0,84.8,0,64c0-20.8,17.1-37.6,38.3-37.6c8.7,0,16.7,2.8,23.1,7.6l0,0c-5.7,5.2-10,12-12,19.6h3.5
	c2-6.8,5.9-12.8,11.1-17.5c5.2,4.6,9.1,10.7,11.1,17.5h3.5c-2-7.6-6.3-14.4-12-19.6c0,0,0,0,0,0c6.4-4.8,14.4-7.6,23.1-7.6
	C110.9,26.4,128,43.2,128,64z M22.8,55h-6.1l-3.8,11.2L12.7,55H7L3.9,73.2h3.7L10,59.3l0.3,13.9H13l5.1-13.9l-2.3,13.9h4L22.8,55z
	 M30.1,66.6c-0.4,0-0.6-0.1-0.9-0.1c-2.2,0-3.4,0.8-3.4,2.2c0,0.9,0.6,1.5,1.4,1.5C28.9,70.3,30.1,68.8,30.1,66.6z M34.2,65.3
	c0.2-1.2,0.3-2.2,0.3-2.9c0-2.8-1.8-4.3-5.2-4.3c-1.5,0-2.8,0.2-4.7,0.8c0,0-0.5,3.1-0.5,3.3c0.7-0.2,2.3-0.7,4.2-0.7
	c1.8,0,2.5,0.4,2.5,1.3c0,0.3,0,0.5-0.2,1c-0.6-0.1-1.2-0.1-1.6-0.1c-4.4,0-6.9,2.1-6.9,5.7c0,2.4,1.5,4,3.6,4
	c1.8,0,3.1-0.6,4.1-1.8l-0.1,1.5c0,0,2.7,0,3.3,0C33.1,72,33.9,67.5,34.2,65.3z M84.6,54.6c-5.2,0-8.9,4.5-8.9,11
	c0,4.8,2.6,7.8,6.9,7.8c1.1,0,2-0.1,3.5-0.5l0.7-4.1c-1.3,0.6-2.4,0.9-3.4,0.9c-2.3,0-3.7-1.7-3.7-4.4c0-4,2.1-6.8,5-6.8
	c1.1,0,2.1,0.3,3.5,1l0.6-3.9C88.4,55.3,86.3,54.6,84.6,54.6z M96,66.6c-0.4,0-0.6-0.1-0.9-0.1c-2.2,0-3.4,0.8-3.4,2.2
	c0,0.9,0.6,1.5,1.4,1.5C94.8,70.3,95.9,68.8,96,66.6z M100,65.3c0.2-1.2,0.3-2.2,0.3-2.9c0-2.8-1.8-4.3-5.2-4.3
	c-1.5,0-2.8,0.2-4.7,0.8c0,0-0.5,3.1-0.5,3.3c0.7-0.2,2.2-0.7,4.2-0.7c1.8,0,2.5,0.4,2.5,1.3c0,0.3,0,0.5-0.2,1
	c-0.6-0.1-1.2-0.1-1.6-0.1c-4.4,0-6.9,2.1-6.9,5.7c0,2.4,1.5,4,3.6,4c1.8,0,3.1-0.6,4.1-1.8l-0.1,1.5c0,0,2.7,0,3.3,0
	C99,72,99.7,67.5,100,65.3z M52.4,69.7c-0.3,0.1-0.6,0.1-1.1,0.1c-0.9,0-1.4-0.3-1.4-1.1c0-0.5,0.7-4,1.1-6.8h2l0.5-3.5h-2l0.5-2.2
	h-3.9c0,0-1.5,8.7-1.7,10.1c-0.2,1.6-0.6,3.3-0.5,3.9c0,2.1,1.1,3.2,3.1,3.2c0.9,0,1.8-0.1,2.8-0.5L52.4,69.7z M65.2,69.1
	c-1.4,0.6-2.7,0.9-4.1,0.9c-2.3,0-3.7-0.9-3.4-3h7.8c0.3-1.5,0.5-2.5,0.5-3.6c0-3.3-2.1-5.3-5.3-5.3c-4,0-6.9,3.7-6.9,8.7
	c0,4.3,2.3,6.6,6.7,6.6c1.4,0,2.7-0.2,4-0.6L65.2,69.1z M62.3,64.1c0-0.3,0.4-2.6-1.8-2.6c-1.2,0-2.1,0.9-2.5,2.6H62.3z M36,63.1
	c0,1.9,0.9,3.1,3,4.1c1.6,0.7,1.8,1,1.8,1.6c0,0.9-0.7,1.3-2.3,1.3c-1.2,0-2.3-0.2-3.5-0.6c0,0-0.5,3.2-0.5,3.4
	c0.9,0.2,1.7,0.4,4.1,0.4c4.2,0,6.1-1.6,6.1-4.9c0-2-0.8-3.2-2.8-4.1c-1.7-0.7-1.8-0.9-1.8-1.6c0-0.8,0.7-1.2,1.9-1.2
	c0.8,0,1.8,0.1,2.8,0.2l0.6-3.4c-1-0.2-2.6-0.3-3.5-0.3C37.6,58.1,36,60.4,36,63.1z M124.1,55h-3.9l-0.9,5.2c-1.1-1.4-2.2-2-3.8-2
	c-3.5,0-6.4,4.1-6.4,9c0,3.7,1.9,6.1,4.8,6.1c1.5,0,2.6-0.5,3.6-1.6l-0.2,1.4h3.7L124.1,55z M113.3,66.8c0-2.9,1.3-5,3.1-5
	c1.4,0,2.1,1,2.1,2.9c0,2.9-1.3,5-3.1,5C113.9,69.8,113.3,68.8,113.3,66.8z M103.1,58.4c-0.5,4.6-1.4,9.2-2.1,13.8l-0.2,1h3.9
	c1.4-9,1.8-10.8,4-10.6c0.4-1.8,1-3.5,1.5-4.3c-1.7-0.3-2.6,0.6-3.8,2.3c0.1-0.7,0.3-1.5,0.2-2.2H103.1z M68.6,58.4
	c-0.5,4.6-1.4,9.2-2.1,13.8l-0.2,1h4c1.4-9,1.8-10.8,4-10.6c0.4-1.8,1-3.5,1.5-4.3c-1.6-0.3-2.6,0.6-3.8,2.3
	c0.1-0.7,0.3-1.5,0.2-2.2H68.6z"/>
</svg>
