<?xml version="1.0" encoding="utf-8"?>
<!-- Generator: Adobe Illustrator 18.0.0, SVG Export Plug-In . SVG Version: 6.00 Build 0)  -->
<!DOCTYPE svg PUBLIC "-//W3C//DTD SVG 1.1//EN" "http://www.w3.org/Graphics/SVG/1.1/DTD/svg11.dtd">
<svg version="1.1" id="Layer_1" xmlns="http://www.w3.org/2000/svg" xmlns:xlink="http://www.w3.org/1999/xlink" x="0px" y="0px"
	 viewBox="0 0 128 128" enable-background="new 0 0 128 128" xml:space="preserve">
<path fill="#231F20" d="M127.9,6.4c0,0.1,0.1,0.3,0.1,0.4c0,0.1,0,0.2,0,0.3c0,0.1,0,0.1,0,0.2l-18.3,100.5
	c-0.1,0.7-0.5,1.2-1.1,1.6c-0.4,0.2-0.7,0.3-1.1,0.3c-0.3,0-0.5,0-0.8-0.1L76.8,98.7l-22.6,23.9c0,0-0.1,0-0.1,0.1
	c-0.2,0.2-0.5,0.4-0.9,0.5c0,0,0,0,0,0c-0.1,0-0.2,0-0.2,0c-0.2,0-0.3,0.1-0.5,0.1h0l0,0c0,0,0,0,0,0c0,0,0,0,0,0c0,0,0,0,0,0
	c0,0,0,0,0,0c-0.1,0-0.2,0-0.3,0c-0.1,0-0.1-0.1-0.2-0.1c-0.1,0-0.2,0-0.2,0c0,0,0,0,0,0c-0.1,0-0.1-0.1-0.2-0.1
	c-0.1-0.1-0.2-0.1-0.4-0.2c-0.1,0-0.1-0.1-0.2-0.1c0,0,0,0,0,0c0,0,0,0,0,0c0,0-0.1-0.1-0.1-0.2c-0.1-0.1-0.2-0.3-0.3-0.5
	c-0.1-0.1-0.2-0.2-0.2-0.3L38.1,85.7L1.5,73c-0.9-0.3-1.5-1.1-1.5-2c-0.1-0.9,0.4-1.8,1.2-2.2l123.5-64c0.8-0.4,1.7-0.3,2.4,0.2
	c0,0,0,0,0,0c0,0,0,0,0.1,0c0,0,0.1,0.1,0.1,0.1c0,0,0.1,0.1,0.1,0.1c0.1,0.1,0.1,0.2,0.1,0.2c0.1,0.1,0.1,0.2,0.2,0.3
	c0,0.1,0.1,0.2,0.1,0.3C127.9,6.3,127.9,6.3,127.9,6.4z M121.9,15.2L62,88.5l15,5.4c0,0,0,0,0,0l28.7,10.4L121.9,15.2z M72.1,97
	l-12.2-4.4L56.2,114L72.1,97z M51.9,112l4-22.8c0,0,0-0.1,0-0.1c0,0,0,0,0-0.1c0-0.1,0-0.1,0-0.2c0-0.1,0.1-0.2,0.2-0.3
	c0-0.1,0.1-0.2,0.1-0.2c0,0,0-0.1,0.1-0.1l48.8-59.7L42.6,84.6L51.9,112z M39.4,81.3l71.5-64.2L8.1,70.4L39.4,81.3z"/>
</svg>
