<?xml version="1.0" encoding="utf-8"?>
<!-- Generator: Adobe Illustrator 18.0.0, SVG Export Plug-In . SVG Version: 6.00 Build 0)  -->
<!DOCTYPE svg PUBLIC "-//W3C//DTD SVG 1.1//EN" "http://www.w3.org/Graphics/SVG/1.1/DTD/svg11.dtd">
<svg version="1.1" id="Layer_1" xmlns="http://www.w3.org/2000/svg" xmlns:xlink="http://www.w3.org/1999/xlink" x="0px" y="0px"
	 viewBox="0 0 128 128" enable-background="new 0 0 128 128" xml:space="preserve">
<path fill="#505070" d="M101.3,127.9L101.3,127.9c-10.7,0-30.2-6.7-62.3-38.8C20,70,7.7,53.5,2.6,39.9c-5.5-14.7-1.2-22,1.9-25.1
	L15.5,3.9c2.4-2.4,5.6-3.8,9.1-3.8c4,0,7.7,1.8,10.1,4.9L48,22.2c3.6,4.7,3.6,11.2-0.1,15.8l-3,3.8c-2.4,3.1-2.2,7.5,0.6,10.2
	l30.6,30.6c2.7,2.7,7.2,3,10.2,0.6l3.8-3c4.5-3.5,11.3-3.6,15.8-0.1l17.1,13.3c2.9,2.3,4.7,5.7,4.9,9.3c0.2,3.7-1.1,7.3-3.7,9.9
	l-10.9,10.9C111.4,125.5,107.7,127.9,101.3,127.9z M24.5,5.3c-2.1,0-4,0.8-5.4,2.3L8.2,18.4c-3.8,3.8-4.1,10.8-0.7,19.7
	C12.3,51,24.1,66.9,42.7,85.5c32.4,32.4,50.7,37.3,58.7,37.3h0c4.6,0,7.1-1.5,8.4-2.8l10.9-10.9c1.6-1.6,2.4-3.7,2.2-5.9
	c-0.1-2.2-1.2-4.2-3-5.6l-17.1-13.3c-2.7-2.1-6.8-2.1-9.5,0l-3.8,3C87.2,89,84.4,90,81.6,90c-3.4,0-6.6-1.3-9.1-3.8L41.9,55.6
	c-4.6-4.6-5-11.9-1-17l3-3.8c2.2-2.8,2.2-6.7,0-9.5L30.6,8.2C29.2,6.3,26.9,5.3,24.5,5.3z"/>
</svg>
