<?xml version="1.0" encoding="utf-8"?>
<!-- Generator: Adobe Illustrator 18.0.0, SVG Export Plug-In . SVG Version: 6.00 Build 0)  -->
<!DOCTYPE svg PUBLIC "-//W3C//DTD SVG 1.1//EN" "http://www.w3.org/Graphics/SVG/1.1/DTD/svg11.dtd">
<svg version="1.1" id="Layer_1" xmlns="http://www.w3.org/2000/svg" xmlns:xlink="http://www.w3.org/1999/xlink" x="0px" y="0px"
	 viewBox="0 0 128 128" enable-background="new 0 0 128 128" xml:space="preserve">
<path fill="#231F20" d="M85.4,3.1l15.8,26.5V35c0,5.7-4.6,10.3-10.3,10.3S80.5,40.7,80.5,35v-5.4h0L75,3.1H85.4z M53.7,29.6
	L53.7,29.6l5.2-26.5h10.2l5.2,26.5h0V35c0,5.7-4.6,10.3-10.3,10.3c-5.7,0-10.3-4.6-10.3-10.3V29.6z M53,3.1l-5.5,26.5h0V35
	c0,5.7-4.6,10.3-10.3,10.3c-5.7,0-10.3-4.6-10.3-10.3v-5.4L42.6,3.1H53z M0,35v-5.4L26,3.1h10.7L20.6,29.6V35
	c0,5.7-4.6,10.3-10.3,10.3C4.6,45.3,0,40.7,0,35z M97.2,124.9H62.9v-51h34.3V124.9z M119,124.9h-12.4l0-60.5H21.8v48.1h31.8v12.4
	H9.4V52H119V124.9z M128,35c0,5.7-4.6,10.3-10.3,10.3c-5.7,0-10.3-4.6-10.3-10.3v-5.4L91.3,3.1H102l26,26.5V35z"/>
</svg>
