<?xml version="1.0" encoding="utf-8"?>
<!-- Generator: Adobe Illustrator 18.0.0, SVG Export Plug-In . SVG Version: 6.00 Build 0)  -->
<!DOCTYPE svg PUBLIC "-//W3C//DTD SVG 1.1//EN" "http://www.w3.org/Graphics/SVG/1.1/DTD/svg11.dtd">
<svg version="1.1" id="Layer_1" xmlns="http://www.w3.org/2000/svg" xmlns:xlink="http://www.w3.org/1999/xlink" x="0px" y="0px"
	 viewBox="0 0 128 128" enable-background="new 0 0 128 128" xml:space="preserve">
<path fill="#231F20" d="M85.6,18.2c6.6,0,12.6,2.8,16.9,7.3c5.3-1,10.2-3,14.7-5.6c-1.7,5.4-5.4,9.9-10.2,12.8
	c4.7-0.6,9.1-1.8,13.3-3.6c-3.1,4.6-7,8.7-11.5,12c1.5,32.5-22.8,68.8-65.6,68.8c-13,0-25.2-3.8-35.4-10.4c1.8,0.2,3.7,0.3,5.5,0.3
	c10.4,0,20.4-3.4,28.7-9.9C31.8,89.7,23.3,83,20.3,73.8c1.5,0.3,2.9,0.4,4.4,0.4c2.1,0,4.1-0.3,6.1-0.8c-11.1-2.2-18.8-12.3-18.5-23
	c3.1,1.7,6.7,2.8,10.5,2.9c-10.3-6.9-13.2-20.5-7.1-30.9C27,36.4,44,45.6,63.2,46.6C59.8,32.1,70.7,18.2,85.6,18.2 M117.2,19.9
	L117.2,19.9 M85.6,10.4c-9.5,0-18.3,4.3-24.1,11.7c-3.6,4.6-5.9,10-6.5,15.7C42,35.1,30.1,28,21.6,17.5c-1.5-1.8-3.7-2.9-6-2.9
	c-0.2,0-0.4,0-0.6,0c-2.5,0.2-4.8,1.6-6.1,3.8C4,26.8,3.5,36.6,6.7,45c-1.3,1.4-2.1,3.2-2.2,5.2c-0.2,7,2.2,14,6.7,19.7
	c0.5,0.7,1.1,1.3,1.7,1.9c-0.4,1.4-0.3,2.9,0.1,4.3c1.9,5.9,5.4,10.9,10,14.6c-3.1,0.8-6.4,1.2-9.8,1.2c-1.5,0-3.1-0.1-4.6-0.3
	c-0.3,0-0.6-0.1-0.9-0.1c-3.2,0-6.2,2-7.3,5.1c-1.2,3.4,0.1,7.2,3.1,9.1c11.8,7.6,25.5,11.6,39.6,11.6c10.7,0,20.7-2,29.9-6
	c8.6-3.7,16.2-9.1,22.7-15.9c6.9-7.3,12.5-16.2,16-25.8c3-8.1,4.6-16.7,4.7-25.1c3.9-3.3,7.3-7.1,10.2-11.4c1.9-2.9,1.7-6.7-0.5-9.3
	c-0.5-0.6-1.1-1.1-1.7-1.5c0,0,0,0,0,0c0.3-0.8,0.4-1.7,0.4-2.6c0-4.3-3.4-7.7-7.7-7.7c0,0,0,0,0,0c0,0,0,0,0,0c0,0,0,0-0.1,0
	c-0.1,0-0.2,0-0.2,0c-1.4,0-2.7,0.5-3.8,1.1c-2.7,1.6-5.5,2.8-8.5,3.7C99.2,12.8,92.5,10.4,85.6,10.4L85.6,10.4z"/>
</svg>
