<?xml version="1.0" encoding="utf-8"?>
<!-- Generator: Adobe Illustrator 18.0.0, SVG Export Plug-In . SVG Version: 6.00 Build 0)  -->
<!DOCTYPE svg PUBLIC "-//W3C//DTD SVG 1.1//EN" "http://www.w3.org/Graphics/SVG/1.1/DTD/svg11.dtd">
<svg version="1.1" id="Layer_2" xmlns="http://www.w3.org/2000/svg" xmlns:xlink="http://www.w3.org/1999/xlink" x="0px" y="0px"
	 viewBox="0 0 64 64" enable-background="new 0 0 64 64" xml:space="preserve">
<path d="M62.8,49.7c-1.4-3.1-4.2-5-8.9-6.1c-11.6-2.7-11.5-3.6-10.2-6.1c4.8-9,8.4-20.8,3.2-29.5c-3-5-8.4-7.8-14.9-7.8
	c-6.5,0-12,2.9-15,8c-4.3,7.2-3.1,17.7,3.3,29.5c1.4,2.5,1.4,3.4-10.2,6.1c-4.6,1.1-7.4,3-8.9,6.1C-0.2,52.8,0,56,0,63.9h64
	C64,55.9,64.2,52.8,62.8,49.7z M6.2,57.7c0-5.6,0.4-6.9,5.2-8c6.6-1.5,13-2.9,15-7.5c1-2.3,0.8-4.8-0.8-7.7
	c-5.2-9.6-6.5-18.1-3.4-23.3c1.9-3.2,5.3-4.9,9.6-4.9c4.3,0,7.7,1.7,9.6,4.8c3.9,6.5,0.3,16.7-3.3,23.4c-1.5,2.8-1.7,5.4-0.7,7.7
	c2.1,4.5,8.4,5.9,15,7.4c4.9,1.1,5.2,2.4,5.2,8H6.2z"/>
</svg>
