<?xml version="1.0" encoding="utf-8"?>
<!-- Generator: Adobe Illustrator 18.0.0, SVG Export Plug-In . SVG Version: 6.00 Build 0)  -->
<!DOCTYPE svg PUBLIC "-//W3C//DTD SVG 1.1//EN" "http://www.w3.org/Graphics/SVG/1.1/DTD/svg11.dtd">
<svg version="1.1" id="Layer_1" xmlns="http://www.w3.org/2000/svg" xmlns:xlink="http://www.w3.org/1999/xlink" x="0px" y="0px"
	 viewBox="0 0 128 128" enable-background="new 0 0 128 128" xml:space="preserve">
<g>
	<g>
		<path fill="#231F20" d="M0,24v11.5h128V24H0z M0,104h128V92.5H0V104z M71.6,73.7c-4.1,0.1-6.5-1.1-8.4-2l-1.5,6.9
			c1.9,0.9,5.4,1.6,9.1,1.7c8.6,0,14.2-4.2,14.2-10.8c0-8.3-11.5-8.8-11.4-12.5c0-1.1,1.1-2.3,3.5-2.7c1.2-0.2,4.4-0.3,8,1.4
			l1.4-6.7c-2-0.7-4.5-1.4-7.6-1.4c-8.1,0-13.7,4.3-13.8,10.5c-0.1,4.6,4.1,7.1,7.1,8.6c3.2,1.5,4.2,2.5,4.2,3.9
			C76.5,72.8,74,73.7,71.6,73.7z M93.2,79.8l1.7-4.7h10.5l1,4.7h7.5l-6.6-31.6h-7c-1.6,0-2.9,0.9-3.5,2.3L84.6,79.8H93.2z
			 M101.5,56.8l2.5,11.9h-6.8L101.5,56.8z M34.2,69.7l-3.4-18.3c-0.4-2-2-3.2-3.8-3.2H13.1l-0.2,0.9c2.8,0.6,6.1,1.6,8.1,2.7
			c1.2,0.7,1.5,1.2,1.9,2.8l6.5,25.2H38l13.2-31.6h-8.6L34.2,69.7z M48,79.8h8.2l6.7-31.6h-8.2L48,79.8z"/>
	</g>
</g>
</svg>
