<?xml version="1.0" encoding="utf-8"?>
<!-- Generator: Adobe Illustrator 18.0.0, SVG Export Plug-In . SVG Version: 6.00 Build 0)  -->
<!DOCTYPE svg PUBLIC "-//W3C//DTD SVG 1.1//EN" "http://www.w3.org/Graphics/SVG/1.1/DTD/svg11.dtd">
<svg version="1.1" id="Layer_1" xmlns="http://www.w3.org/2000/svg" xmlns:xlink="http://www.w3.org/1999/xlink" x="0px" y="0px"
	 viewBox="0 0 128 128" enable-background="new 0 0 128 128" xml:space="preserve">
<path fill="#231F20" d="M117.3,121.6H10.7c-5.9,0-10.7-4.8-10.7-10.7V34.1c0-5.9,4.8-10.7,10.7-10.7h34.1V12.8
	c0-3.5,2.9-6.4,6.4-6.4h25.6c3.5,0,6.4,2.9,6.4,6.4v10.7h34.1c5.9,0,10.7,4.8,10.7,10.7v76.8C128,116.8,123.2,121.6,117.3,121.6z
	 M78.9,12.8c0-1.2-1-2.1-2.1-2.1H51.2c-1.2,0-2.1,1-2.1,2.1v10.7h29.9V12.8z M123.7,34.1c0-3.5-2.9-6.4-6.4-6.4H10.7
	c-3.5,0-6.4,2.9-6.4,6.4v76.8c0,3.5,2.9,6.4,6.4,6.4h106.7c3.5,0,6.4-2.9,6.4-6.4V34.1z M64,104.5c-17.6,0-32-14.4-32-32
	s14.4-32,32-32s32,14.4,32,32S81.6,104.5,64,104.5z M64,44.8c-15.3,0-27.7,12.4-27.7,27.7s12.4,27.7,27.7,27.7
	c15.3,0,27.7-12.4,27.7-27.7S79.3,44.8,64,44.8z M78.9,74.7H66.1v12.8c0,1.2-1,2.1-2.1,2.1c-1.2,0-2.1-1-2.1-2.1V74.7H49.1
	c-1.2,0-2.1-1-2.1-2.1c0-1.2,1-2.1,2.1-2.1h12.8V57.6c0-1.2,1-2.1,2.1-2.1c1.2,0,2.1,1,2.1,2.1v12.8h12.8c1.2,0,2.1,1,2.1,2.1
	C81.1,73.7,80.1,74.7,78.9,74.7z"/>
</svg>
