<?xml version="1.0" encoding="utf-8"?>
<!-- Generator: Adobe Illustrator 18.0.0, SVG Export Plug-In . SVG Version: 6.00 Build 0)  -->
<!DOCTYPE svg PUBLIC "-//W3C//DTD SVG 1.1//EN" "http://www.w3.org/Graphics/SVG/1.1/DTD/svg11.dtd">
<svg version="1.1" id="Layer_1" xmlns="http://www.w3.org/2000/svg" xmlns:xlink="http://www.w3.org/1999/xlink" x="0px" y="0px"
	 viewBox="0 0 128 128" enable-background="new 0 0 128 128" xml:space="preserve">
<g>
	<path d="M95.8,59.5H68.5V32.2c0-2.5-2-4.5-4.5-4.5c-2.5,0-4.5,2-4.5,4.5v27.3H32.2c-2.5,0-4.5,2-4.5,4.5c0,2.5,2,4.5,4.5,4.5h27.3
		v27.3c0,2.5,2,4.5,4.5,4.5c2.5,0,4.5-2,4.5-4.5V68.5h27.3c2.5,0,4.5-2,4.5-4.5C100.2,61.5,98.2,59.5,95.8,59.5z"/>
	<path d="M64,0C28.7,0,0,28.7,0,64s28.7,64,64,64s64-28.7,64-64S99.3,0,64,0z M64,119.1C33.6,119.1,8.9,94.4,8.9,64
		C8.9,33.6,33.6,8.9,64,8.9c30.4,0,55.1,24.7,55.1,55.1C119.1,94.4,94.4,119.1,64,119.1z"/>
</g>
</svg>
