<?xml version="1.0" encoding="utf-8"?>
<!-- Generator: Adobe Illustrator 18.0.0, SVG Export Plug-In . SVG Version: 6.00 Build 0)  -->
<!DOCTYPE svg PUBLIC "-//W3C//DTD SVG 1.1//EN" "http://www.w3.org/Graphics/SVG/1.1/DTD/svg11.dtd">
<svg version="1.1" id="Layer_1" xmlns="http://www.w3.org/2000/svg" xmlns:xlink="http://www.w3.org/1999/xlink" x="0px" y="0px"
	 viewBox="0 0 128 128" enable-background="new 0 0 128 128" xml:space="preserve">
<g>
	<path d="M117.3,81.1H81.1V61.9c0-5.9-4.8-10.7-10.7-10.7H42.7v-4.4C54.6,45.7,64,35.7,64,23.5C64,10.5,53.5,0,40.5,0
		S17.1,10.5,17.1,23.5c0,12.2,9.4,22.3,21.3,23.4v4.4H10.7C4.8,51.2,0,56,0,61.9v64c0,1.2,1,2.1,2.1,2.1h76.8H96h29.9
		c1.2,0,2.1-1,2.1-2.1V91.7C128,85.9,123.2,81.1,117.3,81.1z M21.3,23.5c0-10.6,8.6-19.2,19.2-19.2c10.6,0,19.2,8.6,19.2,19.2
		c0,10.6-8.6,19.2-19.2,19.2C29.9,42.7,21.3,34.1,21.3,23.5z M123.7,91.7v32H98.1v-6.4c0-1.2-1-2.1-2.1-2.1H78.9
		c-1.2,0-2.1,1-2.1,2.1v6.4H51.2v-32c0-3.5,2.9-6.4,6.4-6.4h59.7C120.9,85.3,123.7,88.2,123.7,91.7z M10.7,55.5h59.7
		c3.5,0,6.4,2.9,6.4,6.4v19.2H57.6c-3.5,0-6.6,1.7-8.5,4.3h-32c-1.2,0-2.1,1-2.1,2.1c0,1.2,1,2.1,2.1,2.1h30.1
		c-0.1,0.7-0.2,1.4-0.2,2.1v10.7H17.1c-1.2,0-2.1,1-2.1,2.1c0,1.2,1,2.1,2.1,2.1h29.9v17.1H4.3V61.9C4.3,58.3,7.1,55.5,10.7,55.5z
		 M81.1,123.7v-4.3h12.8v4.3H81.1z"/>
	<path d="M17.1,72.5h44.8c1.2,0,2.1-1,2.1-2.1c0-1.2-1-2.1-2.1-2.1H17.1c-1.2,0-2.1,1-2.1,2.1C14.9,71.6,15.9,72.5,17.1,72.5z"/>
	<path d="M42.7,34.1v-8.5h8.5c1.2,0,2.1-1,2.1-2.1c0-1.2-1-2.1-2.1-2.1h-8.5v-8.5c0-1.2-1-2.1-2.1-2.1c-1.2,0-2.1,1-2.1,2.1v8.5
		h-8.5c-1.2,0-2.1,1-2.1,2.1c0,1.2,1,2.1,2.1,2.1h8.5v8.5c0,1.2,1,2.1,2.1,2.1C41.7,36.3,42.7,35.3,42.7,34.1z"/>
	<path d="M64,106.7h-4.3c-1.2,0-2.1,1-2.1,2.1c0,1.2,1,2.1,2.1,2.1H64c1.2,0,2.1-1,2.1-2.1C66.1,107.6,65.2,106.7,64,106.7z"/>
	<path d="M81.1,106.7h-4.3c-1.2,0-2.1,1-2.1,2.1c0,1.2,1,2.1,2.1,2.1h4.3c1.2,0,2.1-1,2.1-2.1C83.2,107.6,82.2,106.7,81.1,106.7z"/>
	<path d="M93.9,110.9h4.3c1.2,0,2.1-1,2.1-2.1c0-1.2-1-2.1-2.1-2.1h-4.3c-1.2,0-2.1,1-2.1,2.1C91.7,110,92.7,110.9,93.9,110.9z"/>
	<path d="M110.9,110.9h4.3c1.2,0,2.1-1,2.1-2.1c0-1.2-1-2.1-2.1-2.1h-4.3c-1.2,0-2.1,1-2.1,2.1C108.8,110,109.8,110.9,110.9,110.9z"
		/>
	<path d="M64,93.9h-4.3c-1.2,0-2.1,1-2.1,2.1c0,1.2,1,2.1,2.1,2.1H64c1.2,0,2.1-1,2.1-2.1C66.1,94.8,65.2,93.9,64,93.9z"/>
	<path d="M74.7,96c0,1.2,1,2.1,2.1,2.1h4.3c1.2,0,2.1-1,2.1-2.1c0-1.2-1-2.1-2.1-2.1h-4.3C75.6,93.9,74.7,94.8,74.7,96z"/>
	<path d="M93.9,98.1h4.3c1.2,0,2.1-1,2.1-2.1c0-1.2-1-2.1-2.1-2.1h-4.3c-1.2,0-2.1,1-2.1,2.1C91.7,97.2,92.7,98.1,93.9,98.1z"/>
	<path d="M110.9,98.1h4.3c1.2,0,2.1-1,2.1-2.1c0-1.2-1-2.1-2.1-2.1h-4.3c-1.2,0-2.1,1-2.1,2.1C108.8,97.2,109.8,98.1,110.9,98.1z"/>
</g>
</svg>
