<?xml version="1.0" encoding="utf-8"?>
<!-- Generator: Adobe Illustrator 18.0.0, SVG Export Plug-In . SVG Version: 6.00 Build 0)  -->
<!DOCTYPE svg PUBLIC "-//W3C//DTD SVG 1.1//EN" "http://www.w3.org/Graphics/SVG/1.1/DTD/svg11.dtd">
<svg version="1.1" id="Layer_1" xmlns="http://www.w3.org/2000/svg" xmlns:xlink="http://www.w3.org/1999/xlink" x="0px" y="0px"
	 viewBox="0 0 128 128" enable-background="new 0 0 128 128" xml:space="preserve">
<g>
	<path d="M64,65c10.5,0,19-8,19-17.8c0-9.8-8.5-17.8-19-17.8s-19,8-19,17.8C45,57,53.5,65,64,65z M64,35.5c6.9,0,12.5,5.2,12.5,11.6
		c0,6.4-5.6,11.6-12.5,11.6s-12.5-5.2-12.5-11.6C51.5,40.8,57.1,35.5,64,35.5z"/>
	<path d="M64,0C36.2,0,13.6,21.2,13.5,47.2c0,13.6,7.9,30.9,23.4,51.5C49.2,115,61.5,126.9,61.6,127c0.6,0.6,1.4,1,2.4,1
		c0.9,0,1.7-0.4,2.4-1l0.1-0.1c3.2-3.1,14.3-14.5,25-28.9c15.2-20.3,22.9-37.4,22.9-50.8C114.4,21.2,91.8,0,64,0z M64,6.2
		c24.2,0,43.9,18.4,43.9,41.1c0,26.1-35.1,64.1-43.9,73.2c-11.2-11.7-43.9-48.1-43.9-73.2C20.1,24.6,39.8,6.2,64,6.2z"/>
</g>
</svg>
