<?xml version="1.0" encoding="utf-8"?>
<!-- Generator: Adobe Illustrator 18.0.0, SVG Export Plug-In . SVG Version: 6.00 Build 0)  -->
<!DOCTYPE svg PUBLIC "-//W3C//DTD SVG 1.1//EN" "http://www.w3.org/Graphics/SVG/1.1/DTD/svg11.dtd">
<svg version="1.1" id="Layer_1" xmlns="http://www.w3.org/2000/svg" xmlns:xlink="http://www.w3.org/1999/xlink" x="0px" y="0px"
	 viewBox="0 0 128 128" enable-background="new 0 0 128 128" xml:space="preserve">
<path fill="#231F20" d="M128,64c0,14.2-4.7,27.2-12.5,37.9l0.1,0.1l-1.7,2.2c-8.1,10-18.7,17.2-30.6,20.9c-0.1,0-0.2,0.1-0.4,0.1
	c-1.9,0.6-3.7,1.1-5.7,1.5c-0.2,0-0.5,0.1-0.7,0.1c-1.9,0.4-3.8,0.7-5.7,0.9c-0.2,0-0.4,0-0.6,0.1c-2,0.2-4,0.3-6.1,0.3
	s-4.1-0.1-6.1-0.3c-0.2,0-0.4,0-0.6-0.1c-1.9-0.2-3.8-0.5-5.7-0.9c-0.2,0-0.5-0.1-0.7-0.1c-1.9-0.4-3.8-0.9-5.7-1.5
	c-0.1,0-0.2-0.1-0.4-0.1c-11.9-3.7-22.6-10.9-30.6-20.9l-1.7-2.2l0.1-0.1C4.7,91.2,0,78.2,0,64s4.7-27.2,12.5-37.9l-0.1-0.1l1.7-2.2
	C22.2,13.9,32.9,6.7,44.8,3c0.1,0,0.2-0.1,0.4-0.1c1.9-0.6,3.7-1.1,5.7-1.5c0.2,0,0.5-0.1,0.7-0.1c1.9-0.4,3.8-0.7,5.7-0.9
	c0.2,0,0.4,0,0.6-0.1c2-0.2,4-0.3,6.1-0.3s4.1,0.1,6.1,0.3c0.2,0,0.4,0,0.6,0.1c1.9,0.2,3.8,0.5,5.7,0.9c0.2,0,0.5,0.1,0.7,0.1
	c1.9,0.4,3.8,0.9,5.7,1.5c0.1,0,0.2,0.1,0.4,0.1c11.9,3.7,22.6,10.9,30.6,20.9l1.7,2.2l-0.1,0.1C123.3,36.8,128,49.8,128,64z
	 M105.9,22.4c-0.1-0.1-0.1-0.1-0.2-0.2c-1.3-1.3-2.7-2.5-4.1-3.7c-0.1-0.1-0.3-0.2-0.4-0.3c-1.2-1-2.4-1.8-3.6-2.7
	c-0.4-0.3-0.9-0.6-1.4-0.9c-0.9-0.6-1.9-1.2-2.8-1.7c-1.7-1-3.4-1.9-5.1-2.6c-0.1-0.1-0.2-0.1-0.4-0.2c-1.1-0.5-2.3-1-3.5-1.4
	c-0.2-0.1-0.5-0.2-0.7-0.3c-1.2-0.4-2.4-0.8-3.7-1.2c5.5,5.4,10.1,13.5,13.3,23.4c5.4-1.5,10.3-3.5,14.6-5.8
	C107.4,24,106.7,23.2,105.9,22.4z M43.5,8.7c-1.2,0.4-2.3,0.9-3.5,1.4c-0.1,0.1-0.3,0.1-0.4,0.2c-1.7,0.8-3.4,1.7-5.1,2.6
	c-1,0.6-1.9,1.1-2.8,1.7c-0.5,0.3-0.9,0.6-1.3,0.9c-1.2,0.9-2.5,1.8-3.6,2.7c-0.1,0.1-0.2,0.2-0.4,0.3c-1.4,1.2-2.8,2.4-4.1,3.7
	c-0.1,0.1-0.1,0.1-0.2,0.2c-0.8,0.8-1.5,1.6-2.2,2.4c4.3,2.3,9.2,4.3,14.6,5.8c3.2-9.9,7.8-18,13.3-23.4c-1.2,0.3-2.5,0.8-3.7,1.2
	C43.9,8.5,43.7,8.6,43.5,8.7z M22.1,105.6c0.1,0.1,0.1,0.1,0.2,0.2c1.3,1.3,2.7,2.5,4.1,3.7c0.1,0.1,0.2,0.2,0.4,0.3
	c1.2,1,2.4,1.9,3.6,2.7c0.4,0.3,0.9,0.6,1.3,0.9c0.9,0.6,1.9,1.2,2.8,1.7c1.7,1,3.4,1.8,5.1,2.6c0.1,0.1,0.3,0.1,0.4,0.2
	c1.1,0.5,2.3,1,3.5,1.4c0.2,0.1,0.5,0.2,0.7,0.3c1.2,0.4,2.4,0.8,3.7,1.2c-5.5-5.4-10.1-13.5-13.3-23.4c-5.4,1.5-10.3,3.5-14.6,5.8
	C20.6,104,21.3,104.8,22.1,105.6z M84.5,119.3c1.2-0.4,2.3-0.9,3.5-1.4c0.1-0.1,0.2-0.1,0.4-0.2c1.8-0.8,3.5-1.7,5.1-2.6
	c1-0.6,1.9-1.1,2.8-1.7c0.5-0.3,0.9-0.6,1.4-0.9c1.2-0.9,2.5-1.8,3.6-2.7c0.1-0.1,0.3-0.2,0.4-0.3c1.4-1.2,2.8-2.4,4.1-3.7
	c0.1-0.1,0.1-0.1,0.2-0.2c0.8-0.8,1.5-1.6,2.2-2.4c-4.3-2.3-9.2-4.3-14.6-5.8c-3.2,9.9-7.8,18-13.3,23.4c1.2-0.3,2.5-0.8,3.7-1.2
	C84.1,119.5,84.3,119.4,84.5,119.3z M111.2,99.3c6.9-9.3,11.2-20.6,11.7-32.9H98.4c-0.2,9.5-1.5,18.3-3.6,26.2
	C100.9,94.4,106.5,96.7,111.2,99.3z M66.5,39.3v22.2h27c-0.2-8.9-1.4-17.4-3.5-25C82.7,38.2,74.7,39.2,66.5,39.3z M88.6,31.8
	c-4.9-14.7-13-25.1-22.1-26.7v29.2C74.2,34.2,81.7,33.4,88.6,31.8z M66.5,66.5v22.2c8.2,0.2,16.2,1.1,23.5,2.8
	c2-7.6,3.3-16.1,3.5-25H66.5z M66.5,93.6v29.2c9.1-1.6,17.2-11.9,22.1-26.7C81.7,94.6,74.2,93.8,66.5,93.6z M38,36.5
	c-2,7.6-3.3,16.1-3.5,25h27V39.3C53.3,39.2,45.3,38.2,38,36.5z M61.5,34.4V5.2c-9.1,1.6-17.2,11.9-22.1,26.7
	C46.3,33.4,53.8,34.2,61.5,34.4z M34.5,66.5c0.2,8.9,1.4,17.4,3.5,25c7.3-1.7,15.3-2.6,23.5-2.8V66.5H34.5z M39.4,96.2
	c4.9,14.7,13,25.1,22.1,26.7V93.6C53.8,93.8,46.3,94.6,39.4,96.2z M33.2,92.7c-2.1-7.9-3.4-16.8-3.6-26.2H5
	c0.5,12.3,4.8,23.6,11.7,32.9C21.5,96.7,27.1,94.4,33.2,92.7z M29.6,61.5c0.2-9.5,1.5-18.3,3.6-26.2c-6.1-1.7-11.6-3.9-16.4-6.6
	C9.8,37.9,5.6,49.2,5,61.5H29.6z M94.8,35.3c2.1,7.9,3.4,16.8,3.6,26.2H123c-0.5-12.3-4.8-23.6-11.7-32.9
	C106.5,31.3,100.9,33.6,94.8,35.3z"/>
</svg>
