<?xml version="1.0" encoding="utf-8"?>
<!-- Generator: Adobe Illustrator 18.0.0, SVG Export Plug-In . SVG Version: 6.00 Build 0)  -->
<!DOCTYPE svg PUBLIC "-//W3C//DTD SVG 1.1//EN" "http://www.w3.org/Graphics/SVG/1.1/DTD/svg11.dtd">
<svg version="1.1" id="Layer_1" xmlns="http://www.w3.org/2000/svg" xmlns:xlink="http://www.w3.org/1999/xlink" x="0px" y="0px"
	 viewBox="0 11.9 200 76.2" enable-background="new 0 11.9 200 76.2" xml:space="preserve">
<g>
	<g>
		<path fill="#FFFFFF" d="M105.9,31.2H93.3c-0.7,1.9-1.3,3.9-2.1,6.1c-0.8,2.3-1.7,4.5-2.8,7.1c-1.1,2.4-2.1,4.9-3.3,7.5
			c-1.2,2.5-2.5,4.9-4,7.3c-0.5-5.3-0.8-10.4-0.9-15.1c-0.2-4.8-0.2-9-0.2-12.9h-9.9c-0.8,2-1.7,4.3-2.8,6.5
			c-1.1,2.4-2.1,4.7-3.3,7.2c-1.2,2.4-2.4,4.8-3.7,7.3c-1.3,2.4-2.7,4.8-4,6.9c-0.3-2.4-0.5-4.9-0.7-7.5c-0.1-2.5-0.3-4.9-0.4-7.3
			c-0.1-2.4-0.1-4.7-0.1-6.9c0-2.3,0-4.3,0-6.3H43.5c0.1,4.1,0.4,8.3,0.8,12.4c0.4,4.1,0.7,8,1.2,11.6c0.4,3.6,0.8,7.1,1.3,10.1
			c0.4,3.1,0.9,5.7,1.3,8h9.2c0.9-1.5,2-3.2,3.2-5.2s2.5-4,3.7-6.1c1.3-2.1,2.5-4.4,3.9-6.7c1.2-2.3,2.4-4.5,3.3-6.7
			c0.1,4,0.3,8.1,0.7,12.1c0.3,4,0.8,8.1,1.5,12.5h9.1c2.9-3.7,5.6-7.5,8-11.3s4.5-7.6,6.4-11.3s3.6-7.2,5.1-10.5
			C103.6,36.8,104.8,33.9,105.9,31.2z M109.2,31.2l-10,42h11.7l10-42C120.9,31.2,109.2,31.2,109.2,31.2z M112.3,24.5
			c1.3,0.9,2.8,1.5,4.4,1.5c1.1,0,2.1-0.3,3.2-0.7c0.9-0.4,1.9-0.9,2.5-1.7c0.8-0.7,1.3-1.6,1.7-2.5c0.4-0.9,0.7-2,0.7-3.2
			c0-2-0.7-3.5-2-4.5c-1.3-0.9-2.8-1.5-4.4-1.5c-1.1,0-2.1,0.3-3.2,0.7c-0.9,0.4-1.9,0.9-2.5,1.7c-0.8,0.7-1.3,1.6-1.7,2.5
			c-0.4,0.9-0.7,2-0.7,3.2C110.3,22.1,110.9,23.6,112.3,24.5z M155.3,35.3c-1.3-1.6-3.2-2.8-5.3-3.7c-2.1-0.9-4.7-1.3-7.7-1.3
			c-3.2,0-6.1,0.3-8.8,0.8s-5.2,1.1-7.3,1.7L113,88.1h11.7l3.6-14.4c1.9,0.3,3.6,0.5,5.5,0.5c3.7,0,7.2-0.7,10.3-2
			c3.2-1.3,5.9-3.1,8.1-5.5s4-5.1,5.3-8.4c1.3-3.2,1.9-6.8,1.9-10.7c0-2.4-0.3-4.7-0.9-6.8C157.7,38.7,156.8,36.9,155.3,35.3z
			 M146.7,54.9c-0.7,2-1.6,3.6-2.8,4.9s-2.7,2.4-4.3,3.2c-1.7,0.8-3.6,1.2-5.6,1.2c-1.3,0-2.4-0.1-3.3-0.3l5.6-23.2
			c1.5-0.3,3.1-0.5,4.8-0.5c2.5,0,4.3,0.8,5.2,2.4c1.1,1.6,1.5,3.6,1.5,5.9C147.7,50.8,147.3,52.9,146.7,54.9z M199.1,36.9
			c-0.7-1.5-1.6-2.7-2.8-3.7c-1.2-1.1-2.5-1.7-4.1-2.3c-1.6-0.5-3.3-0.8-5.2-0.8c-3.7,0-7.2,0.8-10.3,2.3s-5.7,3.5-7.9,6
			s-3.9,5.3-5.1,8.5c-1.2,3.2-1.7,6.5-1.7,9.9c0,2.4,0.3,4.7,0.9,6.8c0.6,2.1,1.6,4,3.1,5.6s3.2,2.8,5.5,3.7s5.1,1.3,8.3,1.3
			c2.7,0,5.2-0.3,7.5-0.7c2.3-0.5,4.1-1.1,5.7-1.6l-0.9-9.3c-1.6,0.5-3.2,1.1-4.9,1.3c-1.7,0.2-3.5,0.4-5.2,0.4
			c-2.7,0-4.7-0.4-5.9-1.3c-1.2-0.9-2-2.5-2.4-4.8c3.9,0,7.3-0.3,10.5-0.9c3.2-0.5,6-1.5,8.4-2.8s4.1-2.9,5.5-5.1
			c1.3-2.1,2-4.7,2-7.6C200,40,199.7,38.4,199.1,36.9z M188.7,45.6c-0.4,0.8-1.1,1.5-2.3,2.1c-1.1,0.7-2.7,1.2-4.7,1.6
			s-4.7,0.7-8,0.8c0.7-3.2,2-5.7,4-7.7s4.4-2.9,7.1-2.9c2.8,0,4.3,1.3,4.3,3.9C189.3,44.1,189.1,44.8,188.7,45.6z M35.9,46.5
			c-1.2-1.2-2.5-2.4-4-3.3c-1.6-0.9-3.1-1.9-4.8-2.7c-0.9-0.5-1.9-0.9-2.7-1.3c-0.8-0.4-1.6-0.9-2.3-1.5s-1.2-1.2-1.6-1.9
			S20,34.2,20,33.1c0-1.2,0.3-2.1,0.8-2.9s1.2-1.5,2-2s1.9-0.8,2.9-1.1c1.1-0.3,2.3-0.3,3.5-0.3c2.3,0,4.3,0.4,6.1,1.1
			c1.3,0.5,2.5,1.1,3.6,1.7l5.1-9.2c-0.5-0.3-0.9-0.5-1.6-0.8c-1.2-0.5-2.4-1.1-3.7-1.5s-2.8-0.8-4.4-1.1c-1.6-0.5-3.2-0.7-4.9-0.7
			c-3.7,0-6.9,0.4-9.7,1.3c-2.7,0.9-4.9,2.1-6.8,3.6c-1.9,1.6-3.2,3.3-4.1,5.5c-0.9,2.1-1.3,4.4-1.3,6.8c0,1.9,0.3,3.6,0.8,5.1
			s1.2,2.8,2.1,4c0.9,1.2,2,2.3,3.2,3.2c1.3,0.9,2.7,1.9,4,2.7c1.1,0.7,2.3,1.2,3.3,1.7c1.1,0.5,2.1,1.1,3.1,1.7
			c0.9,0.7,1.6,1.3,2.3,2.1c0.5,0.8,0.9,1.7,0.9,2.8c0,1.3-0.3,2.5-0.9,3.3c-0.7,0.9-1.3,1.6-2.4,2c-0.9,0.5-2,0.8-3.2,0.9
			c-1.2,0.1-2.4,0.3-3.6,0.3c-1.3,0-2.7-0.1-4-0.4s-2.5-0.7-3.6-1.1c-1.2-0.4-2.1-0.9-3.1-1.3c-0.3-0.1-0.7-0.4-0.9-0.5L0,70.1
			c0.4,0.3,0.8,0.5,1.3,0.8c1.2,0.5,2.5,1.1,4,1.6c1.6,0.5,3.3,0.9,5.2,1.3c2,0.4,4,0.5,6.3,0.5c3.3,0,6.5-0.4,9.2-1.1
			c2.8-0.7,5.2-1.9,7.2-3.3c2-1.5,3.6-3.3,4.7-5.6c1.1-2.3,1.7-4.9,1.7-7.9c0-2.1-0.4-4.1-1.1-5.7C38,49.2,37.1,47.7,35.9,46.5z"/>
	</g>
</g>
</svg>
