<?xml version="1.0" encoding="utf-8"?>
<!-- Generator: Adobe Illustrator 18.0.0, SVG Export Plug-In . SVG Version: 6.00 Build 0)  -->
<!DOCTYPE svg PUBLIC "-//W3C//DTD SVG 1.1//EN" "http://www.w3.org/Graphics/SVG/1.1/DTD/svg11.dtd">
<svg version="1.1" id="Layer_1" xmlns="http://www.w3.org/2000/svg" xmlns:xlink="http://www.w3.org/1999/xlink" x="0px" y="0px"
	 viewBox="0 0 80 80" enable-background="new 0 0 80 80" xml:space="preserve">
<g>
	<path fill="#00C1C7" d="M40,0C17.9,0,0,17.9,0,40s17.9,40,40,40s40-17.9,40-40S62.1,0,40,0z M40,77.5C19.3,77.5,2.5,60.7,2.5,40
		C2.5,19.3,19.3,2.5,40,2.5S77.5,19.3,77.5,40C77.5,60.7,60.7,77.5,40,77.5z"/>
	<circle fill="#00C1C7" cx="40" cy="40" r="1.2"/>
	<path fill="#00C1C7" d="M46.2,40.9c0-0.3,0.1-0.6,0.1-0.9c0-2-1-3.8-2.5-5V17.5c0-2.1-1.7-3.8-3.8-3.8s-3.8,1.7-3.8,3.8V35
		c-1.5,1.1-2.5,2.9-2.5,5c0,3.5,2.8,6.2,6.2,6.2c0.3,0,0.6,0,0.9-0.1l10.6,10.6c1.5,1.5,3.8,1.5,5.3,0c1.5-1.5,1.5-3.8,0-5.3
		L46.2,40.9z M38.8,17.5c0-0.7,0.6-1.2,1.2-1.2s1.2,0.6,1.2,1.2v16.4c-0.4-0.1-0.8-0.1-1.2-0.1s-0.8,0-1.2,0.1V17.5z M40,43.8
		c-2.1,0-3.8-1.7-3.8-3.8s1.7-3.8,3.8-3.8s3.8,1.7,3.8,3.8S42.1,43.8,40,43.8z M55,55c-0.5,0.5-1.3,0.5-1.8,0l-9.8-9.8
		c0.7-0.5,1.3-1.1,1.8-1.8l9.8,9.8C55.5,53.7,55.5,54.5,55,55z"/>
	<path fill="#00C1C7" d="M40,5C20.7,5,5,20.7,5,40s15.7,35,35,35s35-15.7,35-35S59.3,5,40,5z M63.8,62.1l-2.6-2.6
		c-0.5-0.5-1.3-0.5-1.8,0c-0.5,0.5-0.5,1.3,0,1.8l2.6,2.6c-5.5,5.1-12.8,8.3-20.8,8.6l0-3.7c0-0.7-0.6-1.2-1.2-1.2
		c-0.7,0-1.2,0.6-1.2,1.2l0,3.7c-8-0.3-15.3-3.5-20.8-8.6l2.6-2.6c0.5-0.5,0.5-1.3,0-1.8c-0.5-0.5-1.3-0.5-1.8,0l-2.6,2.6
		c-5.1-5.5-8.3-12.8-8.6-20.8h3.7c0.7,0,1.2-0.6,1.2-1.2c0-0.7-0.6-1.2-1.2-1.2H7.5c0.3-8,3.5-15.3,8.6-20.8l2.6,2.6
		c0.5,0.5,1.3,0.5,1.8,0c0.5-0.5,0.5-1.3,0-1.8l-2.6-2.6c5.5-5.1,12.8-8.3,20.8-8.6v3.7c0,0.7,0.6,1.2,1.2,1.2s1.2-0.6,1.2-1.2V7.5
		c8,0.3,15.3,3.5,20.8,8.6l-2.6,2.6c-0.5,0.5-0.5,1.3,0,1.8c0.5,0.5,1.3,0.5,1.8,0l2.6-2.6c5.1,5.5,8.3,12.8,8.6,20.8h-3.7
		c-0.7,0-1.2,0.6-1.2,1.2c0,0.7,0.6,1.3,1.2,1.3h3.7C72.2,49.3,69,56.6,63.8,62.1z"/>
</g>
</svg>
