<?xml version="1.0" encoding="utf-8"?>
<!-- Generator: Adobe Illustrator 16.0.0, SVG Export Plug-In . SVG Version: 6.00 Build 0)  -->
<!DOCTYPE svg PUBLIC "-//W3C//DTD SVG 1.1//EN" "http://www.w3.org/Graphics/SVG/1.1/DTD/svg11.dtd">
<svg version="1.1" id="Layer_1" xmlns="http://www.w3.org/2000/svg" xmlns:xlink="http://www.w3.org/1999/xlink" x="0px" y="0px"
	 width="112px" height="42px" viewBox="0 0 112 42" enable-background="new 0 0 112 42" xml:space="preserve">
<g>
	<g>
		<path fill="#3F5555" d="M59.302,10.6H52.27c-0.355,1.001-0.764,2.119-1.224,3.357c-0.46,1.236-0.979,2.532-1.558,3.885
			c-0.578,1.355-1.209,2.732-1.892,4.13c-0.683,1.399-1.424,2.76-2.225,4.084c-0.297-2.943-0.482-5.727-0.556-8.346
			c-0.075-2.621-0.111-4.992-0.111-7.111h-5.519c-0.445,1.119-0.957,2.327-1.536,3.621c-0.578,1.297-1.202,2.614-1.869,3.954
			c-0.668,1.339-1.365,2.679-2.092,4.018c-0.728,1.341-1.462,2.628-2.203,3.864c-0.149-1.354-0.268-2.723-0.356-4.107
			c-0.089-1.382-0.156-2.738-0.2-4.062c-0.044-1.325-0.075-2.605-0.089-3.842c-0.015-1.237-0.022-2.385-0.022-3.445H24.32
			c0.089,2.297,0.229,4.57,0.422,6.823c0.193,2.253,0.408,4.388,0.646,6.403c0.237,2.018,0.482,3.88,0.734,5.588
			c0.252,1.707,0.497,3.179,0.734,4.416h5.163c0.535-0.824,1.142-1.773,1.825-2.85c0.682-1.074,1.386-2.207,2.114-3.4
			c0.727-1.191,1.438-2.414,2.136-3.665c0.697-1.251,1.328-2.479,1.891-3.688c0.06,2.238,0.179,4.461,0.356,6.67
			c0.178,2.207,0.445,4.52,0.801,6.934h5.162c1.631-2.031,3.116-4.107,4.451-6.228c1.336-2.12,2.537-4.195,3.605-6.228
			c1.068-2.031,2.01-3.966,2.826-5.806C58.004,13.729,58.708,12.072,59.302,10.6z M62.897,6.956
			c0.741,0.545,1.572,0.818,2.492,0.818c0.623,0,1.209-0.118,1.759-0.354c0.549-0.236,1.03-0.553,1.445-0.949
			c0.416-0.399,0.75-0.869,1.002-1.415c0.252-0.544,0.378-1.126,0.378-1.744c0-1.119-0.371-1.95-1.112-2.496
			C68.119,0.273,67.288,0,66.369,0c-0.623,0-1.21,0.118-1.759,0.354s-1.031,0.552-1.446,0.949s-0.75,0.869-1.001,1.414
			c-0.253,0.544-0.378,1.125-0.378,1.744C61.785,5.58,62.155,6.412,62.897,6.956z M61.162,10.6l-5.564,23.23h6.587l5.607-23.23
			H61.162z M87.015,12.875c-0.771-0.868-1.758-1.553-2.96-2.054c-1.201-0.5-2.633-0.751-4.295-0.751c-1.779,0-3.435,0.14-4.962,0.42
			c-1.528,0.28-2.886,0.596-4.072,0.949L63.337,42h6.588l2.003-7.994c1.008,0.178,2.017,0.266,3.026,0.266
			c2.075,0,3.997-0.361,5.763-1.082s3.278-1.729,4.54-3.025c1.26-1.295,2.247-2.834,2.96-4.615c0.712-1.781,1.067-3.746,1.067-5.895
			c0-1.326-0.186-2.569-0.556-3.731C88.356,14.758,87.786,13.742,87.015,12.875z M82.142,23.695
			c-0.372,1.074-0.891,1.994-1.558,2.759c-0.668,0.767-1.478,1.362-2.426,1.789c-0.95,0.427-2.002,0.64-3.161,0.64
			c-0.741,0-1.364-0.059-1.868-0.176l3.115-12.852c0.83-0.178,1.721-0.265,2.671-0.265c1.394,0,2.373,0.441,2.937,1.325
			s0.846,1.958,0.846,3.224C82.697,21.436,82.512,22.619,82.142,23.695z M111.443,13.758c-0.372-0.811-0.89-1.494-1.558-2.055
			c-0.667-0.558-1.446-0.986-2.337-1.28c-0.89-0.293-1.854-0.441-2.893-0.441c-2.107,0-4.027,0.418-5.764,1.258
			c-1.736,0.839-3.211,1.943-4.428,3.312c-1.217,1.37-2.159,2.937-2.827,4.703c-0.667,1.766-1.001,3.592-1.001,5.477
			c0,1.324,0.178,2.576,0.534,3.754c0.355,1.178,0.927,2.207,1.713,3.092c0.786,0.883,1.811,1.582,3.071,2.097
			s2.812,0.773,4.651,0.773c1.513,0,2.915-0.133,4.205-0.397c1.292-0.266,2.352-0.559,3.183-0.883L107.504,28
			c-0.86,0.324-1.779,0.567-2.758,0.729c-0.979,0.162-1.944,0.244-2.894,0.244c-1.514,0-2.619-0.258-3.316-0.773
			s-1.149-1.392-1.356-2.628c2.136,0,4.109-0.161,5.919-0.486c1.809-0.323,3.374-0.846,4.694-1.567
			c1.32-0.721,2.353-1.656,3.093-2.805c0.742-1.148,1.114-2.545,1.114-4.195C112,15.487,111.814,14.567,111.443,13.758z
			 M105.68,18.549c-0.207,0.412-0.623,0.795-1.247,1.149c-0.623,0.353-1.498,0.656-2.624,0.905c-1.13,0.25-2.611,0.405-4.452,0.463
			c0.357-1.766,1.105-3.188,2.249-4.262c1.141-1.074,2.47-1.612,3.982-1.612c1.603,0,2.404,0.707,2.404,2.12
			C105.992,17.725,105.886,18.137,105.68,18.549z M20.097,19.057c-0.653-0.691-1.41-1.303-2.27-1.832
			c-0.86-0.532-1.751-1.031-2.67-1.502c-0.534-0.265-1.04-0.514-1.514-0.75c-0.475-0.235-0.89-0.5-1.246-0.795
			c-0.356-0.294-0.646-0.641-0.868-1.038c-0.222-0.396-0.333-0.891-0.333-1.479c0-0.648,0.141-1.193,0.422-1.634
			c0.282-0.442,0.66-0.802,1.135-1.083c0.474-0.279,1.023-0.479,1.647-0.596c0.623-0.117,1.275-0.178,1.958-0.178
			c1.246,0,2.403,0.192,3.472,0.574c0.742,0.267,1.402,0.576,1.986,0.927l2.862-5.05c-0.266-0.146-0.553-0.297-0.865-0.447
			c-0.639-0.31-1.343-0.581-2.115-0.817c-0.771-0.236-1.602-0.436-2.492-0.598c-0.89-0.16-1.81-0.242-2.759-0.242
			c-2.077,0-3.887,0.242-5.43,0.728c-1.543,0.487-2.826,1.156-3.85,2.01C6.145,6.109,5.373,7.119,4.854,8.281
			c-0.519,1.163-0.778,2.422-0.778,3.775c0,1.061,0.148,1.996,0.445,2.805c0.295,0.81,0.696,1.545,1.201,2.208
			c0.504,0.664,1.113,1.259,1.825,1.788c0.712,0.532,1.469,1.031,2.27,1.502c0.623,0.354,1.246,0.678,1.869,0.972
			c0.624,0.295,1.187,0.618,1.691,0.972c0.504,0.354,0.919,0.744,1.247,1.17c0.326,0.428,0.489,0.936,0.489,1.525
			c0,0.766-0.171,1.391-0.512,1.876S13.821,27.735,13.288,28c-0.535,0.266-1.143,0.449-1.825,0.553s-1.365,0.154-2.047,0.154
			c-0.772,0-1.513-0.081-2.226-0.242c-0.711-0.162-1.387-0.361-2.025-0.598c-0.638-0.234-1.209-0.485-1.713-0.75
			c-0.181-0.095-0.348-0.188-0.509-0.278L0,32.1c0.229,0.129,0.482,0.265,0.759,0.405c0.638,0.324,1.395,0.626,2.27,0.905
			c0.875,0.28,1.854,0.522,2.938,0.729c1.083,0.206,2.248,0.31,3.494,0.31c1.898,0,3.627-0.198,5.186-0.597
			c1.557-0.396,2.9-1.008,4.027-1.832c1.127-0.824,2.002-1.855,2.626-3.092c0.623-1.236,0.934-2.694,0.934-4.373
			c0-1.207-0.193-2.252-0.579-3.135C21.268,20.537,20.749,19.75,20.097,19.057z"/>
	</g>
</g>
</svg>
