<?xml version="1.0" encoding="utf-8"?>
<!-- Generator: Adobe Illustrator 18.0.0, SVG Export Plug-In . SVG Version: 6.00 Build 0)  -->
<!DOCTYPE svg PUBLIC "-//W3C//DTD SVG 1.1//EN" "http://www.w3.org/Graphics/SVG/1.1/DTD/svg11.dtd">
<svg version="1.1" id="Layer_1" xmlns="http://www.w3.org/2000/svg" xmlns:xlink="http://www.w3.org/1999/xlink" x="0px" y="0px"
	 viewBox="0 0 48 48" enable-background="new 0 0 48 48" xml:space="preserve">
<g>
	<g>
		<path fill="#CBD3D3" d="M10.1,26.9c-0.1,0.2-0.4,0.3-0.6,0.3c-0.2,0-0.4-0.2-0.4-0.4v-5.3c0-0.2,0.2-0.5,0.4-0.6l0.8-0.4
			c0.2-0.1,0.4-0.3,0.5-0.6l1.4-4.2c0.1-0.2,0.3-0.5,0.5-0.6l2.9-1.8c0.2-0.1,0.4,0,0.4,0.2l0.3,1.3c0.1,0.2,0.2,0.5,0.4,0.7
			l1.5,1.6c0.2,0.2,0.3,0.5,0.3,0.7l0.1,1c0,0.2,0.2,0.5,0.4,0.6l1,0.7c0.2,0.1,0.5,0.1,0.7,0l1.5-0.8c0.2-0.1,0.4-0.4,0.4-0.6
			l0.2-0.8c0-0.2,0.1-0.6,0.2-0.8l1.2-3.9c0.1-0.2,0.3-0.4,0.5-0.5l1.9-0.7c0.2-0.1,0.5,0,0.7,0.1l1.8,1.1c0.2,0.1,0.4,0.4,0.5,0.6
			l0.6,1.1c0.1,0.2,0.3,0.4,0.5,0.5l0.6,0.3c0.2,0.1,0.5,0.1,0.7,0.1l2.5-0.4c0.2,0,0.5,0.1,0.6,0.2l1.6,1.9
			c0.1,0.2,0.3,0.5,0.3,0.7l1.4,5.9c0.1,0.2,0,0.5-0.1,0.7l-2.4,4.9c-0.1,0.2-0.3,0.3-0.5,0.2l-0.7-0.4c-0.2-0.1-0.5-0.1-0.7,0
			L33.8,30c-0.2,0.1-0.5,0.2-0.7,0.2h-1.4c-0.2,0-0.5-0.1-0.7-0.3l-2.6-2.5c-0.2-0.2-0.5-0.2-0.7-0.1l-0.3,0.1
			c-0.2,0.1-0.5,0-0.7-0.1l-2.1-1.8c-0.2-0.1-0.5-0.2-0.7-0.1l-2.7,1.4c-0.2,0.1-0.5,0.1-0.7,0l-6.2-2.2c-0.2-0.1-0.5-0.1-0.7,0
			l-2.6,1.1c-0.2,0.1-0.5,0.3-0.6,0.5L10.1,26.9z"/>
	</g>
	<g>
		<g>
			<path fill="#869898" d="M24,48C10.8,48,0,37.2,0,24C0,10.8,10.8,0,24,0s24,10.8,24,24C48,37.2,37.2,48,24,48z M24,0.8
				C11.2,0.8,0.8,11.2,0.8,24c0,12.8,10.4,23.2,23.2,23.2S47.2,36.8,47.2,24C47.2,11.2,36.8,0.8,24,0.8z"/>
		</g>
		<g>
			<g>
				<path fill="#869898" d="M5.3,13.3L6,12.4l3.6,2.8l1.5-1.9l0.8,0.6l-2.2,2.8L5.3,13.3z"/>
			</g>
			<g>
				<path fill="#869898" d="M11.1,7.3L11.1,7.3l5.3,3.1l-1,0.7l-0.6-0.4L13.1,12l0.1,0.7l-0.9,0.6L11.1,7.3z M14,10.1l-0.9-0.6
					C12.8,9.4,12.3,9,12.3,9s0.2,0.6,0.3,1l0.2,1L14,10.1z"/>
			</g>
			<g>
				<path fill="#869898" d="M16.3,5.7l-1.4,0.6l-0.4-0.9l3.9-1.6l0.4,0.9l-1.4,0.6L19,9.5l-1,0.4L16.3,5.7z"/>
			</g>
			<g>
				<path fill="#869898" d="M20.1,3.5l1.2-0.1l1.1,2.1c0.2,0.5,0.5,1.2,0.5,1.2s0.2-0.8,0.3-1.3l0.8-2.2L25,3.2l-2,5.7l-0.1,0
					L20.1,3.5z"/>
			</g>
			<g>
				<path fill="#869898" d="M27.2,3.6l1.1,0.2l-1,5.4L26.3,9L27.2,3.6z"/>
			</g>
			<g>
				<path fill="#869898" d="M28.9,8.5L30,8.3C30,8.7,30,9,30.4,9.1c0.3,0.1,0.6,0.1,0.8-0.4l1.5-3.5l1,0.4l-1.5,3.6
					c-0.5,1.1-1.3,1.3-2.2,0.9C29.2,9.7,28.9,9.1,28.9,8.5z"/>
			</g>
			<g>
				<path fill="#869898" d="M37.7,8.2L37.7,8.2l-1.5,5.9l-0.9-0.7l0.2-0.6l-1.7-1.4l-0.6,0.3L32.4,11L37.7,8.2z M35.8,11.7l0.3-1
					c0.1-0.4,0.4-1,0.4-1s-0.5,0.4-0.9,0.6l-0.9,0.5L35.8,11.7z"/>
			</g>
			<g>
				<path fill="#869898" d="M37.5,14l0.9,0.5c-0.2,0.4-0.3,0.8,0,1.3c0.3,0.4,0.6,0.5,0.9,0.3c0.3-0.2,0.3-0.5,0.2-1.1l-0.1-0.3
					c-0.2-0.9-0.1-1.5,0.7-2.1c0.7-0.5,1.6-0.3,2.1,0.5c0.4,0.6,0.5,1.2,0.1,1.8l-1-0.4c0.2-0.4,0.2-0.6,0-0.9
					c-0.2-0.3-0.5-0.3-0.7-0.2c-0.3,0.2-0.3,0.4-0.2,1l0.1,0.3c0.2,1,0.1,1.7-0.7,2.2c-0.8,0.6-1.7,0.2-2.3-0.7
					C37.1,15.5,37.2,14.6,37.5,14z"/>
			</g>
		</g>
		<g>
			<path fill="#869898" d="M32,27.7c0.3,0.3,0.4,0.2,0.2-0.2l-0.3-0.4c-0.2-0.3-0.1-0.6,0.3-0.6l4.5,0.1c0.4,0,0.4,0,0-0.1L33.8,26
				c-0.4-0.1-0.6-0.4-0.4-0.8l0.3-0.5c0.2-0.4,0.1-0.4-0.2-0.2l-0.8,0.7c-0.3,0.3-0.9,0.5-1.3,0.4l-5.5-0.7
				c-0.4-0.1-0.5-0.3-0.1-0.5l3.6-2.4c0.3-0.2,1-0.4,1.4-0.4h2.1c0.4,0,0.4-0.1,0-0.1l-1.4-0.2c-0.4-0.1-0.5-0.3-0.1-0.5l3.1-2
				c0.3-0.2,0.3-0.3,0-0.1L29,21.5c-0.4,0.2-0.6,0-0.5-0.4l1-4.8c0.1-0.4,0-0.4-0.1,0l-0.8,2.1c-0.1,0.4-0.5,0.4-0.8,0.1l-1.5-1.7
				c-0.3-0.3-0.3-0.3-0.1,0.1l1.4,2.1c0.2,0.3,0.3,0.9,0.2,1.3l-0.4,1.3c-0.1,0.4-0.5,0.9-0.9,1.1l-1.1,0.5c-0.4,0.2-0.7,0-0.8-0.4
				l-0.3-3.3c0-0.4-0.1-0.4-0.2,0l-0.5,4.5c0,0.4-0.4,0.6-0.7,0.3L19,21.7c-0.4-0.2-0.8-0.7-1-1.1l-1.5-3.3c-0.2-0.4-0.2-0.4-0.1,0
				l0.7,2.6c0.1,0.4,0.2,0.7,0.2,0.7c0,0-0.3-0.2-0.6-0.4l-1.1-0.7c-0.4-0.2-0.4-0.2-0.1,0.1l2.7,2.2c0.3,0.3,0.2,0.5-0.2,0.5
				l-4.7,0c-0.4,0-0.4,0,0,0.1l1.2,0.1c0.4,0,0.5,0.3,0.1,0.5l-1.1,0.7c-0.3,0.2-0.3,0.3,0.1,0.1l1.8-0.8c0.4-0.2,1-0.3,1.4-0.2
				l2,0.2c0.4,0,1,0.3,1.3,0.6l2.7,2.3c0.3,0.3,0.5,0.8,0.4,1.2l-0.6,2.6c-0.1,0.4-0.5,0.8-0.9,0.9l-4.6,1.3c-0.4,0.1-0.4,0.2,0,0.1
				c0,0,4.2-0.5,7.1,1c3,1.6,4.2,1.2,3.6,0.7c-2-1.8,4-0.5,4-0.5c0.4,0.1,0.7,0,0.6-0.2c-0.1-0.2-0.5-0.5-0.9-0.6L27.7,31
				c-0.4-0.1-0.9-0.5-1.1-0.9l-0.3-0.5c-0.2-0.4-0.5-1-0.6-1.4l-0.3-1.1c-0.1-0.4,0.1-0.7,0.6-0.7l3.7,0c0.4,0,1,0.2,1.3,0.5
				L32,27.7z M25.1,25.1C25.1,25.1,25.1,25.1,25.1,25.1C25.1,25,25.1,25,25.1,25.1C25.1,25,25.1,25,25.1,25.1z"/>
		</g>
		<g>
			<g>
				<path fill="#869898" d="M10,39.1l0.8-6.3h1L11,39.1c0,0.2,0,0.3,0.2,0.3l1.1-0.3l-0.1,0.8c0,0-0.7,0.3-1.2,0.3
					C10.1,40.2,9.9,39.9,10,39.1z"/>
			</g>
			<g>
				<path fill="#869898" d="M12.5,38.2c-0.1-1.5,0.8-2.4,1.9-2.4c0.7,0,1.3,0.4,1.5,1l0.1-0.9h1l-0.4,3.2c0,0.2,0,0.3,0.2,0.3h0.3
					l-0.1,0.8h-0.5c-0.8,0-0.9-0.3-1-0.7l0-0.1c-0.3,0.6-0.7,0.9-1.4,0.9C13.3,40.3,12.5,39.5,12.5,38.2z M15.8,38
					c0-0.7-0.5-1.2-1.1-1.2c-0.8,0-1.2,0.6-1.2,1.5c0,0.7,0.5,1.2,1.1,1.2C15.4,39.4,15.9,38.8,15.8,38z"/>
			</g>
			<g>
				<path fill="#869898" d="M18.8,39.2l-0.1,1h-1l0.9-7.4h1l-0.5,3.8c0.3-0.5,0.8-0.8,1.4-0.8c1,0,1.8,0.8,1.9,2.1
					c0.1,1.4-0.8,2.4-2,2.4C19.7,40.3,19.1,39.9,18.8,39.2z M21.3,37.9c0-0.7-0.5-1.2-1.1-1.2c-0.8,0-1.3,0.6-1.2,1.5
					c0,0.7,0.5,1.2,1.2,1.2C20.9,39.4,21.4,38.8,21.3,37.9z"/>
			</g>
			<g>
				<path fill="#869898" d="M23,38.3l0.3-2.4h1L24,38.3c-0.1,0.7,0.2,1.1,0.8,1.1c0.7,0,1-0.4,1.1-1.1l0.3-2.4h1l-0.4,3.2
					c0,0.2,0,0.3,0.2,0.3h0.3l-0.1,0.8h-0.5c-0.8,0-1-0.3-1-0.7l0-0.1c-0.3,0.6-0.8,0.8-1.4,0.8C23.4,40.3,22.8,39.5,23,38.3z"/>
			</g>
			<g>
				<path fill="#869898" d="M28.4,35.9h1l-0.1,0.7c0.3-0.5,0.7-0.8,1.3-0.8c0.6,0,1,0.3,1.2,0.9c0.4-0.6,0.9-0.9,1.5-0.9
					c0.9,0,1.5,0.8,1.4,2l-0.2,1.4c0,0.2,0,0.3,0.2,0.3H35l-0.1,0.8h-0.5c-0.8,0-1.1-0.3-1-1.1l0.2-1.3c0.1-0.7-0.1-1.1-0.7-1.1
					c-0.6,0-0.9,0.4-1,1.1l-0.3,2.4h-1l0.3-2.4c0.1-0.7-0.1-1.1-0.7-1.1c-0.6,0-0.9,0.4-1,1.1l-0.3,2.4h-1L28.4,35.9z"/>
			</g>
			<g>
				<path fill="#869898" d="M35,39.4l0.7-0.5c0.3,0.4,0.6,0.6,1.1,0.6c0.5,0,0.7-0.2,0.7-0.5c0-0.3-0.2-0.4-0.9-0.7
					c-0.6-0.3-1.1-0.6-1.1-1.3c0-0.8,0.6-1.3,1.4-1.3c0.7,0,1.1,0.3,1.5,0.6L37.8,37c-0.2-0.2-0.4-0.4-0.8-0.4
					c-0.3,0-0.5,0.1-0.5,0.4c0,0.3,0.2,0.4,0.7,0.6c0.7,0.3,1.2,0.6,1.3,1.4c0,0.8-0.5,1.3-1.6,1.3C36,40.3,35.3,39.9,35,39.4z"/>
			</g>
		</g>
		<g>
			<g>
				<g>
					<path fill="#869898" d="M4.7,26.6L2.1,24l2.6-2.6L7.4,24L4.7,26.6z M3.1,24l1.7,1.7L6.4,24l-1.7-1.7L3.1,24z"/>
				</g>
			</g>
			<g>
				<g>
					<path fill="#869898" d="M43.3,26.6L40.6,24l2.6-2.6l2.6,2.6L43.3,26.6z M41.6,24l1.7,1.7l1.7-1.7l-1.7-1.7L41.6,24z"/>
				</g>
			</g>
		</g>
	</g>
</g>
</svg>
