<?xml version="1.0" encoding="utf-8"?>

<!-- License Agreement at http://iconmonstr.com/license/ -->

<!DOCTYPE svg PUBLIC "-//W3C//DTD SVG 1.1//EN" "http://www.w3.org/Graphics/SVG/1.1/DTD/svg11.dtd">
<svg version="1.1" xmlns="http://www.w3.org/2000/svg" xmlns:xlink="http://www.w3.org/1999/xlink" x="0px" y="0px"
	 width="512px" height="512px" viewBox="0 0 512 512" enable-background="new 0 0 512 512" xml:space="preserve">
<path id="loading-4-icon" d="M136.577,250.095l-85.618-15.097l5.209-29.544l85.59,15.092
	C138.853,229.954,137.073,239.856,136.577,250.095z M256.432,136c5.08,0,10.086,0.319,15,0.932V50h-30v86.932
	C246.346,136.319,251.352,136,256.432,136z M191.39,155.145l-55.878-66.593l-22.98,19.283l55.889,66.605
	C175.229,167.096,182.942,160.603,191.39,155.145z M160.827,183.479l-75.294-43.471l-15,25.98l75.267,43.455
	C149.724,200.129,154.794,191.418,160.827,183.479z M229.804,138.97l-29.729-81.679l-28.191,10.261l29.728,81.676
	C210.43,144.691,219.884,141.218,229.804,138.97z M303.07,145.401l29.455-80.927L321.25,60.37l-29.456,80.93
	C295.639,142.483,299.401,143.853,303.07,145.401z M375.843,244.081l85.024-14.992l-3.125-17.727l-85.005,14.989
	C374.2,232.106,375.246,238.027,375.843,244.081z M364.139,203.051l74.695-43.125l-8-13.856L356.13,189.2
	C359.096,193.617,361.771,198.244,364.139,203.051z M338.793,168.734l55.416-66.042l-10.725-8.999l-55.409,66.035
	C331.823,162.521,335.399,165.531,338.793,168.734z M168.417,337.557l-55.89,66.605l22.98,19.283l55.878-66.593
	C182.938,351.394,175.226,344.9,168.417,337.557z M323.993,355.181l55.664,66.338l18.385-15.428l-55.674-66.349
	C336.781,345.475,330.628,350.652,323.993,355.181z M354.425,325.274l74.912,43.251l11-19.053l-74.9-43.244
	C362.342,312.934,358.651,319.307,354.425,325.274z M285.026,372.562l29.649,81.46l24.432-8.893l-29.649-81.461
	C301.745,367.475,293.565,370.475,285.026,372.562z M375.933,266.914c-0.608,6.743-1.771,13.326-3.448,19.7l85.085,15.003
	l3.473-19.695L375.933,266.914z M136.577,261.9l-85.619,15.097l5.209,29.545l85.59-15.092
	C138.852,282.042,137.073,272.14,136.577,261.9z M145.798,302.553l-75.267,43.455l15,25.98l75.293-43.471
	C154.792,320.577,149.722,311.866,145.798,302.553z M201.607,362.77l-29.728,81.677l28.191,10.26l29.729-81.677
	C219.88,370.781,210.426,367.307,201.607,362.77z M256.432,376c-4.736,0-9.406-0.283-14-0.817V462h28v-86.817
	C265.838,375.717,261.168,376,256.432,376z"/>
</svg>
