<?xml version="1.0" encoding="utf-8"?>
<!-- Generator: Adobe Illustrator 19.0.0, SVG Export Plug-In . SVG Version: 6.00 Build 0)  -->
<svg version="1.1" id="Layer_1" xmlns="http://www.w3.org/2000/svg" xmlns:xlink="http://www.w3.org/1999/xlink" x="0px" y="0px"
	 viewBox="54 -54 128 128" style="enable-background:new 54 -54 128 128;" xml:space="preserve">
<style type="text/css">
	.st0{fill:none;stroke:#1DBDC4;stroke-width:3;stroke-miterlimit:10;}
</style>
<g>
	<path class="st0" d="M110.4,36.2L90,15.4l8.7-8.8l11.7,11.9l27.1-27.6l8.7,8.8L110.4,36.2z"/>
	<path class="st0" d="M180.4,20.1c-0.5,3.8-2.8,7-6,8.9c-4.7,2.6-7,7.9-5.9,13.2c0.8,3.8-0.2,7.6-2.7,10.5c-2.5,2.9-6.1,4.5-9.9,4.2
		c-5.3-0.3-10.2,2.9-12.1,7.8c-1.4,3.6-4.3,6.2-7.9,7.3s-7.5,0.4-10.6-1.9c-4.3-3.2-10.1-3.2-14.4,0c-3.1,2.3-6.9,3-10.6,1.9
		c-3.7-1.1-6.5-3.8-7.9-7.3c-1.9-5-6.7-8.1-12.1-7.8c-3.8,0.2-7.4-1.3-9.9-4.2c-2.5-2.9-3.5-6.7-2.7-10.5c1.1-5.3-1.3-10.5-5.9-13.2
		c-3.3-1.9-5.6-5.2-6-8.9s0.7-7.5,3.4-10.3c3.7-3.8,4.6-9.6,2.1-14.3c-1.8-3.4-1.9-7.4-0.3-10.9c1.6-3.5,4.7-5.9,8.3-6.8
		c5.2-1.2,8.9-5.6,9.4-10.9c0.3-3.8,2.4-7.2,5.6-9.3c3.2-2.1,7.1-2.5,10.7-1.2c5,1.8,10.5,0.2,13.8-4.1c2.2-3,5.7-4.8,9.5-4.8
		c3.8,0,7.3,1.8,9.6,4.8c3.2,4.3,8.8,5.8,13.8,4.1c3.6-1.3,7.5-0.9,10.7,1.2c3.2,2.1,5.3,5.5,5.6,9.3c0.4,5.4,4.3,9.7,9.4,10.9
		c3.7,0.8,6.7,3.4,8.3,6.8c1.6,3.5,1.5,7.4-0.3,10.8c-2.5,4.7-1.7,10.5,2.1,14.3C179.7,12.4,180.9,16.3,180.4,20.1z"/>
</g>
</svg>
