<?xml version="1.0" encoding="utf-8"?>
<!-- Generator: Adobe Illustrator 16.0.0, SVG Export Plug-In . SVG Version: 6.00 Build 0)  -->
<!DOCTYPE svg PUBLIC "-//W3C//DTD SVG 1.1//EN" "http://www.w3.org/Graphics/SVG/1.1/DTD/svg11.dtd">
<svg version="1.1" id="Layer_1" xmlns="http://www.w3.org/2000/svg" xmlns:xlink="http://www.w3.org/1999/xlink" x="0px" y="0px"
	 width="80px" height="80px" viewBox="0 0 80 80" enable-background="new 0 0 80 80" xml:space="preserve">
<g>
	<g>
		<path fill="#00C1C7" d="M40,0C23.431,0,10,13.433,10,30c0,12.104,7.179,22.508,17.5,27.251V75c0,2.764,2.236,5,5,5h15
			c2.764,0,5-2.236,5-5V57.251C62.82,52.508,70,42.104,70,30C70,13.433,56.568,0,40,0z M50,75c0,1.382-1.121,2.5-2.5,2.5h-15
			c-1.38,0-2.5-1.118-2.5-2.5v-2.5h20V75z M50,70H30v-5h20V70z M50,62.5H30v-5h20V62.5z M37.5,55V31.25c0-1.38,1.12-2.5,2.5-2.5
			c1.379,0,2.5,1.12,2.5,2.5V55H37.5z M51.438,55H45V31.25c0-1.38,1.121-2.5,2.5-2.5s2.5,1.12,2.5,2.5c0,0.691,0.559,1.25,1.25,1.25
			s1.25-0.559,1.25-1.25c0-2.761-2.238-5-5-5c-1.502,0-2.834,0.676-3.75,1.726c-0.916-1.05-2.248-1.726-3.75-1.726
			c-1.501,0-2.834,0.676-3.75,1.726c-0.916-1.05-2.249-1.726-3.75-1.726c-2.761,0-5,2.239-5,5c0,0.691,0.559,1.25,1.25,1.25
			S30,31.941,30,31.25c0-1.38,1.12-2.5,2.5-2.5s2.5,1.12,2.5,2.5V55h-6.437C19.088,50.656,12.5,41.104,12.5,30
			C12.5,14.813,24.812,2.5,40,2.5c15.188,0,27.5,12.312,27.5,27.5C67.5,41.104,60.91,50.659,51.438,55z M40,7.5
			c-0.691,0-1.25,0.559-1.25,1.25C38.75,9.442,39.308,10,40,10c5.522,0,10.522,2.239,14.141,5.86c0,0,1.18,1.319,2.109,0.39
			c0.928-0.929-0.34-2.161-0.34-2.161C51.838,10.021,46.213,7.5,40,7.5z"/>
	</g>
</g>
</svg>
