<?xml version="1.0" encoding="utf-8"?>
<!-- Generator: Adobe Illustrator 16.0.0, SVG Export Plug-In . SVG Version: 6.00 Build 0)  -->
<!DOCTYPE svg PUBLIC "-//W3C//DTD SVG 1.1//EN" "http://www.w3.org/Graphics/SVG/1.1/DTD/svg11.dtd">
<svg version="1.1" id="Layer_1" xmlns="http://www.w3.org/2000/svg" xmlns:xlink="http://www.w3.org/1999/xlink" x="0px" y="0px"
	 width="80px" height="80px" viewBox="0 0 80 80" enable-background="new 0 0 80 80" xml:space="preserve">
<path fill="#F06E6E" d="M74.562,70.736c-1.199,2.039-3.312,3.258-5.65,3.258H10.117c-2.34,0-4.453-1.219-5.654-3.258
	c-1.202-2.041-1.257-4.508-0.15-6.604L33.71,8.517c1.167-2.208,3.337-3.526,5.804-3.526c2.468,0,4.637,1.318,5.805,3.526
	l29.395,55.616C75.821,66.229,75.765,68.695,74.562,70.736z M72.394,65.4L42.998,9.784c-0.703-1.326-2.003-2.115-3.484-2.115
	c-1.48,0-2.781,0.79-3.482,2.115L6.635,65.4c-0.664,1.257-0.631,2.736,0.09,3.962c0.72,1.224,1.989,1.954,3.392,1.954h58.795
	c1.402,0,2.67-0.73,3.392-1.954C73.023,68.137,73.057,66.657,72.394,65.4z M40.772,48.957c-0.172,0.56-0.681,0.94-1.258,0.94
	c-0.576,0-1.085-0.381-1.257-0.94l-4.623-15.029c-0.591-1.921-0.257-3.953,0.917-5.575c1.172-1.622,2.982-2.552,4.963-2.552
	s3.791,0.93,4.964,2.552c1.173,1.623,1.508,3.654,0.917,5.575L40.772,48.957z M42.355,29.938c-0.673-0.928-1.707-1.46-2.842-1.46
	c-1.133,0-2.169,0.532-2.841,1.46c-0.672,0.928-0.863,2.091-0.524,3.19l3.365,10.943l3.365-10.943
	C43.217,32.029,43.026,30.867,42.355,29.938z M39.514,52.574c2.906,0,5.27,2.402,5.27,5.355s-2.363,5.354-5.27,5.354
	c-2.905,0-5.271-2.401-5.271-5.354S36.608,52.574,39.514,52.574z M39.514,60.607c1.454,0,2.635-1.201,2.635-2.678
	c0-1.478-1.181-2.678-2.635-2.678s-2.635,1.2-2.635,2.678C36.878,59.406,38.06,60.607,39.514,60.607z"/>
</svg>
