<?xml version="1.0" encoding="utf-8"?>
<!-- Generator: Adobe Illustrator 18.0.0, SVG Export Plug-In . SVG Version: 6.00 Build 0)  -->
<!DOCTYPE svg PUBLIC "-//W3C//DTD SVG 1.1//EN" "http://www.w3.org/Graphics/SVG/1.1/DTD/svg11.dtd">
<svg version="1.1" id="Layer_1" xmlns="http://www.w3.org/2000/svg" xmlns:xlink="http://www.w3.org/1999/xlink" x="0px" y="0px"
	 viewBox="0 0 200 150" enable-background="new 0 0 200 150" xml:space="preserve">
<g>
	<g>
		<path fill="#FFFFFF" d="M19.3,88.9C10.5,85.2,3,82.4,0.4,76.7c0,9.2,1.2,18.3,3.1,26.7c3.6,15.3,6.4,19.8,7.3,21.5
			c0.4,0.7,0.9,1.6,1.4,2.4l0,0l0,0c0.3,0.5,0.6,1,0.9,1.5l0,0c0,0,0,0,0.1,0.1c0.2,0.2,0.7,0.9,1.5,0.9c0.7,0,1.1-0.2,1.6-0.5
			l0.5-0.3l0,0l0,0l4.3-2.9c0.7-0.5,1.6-0.5,2.3,0l5.1,3.5c0.9,0.6,2.1,0.4,2.7-0.5c0.9-1.3,1.8-2.9,2.4-4.1
			c0.7-1.4,2.8-4.8,5.6-14.8C40.9,98.9,31.2,94,19.3,88.9z"/>
		<path fill="#FFFFFF" d="M41.7,54.6c-3.8-15.8-14.2-28.1-18-32c-0.8-0.8-2-0.8-2.7,0C17.7,25.9,9.8,35.1,5.1,47.4
			c-2.6,11.4,7.3,14.2,19.2,19c10.8,4.4,19.3,8.3,19.6,17.7C44.5,74.2,44,64,41.7,54.6z"/>
	</g>
	<g>
		<path fill="#FFFFFF" d="M70.1,130.5c-3.8,0-7.2-2.2-7.2-5.6c0-4.1,3.1-6.3,8.8-6.3h2.5v-0.9c0-2.7-1.4-3.9-4.4-3.9
			c-2.8,0-4.9,1.1-6,2.6h-0.2v-1.6c0-1.7,2.3-4,6.5-4c4.8,0,7.3,2.5,7.3,7.1v5.9C77.4,127.7,75.4,130.5,70.1,130.5z M74.3,121.3
			h-2.6c-3.8,0-5.5,1.2-5.5,3.2c0,1.7,1.6,3,4.1,3c2.9,0,4-1.1,4-3.8V121.3z"/>
		<path fill="#FFFFFF" d="M95.1,116.4c-0.7-1.4-3-2.5-4.8-2.5c-3.7,0-6.2,2.7-6.2,6.5c0,4.9,3.4,7.1,6.3,7.1c2,0,3.8-0.5,4.7-1.7
			h0.2v1.3c0,1.2-1.4,3.3-5.5,3.3c-3.9,0-9-3.5-9-9.6c0-5.4,3.7-10,9.3-10c2.8,0,5.1,1.4,5.1,4.1v1.3h-0.1V116.4z"/>
		<path fill="#FFFFFF" d="M112.4,116.4c-0.7-1.4-3-2.5-4.8-2.5c-3.7,0-6.2,2.7-6.2,6.5c0,4.9,3.4,7.1,6.3,7.1c2,0,3.8-0.5,4.7-1.7
			h0.2v1.3c0,1.2-1.4,3.3-5.5,3.3c-3.9,0-9-3.5-9-9.6c0-5.4,3.7-10,9.3-10c2.8,0,5.1,1.4,5.1,4.1v1.3h-0.1V116.4z"/>
		<path fill="#FFFFFF" d="M124.3,130.5c-5,0-8.7-3.8-8.7-9.4c0-6.2,3.4-10.1,8.7-10.1c5,0,8.5,3.8,8.5,9.4
			C132.7,126.7,129.4,130.5,124.3,130.5z M123.8,114c-3,0-5,2.5-5,6.4c0,4.3,2.1,7.1,5.8,7.1c3.2,0,4.9-2.7,4.9-6.4
			C129.5,116.4,127.5,114,123.8,114z"/>
		<path fill="#FFFFFF" d="M143.9,130.5c-4.6,0-7.7-3.2-7.7-8.7v-10.5h1c1.4,0,2.2,0.8,2.2,2.5v7.8c0,3.8,1.9,5.9,4.7,5.9
			c3,0,4.5-1.7,4.5-5.7v-10.5h0.9c1.6,0,2.3,0.8,2.3,2.5v8.2C151.7,127.6,148.9,130.5,143.9,130.5z"/>
		<path fill="#FFFFFF" d="M170.1,130.1c-1.3,0-2-0.7-2-2.1v-8.7c0-3.9-1.4-5.4-4.8-5.4c-2.8,0-4.4,1.6-4.4,5.4v10.8h-1.2
			c-1.2,0-2-0.7-2-2.2v-8.6c0-5.3,3.2-8.4,8-8.4c4.7,0,7.6,2.7,7.6,8.4v10.9h-1.2V130.1z"/>
		<path fill="#FFFFFF" d="M178.7,111.3h6.5v1.1c0,1.2-0.8,1.9-2.5,1.9h-4v9.3c0,2.7,1.1,3.8,3.1,3.8c1.2,0,2.3-0.1,3-0.5h0.2v1.1
			c0,1.6-1.2,2.4-3.4,2.4c-4.2,0-6-2.2-6-6.5v-12.2c0-1.1,0.3-2.2,0.8-2.9c0.5-0.7,1.5-1.3,2-1.3h0.4v3.8H178.7z"/>
		<path fill="#FFFFFF" d="M192.9,130.5c-3.2,0-5.7-1.5-5.7-3.7v-1.4h0.2c1.1,1.2,3.2,2.1,5.6,2.1c2.8,0,4-0.9,4-2.7
			c0-1.6-0.7-2.2-5-3.1c-3.5-0.7-5.2-1.9-5.2-4.8c0-3.1,2.8-5.9,7.5-5.9c2.8,0,5.5,1.3,5.5,3.6v1.4h-0.2c-0.8-1-2.9-1.9-5.1-1.9
			c-3.2,0-4.5,1.1-4.5,2.7c0,1.3,0.7,1.8,4.6,2.6c3.7,0.8,5.6,2.5,5.6,5.1C200.2,128.4,197.2,130.5,192.9,130.5z"/>
	</g>
	<g>
		<path fill="#FFFFFF" d="M80,100.8c-10.6,0-16.3-4-16.3-10.9v-4.7H64c3,3.1,9.2,4.9,14.7,4.9c6.1,0,8.1-1.5,8.1-4.7
			c0-2.9-2.6-3.9-9.9-5.4c-10.4-2.1-14.5-5.9-14.5-13.2c0-8.6,7.8-16.2,20-16.2c11.8,0,16.3,5.4,16.3,10.3V66h-0.3
			c-3.2-3.2-9-4.6-14-4.6c-6.5,0-8.8,1.7-8.8,4.5c0,2.2,0.9,3.3,9.8,5.1c9.9,2,14.6,6,14.6,13.5C100.1,94.4,92.8,100.8,80,100.8z"/>
		<path fill="#FFFFFF" d="M124.2,100.8c-12.4,0-19.1-6-19.1-18.3V61.4h5.1c5.8,0,8.3,1.9,8.3,7.8v13.6c0,5.6,2.6,7.4,6.3,7.4
			c3.1,0,5.6-1.8,5.6-7.9V61.4h5.1c5.3,0,8.2,2.2,8.2,7.8v13.6C143.7,95.1,135.9,100.8,124.2,100.8z"/>
		<path fill="#FFFFFF" d="M173.1,71.3c-1.7-0.6-2.9-0.8-4.7-0.8c-3.2,0-5.7,1.6-5.7,6.3v22.9h-3.6c-5.7,0-9.2-2.6-9.2-9V74
			c0-7.7,5.2-13.8,13.9-13.8c6.6,0,9.7,2.7,9.7,6.3v4.9L173.1,71.3L173.1,71.3z"/>
		<path fill="#FFFFFF" d="M200.1,57.8c-1.5-0.8-4.2-1-5.9-1c-3.1,0-5.3,1.8-5.3,4.1v4.5h8.8v4.8c0,2.6-2.4,4.2-5.7,4.2h-3.1v25.2h-4
			c-6.3,0-8.8-2.4-8.8-8.2V65.1c0-13.8,8.3-17.6,15.5-17.6c6.5,0,8.9,3.3,8.9,7.2v3.1C200.5,57.8,200.1,57.8,200.1,57.8z"/>
	</g>
</g>
</svg>
