<?xml version="1.0" encoding="utf-8"?>
<!-- Generator: Adobe Illustrator 18.0.0, SVG Export Plug-In . SVG Version: 6.00 Build 0)  -->
<!DOCTYPE svg PUBLIC "-//W3C//DTD SVG 1.1//EN" "http://www.w3.org/Graphics/SVG/1.1/DTD/svg11.dtd">
<svg version="1.1" id="Layer_1" xmlns="http://www.w3.org/2000/svg" xmlns:xlink="http://www.w3.org/1999/xlink" x="0px" y="0px"
	 viewBox="0 376 1600 863.5" enable-background="new 0 376 1600 863.5" xml:space="preserve">
<g>
	<g>
		<path fill="#2F3F4D" d="M154.4,911.2C84,881.6,24,859.2,3.2,813.6c0,73.6,9.6,146.4,24.8,213.6c28.8,122.4,51.2,158.4,58.4,172
			c3.2,5.6,7.2,12.8,11.2,19.2l0,0l0,0c2.4,4,4.8,8,7.2,12l0,0c0,0,0,0,0.8,0.8c1.6,1.6,5.6,7.2,12,7.2c5.6,0,8.8-1.6,12.8-4l4-2.4
			l0,0l0,0l34.4-23.2c5.6-4,12.8-4,18.4,0l40.8,28c7.2,4.8,16.8,3.2,21.6-4c7.2-10.4,14.4-23.2,19.2-32.8
			c5.6-11.2,22.4-38.4,44.8-118.4C327.2,991.2,249.6,952,154.4,911.2z"/>
		<path fill="#2F3F4D" d="M333.6,636.8c-30.4-126.4-113.6-224.8-144-256c-6.4-6.4-16-6.4-21.6,0c-26.4,26.4-89.6,100-127.2,198.4
			c-20.8,91.2,58.4,113.6,153.6,152c86.4,35.2,154.4,66.4,156.8,141.6C356,793.6,352,712,333.6,636.8z"/>
	</g>
	<g>
		<path fill="#2F3F4D" d="M560.8,1244c-30.4,0-57.6-17.6-57.6-44.8c0-32.8,24.8-50.4,70.4-50.4h20v-7.2c0-21.6-11.2-31.2-35.2-31.2
			c-22.4,0-39.2,8.8-48,20.8h-1.6v-12.8c0-13.6,18.4-32,52-32c38.4,0,58.4,20,58.4,56.8v47.2C619.2,1221.6,603.2,1244,560.8,1244z
			 M594.4,1170.4h-20.8c-30.4,0-44,9.6-44,25.6c0,13.6,12.8,24,32.8,24c23.2,0,32-8.8,32-30.4V1170.4z"/>
		<path fill="#2F3F4D" d="M760.8,1131.2c-5.6-11.2-24-20-38.4-20c-29.6,0-49.6,21.6-49.6,52c0,39.2,27.2,56.8,50.4,56.8
			c16,0,30.4-4,37.6-13.6h1.6v10.4c0,9.6-11.2,26.4-44,26.4c-31.2,0-72-28-72-76.8c0-43.2,29.6-80,74.4-80
			c22.4,0,40.8,11.2,40.8,32.8v10.4h-0.8V1131.2z"/>
		<path fill="#2F3F4D" d="M899.2,1131.2c-5.6-11.2-24-20-38.4-20c-29.6,0-49.6,21.6-49.6,52c0,39.2,27.2,56.8,50.4,56.8
			c16,0,30.4-4,37.6-13.6h1.6v10.4c0,9.6-11.2,26.4-44,26.4c-31.2,0-72-28-72-76.8c0-43.2,29.6-80,74.4-80
			c22.4,0,40.8,11.2,40.8,32.8v10.4h-0.8V1131.2z"/>
		<path fill="#2F3F4D" d="M994.4,1244c-40,0-69.6-30.4-69.6-75.2c0-49.6,27.2-80.8,69.6-80.8c40,0,68,30.4,68,75.2
			C1061.6,1213.6,1035.2,1244,994.4,1244z M990.4,1112c-24,0-40,20-40,51.2c0,34.4,16.8,56.8,46.4,56.8c25.6,0,39.2-21.6,39.2-51.2
			C1036,1131.2,1020,1112,990.4,1112z"/>
		<path fill="#2F3F4D" d="M1151.2,1244c-36.8,0-61.6-25.6-61.6-69.6v-84h8c11.2,0,17.6,6.4,17.6,20v62.4c0,30.4,15.2,47.2,37.6,47.2
			c24,0,36-13.6,36-45.6v-84h7.2c12.8,0,18.4,6.4,18.4,20v65.6C1213.6,1220.8,1191.2,1244,1151.2,1244z"/>
		<path fill="#2F3F4D" d="M1360.8,1240.8c-10.4,0-16-5.6-16-16.8v-69.6c0-31.2-11.2-43.2-38.4-43.2c-22.4,0-35.2,12.8-35.2,43.2
			v86.4h-9.6c-9.6,0-16-5.6-16-17.6v-68.8c0-42.4,25.6-67.2,64-67.2c37.6,0,60.8,21.6,60.8,67.2v87.2h-9.6L1360.8,1240.8
			L1360.8,1240.8z"/>
		<path fill="#2F3F4D" d="M1429.6,1090.4h52v8.8c0,9.6-6.4,15.2-20,15.2h-32v74.4c0,21.6,8.8,30.4,24.8,30.4c9.6,0,18.4-0.8,24-4
			h1.6v8.8c0,12.8-9.6,19.2-27.2,19.2c-33.6,0-48-17.6-48-52v-97.6c0-8.8,2.4-17.6,6.4-23.2s12-10.4,16-10.4h3.2v30.4L1429.6,1090.4
			L1429.6,1090.4z"/>
		<path fill="#2F3F4D" d="M1543.2,1244c-25.6,0-45.6-12-45.6-29.6v-11.2h1.6c8.8,9.6,25.6,16.8,44.8,16.8c22.4,0,32-7.2,32-21.6
			c0-12.8-5.6-17.6-40-24.8c-28-5.6-41.6-15.2-41.6-38.4c0-24.8,22.4-47.2,60-47.2c22.4,0,44,10.4,44,28.8v11.2h-1.6
			c-6.4-8-23.2-15.2-40.8-15.2c-25.6,0-36,8.8-36,21.6c0,10.4,5.6,14.4,36.8,20.8c29.6,6.4,44.8,20,44.8,40.8
			C1601.6,1227.2,1577.6,1244,1543.2,1244z"/>
	</g>
	<g>
		<path fill="#2F3F4D" d="M640,1006.4c-84.8,0-130.4-32-130.4-87.2v-37.6h2.4c24,24.8,73.6,39.2,117.6,39.2
			c48.8,0,64.8-12,64.8-37.6c0-23.2-20.8-31.2-79.2-43.2c-83.2-16.8-116-47.2-116-105.6c0-68.8,62.4-129.6,160-129.6
			c94.4,0,130.4,43.2,130.4,82.4V728h-2.4c-25.6-25.6-72-36.8-112-36.8c-52,0-70.4,13.6-70.4,36c0,17.6,7.2,26.4,78.4,40.8
			C762.4,784,800,816,800,876C800.8,955.2,742.4,1006.4,640,1006.4z"/>
		<path fill="#2F3F4D" d="M993.6,1006.4c-99.2,0-152.8-48-152.8-146.4V691.2h40.8c46.4,0,66.4,15.2,66.4,62.4v108.8
			c0,44.8,20.8,59.2,50.4,59.2c24.8,0,44.8-14.4,44.8-63.2V691.2h40.8c42.4,0,65.6,17.6,65.6,62.4v108.8
			C1149.6,960.8,1087.2,1006.4,993.6,1006.4z"/>
		<path fill="#2F3F4D" d="M1384.8,770.4c-13.6-4.8-23.2-6.4-37.6-6.4c-25.6,0-45.6,12.8-45.6,50.4v183.2h-28.8
			c-45.6,0-73.6-20.8-73.6-72V792c0-61.6,41.6-110.4,111.2-110.4c52.8,0,77.6,21.6,77.6,50.4v39.2L1384.8,770.4L1384.8,770.4z"/>
		<path fill="#2F3F4D" d="M1600.8,662.4c-12-6.4-33.6-8-47.2-8c-24.8,0-42.4,14.4-42.4,32.8v36h70.4v38.4
			c0,20.8-19.2,33.6-45.6,33.6h-24.8v201.6h-32c-50.4,0-70.4-19.2-70.4-65.6V720.8c0-110.4,66.4-140.8,124-140.8
			c52,0,71.2,26.4,71.2,57.6v24.8H1600.8z"/>
	</g>
</g>
</svg>
