<svg xmlns="http://www.w3.org/2000/svg" xmlns:xlink="http://www.w3.org/1999/xlink" preserveAspectRatio="xMidYMid" width="24" height="22" viewBox="0 0 24 22">
  <defs>
    <style>

      .cls-2 {
        fill: #5d6267;
      }
    </style>
  </defs>
  <path d="M24.000,14.855 C24.000,14.855 24.000,13.306 24.000,13.306 C24.000,13.306 18.769,9.959 18.769,9.959 C18.769,9.959 18.769,8.317 18.769,8.317 C18.769,7.790 18.369,7.387 17.846,7.387 C17.323,7.387 16.923,7.790 16.923,8.317 C16.923,8.317 16.923,8.782 16.923,8.782 C16.923,8.782 13.754,6.767 13.754,6.767 C13.846,5.218 13.969,3.823 14.031,2.739 C14.062,2.646 14.062,2.522 14.062,2.398 C14.062,1.809 13.538,1.066 13.015,0.477 C12.462,-0.143 11.508,-0.143 10.954,0.477 C10.431,1.066 9.908,1.809 9.908,2.398 C9.908,2.522 9.908,2.615 9.938,2.739 C10.000,3.793 10.123,5.218 10.215,6.767 C10.215,6.767 7.077,8.782 7.077,8.782 C7.077,8.782 7.077,8.317 7.077,8.317 C7.077,7.790 6.677,7.387 6.154,7.387 C5.631,7.387 5.231,7.790 5.231,8.317 C5.231,8.317 5.231,9.959 5.231,9.959 C5.231,9.959 -0.000,13.306 -0.000,13.306 C-0.000,13.306 -0.000,14.855 -0.000,14.855 C-0.000,14.855 10.554,11.509 10.554,11.509 C10.708,13.740 10.862,15.847 10.954,17.303 C10.954,17.303 8.154,19.565 8.154,19.565 C8.154,19.565 8.154,20.712 8.154,20.712 C8.154,20.712 11.446,19.473 11.446,19.473 C11.446,19.473 11.785,21.084 11.785,21.084 C11.785,21.084 12.215,21.084 12.215,21.084 C12.215,21.084 12.554,19.473 12.554,19.473 C12.554,19.473 15.846,20.712 15.846,20.712 C15.846,20.712 15.846,19.565 15.846,19.565 C15.846,19.565 13.046,17.303 13.046,17.303 C13.138,15.847 13.292,13.740 13.446,11.509 C13.446,11.509 24.000,14.855 24.000,14.855 Z" id="path-1" class="cls-2" fill-rule="evenodd"/>
</svg>
