<svg xmlns="http://www.w3.org/2000/svg" xmlns:xlink="http://www.w3.org/1999/xlink" preserveAspectRatio="xMidYMid" width="15" height="20" viewBox="0 0 15 20">
  <defs>
    <style>

      .cls-2 {
        fill: #5d6267;
      }
    </style>
  </defs>
  <path d="M9.415,12.081 C9.162,12.319 9.037,12.637 9.037,12.958 C9.037,12.958 9.034,12.958 9.034,12.958 C9.034,13.904 8.255,14.674 7.298,14.674 C6.834,14.674 6.398,14.495 6.070,14.171 C5.742,13.847 5.561,13.416 5.561,12.958 C5.561,12.958 5.559,12.958 5.559,12.958 C5.559,12.638 5.435,12.319 5.182,12.081 C4.691,11.621 3.918,11.641 3.453,12.125 C2.516,13.100 2.001,14.377 2.001,15.720 C2.001,17.259 2.686,18.715 3.881,19.714 C4.110,19.906 4.390,20.000 4.669,20.000 C5.017,20.000 5.362,19.854 5.603,19.572 C6.039,19.062 5.975,18.300 5.460,17.869 C4.815,17.330 4.446,16.547 4.446,15.720 C4.446,15.439 4.489,15.164 4.570,14.901 C4.675,15.044 4.788,15.182 4.917,15.310 C5.553,15.938 6.399,16.284 7.298,16.284 C8.420,16.284 9.414,15.736 10.026,14.900 C10.107,15.163 10.151,15.439 10.151,15.720 C10.151,16.547 9.781,17.330 9.136,17.869 C8.621,18.300 8.557,19.062 8.993,19.572 C9.235,19.854 9.579,20.000 9.927,20.000 C10.205,20.000 10.486,19.906 10.716,19.714 C11.911,18.715 12.596,17.259 12.596,15.721 C12.596,14.377 12.080,13.100 11.143,12.125 C10.679,11.641 9.906,11.621 9.415,12.081 ZM14.307,10.185 C13.132,8.730 11.560,7.701 9.804,7.198 C10.758,6.461 11.373,5.316 11.373,4.026 C11.373,1.801 9.549,-0.001 7.298,-0.001 C5.047,-0.001 3.223,1.801 3.223,4.026 C3.223,5.316 3.839,6.461 4.792,7.198 C3.036,7.701 1.465,8.730 0.289,10.185 C-0.132,10.707 -0.045,11.467 0.483,11.883 C1.010,12.299 1.779,12.214 2.201,11.693 C3.447,10.149 5.305,9.264 7.298,9.264 C9.291,9.264 11.149,10.149 12.396,11.693 C12.637,11.991 12.993,12.147 13.352,12.147 C13.620,12.147 13.889,12.061 14.114,11.883 C14.642,11.467 14.728,10.707 14.307,10.185 Z" id="path-1" class="cls-2" fill-rule="evenodd"/>
</svg>
