<svg xmlns="http://www.w3.org/2000/svg" xmlns:xlink="http://www.w3.org/1999/xlink" preserveAspectRatio="xMidYMid" width="20" height="16" viewBox="0 0 20 16">
  <defs>
    <style>

      .cls-2 {
        fill: #5d6267;
      }
    </style>
  </defs>
  <path d="M19.393,3.997 C19.393,3.997 18.457,3.997 18.457,3.997 C17.670,3.997 17.973,4.856 17.542,5.137 C17.363,4.274 16.957,2.851 16.075,1.557 C15.435,0.619 15.087,-0.006 10.000,-0.006 C4.802,-0.006 4.565,0.619 3.925,1.557 C3.044,2.851 2.638,4.274 2.458,5.137 C2.027,4.856 2.330,3.997 1.543,3.997 C1.543,3.997 0.607,3.997 0.607,3.997 C0.267,3.997 -0.008,4.272 -0.008,4.612 C-0.008,4.612 -0.008,5.383 -0.008,5.383 C-0.008,5.724 0.267,5.998 0.607,5.998 C0.607,5.998 2.257,5.998 2.257,5.998 C1.297,6.789 0.659,8.120 0.659,9.334 C0.659,10.580 0.793,12.981 1.505,13.916 C1.564,13.993 1.742,14.063 1.994,14.129 C1.994,14.129 1.994,15.339 1.994,15.339 C1.994,15.708 2.292,16.006 2.661,16.006 C2.661,16.006 3.995,16.006 3.995,16.006 C4.364,16.006 4.662,15.708 4.662,15.339 C4.662,15.339 4.662,14.475 4.662,14.475 C6.417,14.608 8.528,14.672 10.000,14.672 C11.472,14.672 13.584,14.608 15.338,14.475 C15.338,14.475 15.338,15.339 15.338,15.339 C15.338,15.708 15.636,16.006 16.005,16.006 C16.005,16.006 17.339,16.006 17.339,16.006 C17.708,16.006 18.006,15.708 18.006,15.339 C18.006,15.339 18.006,14.129 18.006,14.129 C18.258,14.063 18.436,13.993 18.495,13.916 C19.207,12.981 19.341,10.580 19.341,9.334 C19.341,8.120 18.703,6.789 17.743,5.998 C17.743,5.998 19.393,5.998 19.393,5.998 C19.733,5.998 20.008,5.724 20.008,5.383 C20.008,5.383 20.008,4.612 20.008,4.612 C20.008,4.272 19.733,3.997 19.393,3.997 ZM5.054,1.853 C5.629,1.684 6.819,1.328 10.000,1.328 C13.180,1.328 14.371,1.684 14.947,1.853 C16.110,3.674 16.425,5.384 16.469,5.651 C15.275,5.429 13.303,5.331 10.000,5.331 C6.698,5.331 4.726,5.429 3.532,5.650 C3.583,5.377 3.945,3.599 5.054,1.853 ZM5.808,10.526 C5.752,10.615 5.653,10.669 5.548,10.669 C5.548,10.669 2.474,10.669 2.474,10.669 C1.660,10.669 1.660,10.085 1.660,9.501 C1.660,8.917 1.970,8.334 2.899,8.334 C4.686,8.334 5.508,9.553 5.827,10.230 C5.872,10.325 5.865,10.437 5.808,10.526 ZM13.610,8.933 C13.610,8.933 12.821,10.386 12.821,10.386 C12.727,10.561 12.544,10.669 12.346,10.669 C12.346,10.669 7.654,10.669 7.654,10.669 C7.456,10.669 7.273,10.561 7.178,10.386 C7.178,10.386 6.390,8.933 6.390,8.933 C6.322,8.808 6.325,8.655 6.398,8.532 C6.471,8.409 6.604,8.334 6.747,8.334 C6.747,8.334 13.253,8.334 13.253,8.334 C13.395,8.334 13.528,8.409 13.601,8.532 C13.675,8.655 13.678,8.808 13.610,8.933 ZM18.340,9.501 C18.340,10.085 18.340,10.669 17.527,10.669 C17.527,10.669 14.452,10.669 14.452,10.669 C14.346,10.669 14.248,10.615 14.192,10.526 C14.135,10.437 14.128,10.325 14.173,10.230 C14.492,9.553 15.314,8.334 17.101,8.334 C18.030,8.334 18.340,8.917 18.340,9.501 Z" id="path-1" class="cls-2" fill-rule="evenodd"/>
</svg>
