<svg xmlns="http://www.w3.org/2000/svg" xmlns:xlink="http://www.w3.org/1999/xlink" preserveAspectRatio="xMidYMid" width="20" height="23" viewBox="0 0 20 23">
  <defs>
    <style>

      .cls-2 {
        fill: #5d6267;
      }
    </style>
  </defs>
  <path d="M19.260,19.644 C19.260,21.077 14.948,22.237 9.630,22.237 C4.311,22.237 -0.001,21.077 -0.001,19.644 C-0.001,18.806 1.481,18.064 3.770,17.590 C4.092,17.938 4.425,18.219 4.752,18.443 C4.820,18.692 4.946,18.921 5.128,19.120 C5.785,19.841 7.173,20.162 9.630,20.162 C12.086,20.162 13.475,19.841 14.131,19.120 C14.313,18.921 14.440,18.692 14.507,18.443 C14.834,18.219 15.167,17.938 15.490,17.590 C17.778,18.064 19.260,18.806 19.260,19.644 ZM8.889,5.939 C11.046,4.422 7.283,1.729 11.852,0.013 C8.735,2.018 12.654,4.384 8.889,5.939 ZM11.852,5.939 C13.739,4.801 10.447,2.781 14.445,1.495 C11.717,2.998 15.146,4.773 11.852,5.939 ZM5.926,5.939 C7.813,4.801 4.521,2.781 8.518,1.495 C5.791,2.998 9.220,4.773 5.926,5.939 ZM17.035,9.713 C17.039,9.510 17.040,9.321 17.040,9.159 C17.040,7.317 12.999,6.680 9.631,6.680 C6.263,6.680 2.222,7.317 2.222,9.159 C2.222,10.970 2.314,15.540 5.590,17.917 C5.529,18.565 6.069,19.274 9.631,19.274 C13.193,19.274 13.733,18.565 13.673,17.917 C14.316,17.449 14.834,16.895 15.255,16.296 C20.661,15.842 21.714,8.911 17.035,9.713 ZM6.460,16.717 C4.500,15.295 3.935,12.773 3.772,10.938 C4.223,11.163 4.849,11.364 5.712,11.514 C5.778,13.194 5.995,15.314 7.142,17.213 C7.142,17.213 6.460,16.717 6.460,16.717 ZM9.630,10.310 C6.561,10.310 4.074,9.829 4.074,9.234 C4.074,8.641 6.561,8.088 9.630,8.088 C12.698,8.088 15.186,8.641 15.186,9.234 C15.186,9.829 12.698,10.310 9.630,10.310 ZM16.165,14.602 C16.621,13.463 16.836,12.290 16.941,11.268 C19.044,10.572 19.376,13.405 16.165,14.602 Z" id="path-1" class="cls-2" fill-rule="evenodd"/>
</svg>
