<svg xmlns="http://www.w3.org/2000/svg" xmlns:xlink="http://www.w3.org/1999/xlink" preserveAspectRatio="xMidYMid" width="20" height="20" viewBox="0 0 20 20">
  <defs>
    <style>

      .cls-2 {
        fill: #5d6267;
      }
    </style>
  </defs>
  <path d="M19.890,11.429 C19.890,11.429 17.724,11.429 17.724,11.429 C17.809,10.965 17.861,10.488 17.861,10.000 C17.861,5.665 14.334,2.139 10.000,2.139 C7.785,2.139 5.676,3.064 4.218,4.544 C4.218,4.544 5.632,5.957 5.632,5.957 C5.710,6.036 5.734,6.154 5.691,6.257 C5.649,6.360 5.548,6.427 5.437,6.427 C5.437,6.427 0.985,6.427 0.985,6.427 C0.833,6.427 0.710,6.303 0.710,6.152 C0.710,6.152 0.710,1.699 0.710,1.699 C0.710,1.588 0.777,1.488 0.880,1.445 C0.983,1.403 1.101,1.426 1.179,1.505 C1.179,1.505 2.715,3.040 2.715,3.040 C4.563,1.170 7.187,-0.005 10.000,-0.005 C15.526,-0.005 20.005,4.474 20.005,10.000 C20.005,10.487 19.959,10.961 19.890,11.429 ZM9.596,8.923 C9.596,8.923 11.023,9.295 11.023,9.295 C12.048,9.594 13.573,10.277 13.573,11.881 C13.573,12.948 13.237,13.760 12.574,14.300 C12.098,14.687 11.503,14.943 10.715,15.039 C10.715,15.039 10.715,16.117 10.715,16.117 C10.715,16.291 10.572,16.432 10.397,16.432 C10.397,16.432 9.603,16.432 9.603,16.432 C9.428,16.432 9.285,16.291 9.285,16.117 C9.285,16.117 9.285,15.014 9.285,15.014 C7.957,14.835 6.739,13.797 6.462,12.498 C6.443,12.410 6.479,12.318 6.539,12.250 C6.599,12.183 6.686,12.144 6.776,12.144 C6.776,12.144 8.108,12.144 8.108,12.144 C8.251,12.144 8.370,12.241 8.414,12.376 C8.627,13.026 9.386,13.300 10.012,13.300 C10.557,13.300 10.973,13.157 11.251,12.964 C11.514,12.780 11.689,12.516 11.689,12.157 C11.689,11.479 11.094,11.260 10.404,11.077 C10.404,11.077 8.977,10.705 8.977,10.705 C7.953,10.398 6.427,9.778 6.427,8.119 C6.427,6.923 6.763,6.240 7.427,5.700 C7.902,5.313 8.586,4.998 9.285,4.961 C9.285,4.961 9.285,3.883 9.285,3.883 C9.285,3.710 9.428,3.568 9.603,3.568 C9.603,3.568 10.397,3.568 10.397,3.568 C10.572,3.568 10.715,3.710 10.715,3.883 C10.715,3.883 10.715,4.986 10.715,4.986 C12.591,4.983 13.462,6.784 13.537,7.502 C13.547,7.591 13.522,7.682 13.460,7.750 C13.402,7.817 13.314,7.856 13.223,7.856 C13.223,7.856 11.891,7.856 11.891,7.856 C11.749,7.856 11.623,7.761 11.586,7.624 C11.513,7.356 11.251,6.700 9.989,6.700 C9.443,6.700 9.028,6.843 8.749,7.036 C8.485,7.220 8.311,7.484 8.311,7.843 C8.311,8.503 8.906,8.739 9.596,8.923 ZM2.139,10.000 C2.139,14.335 5.665,17.861 10.000,17.861 C12.215,17.861 14.326,16.936 15.780,15.455 C15.780,15.455 14.369,14.043 14.369,14.043 C14.289,13.964 14.265,13.846 14.309,13.743 C14.351,13.640 14.451,13.573 14.563,13.573 C14.563,13.573 19.015,13.573 19.015,13.573 C19.167,13.573 19.290,13.697 19.290,13.848 C19.290,13.848 19.290,18.301 19.290,18.301 C19.290,18.412 19.223,18.512 19.120,18.555 C19.017,18.597 18.899,18.574 18.820,18.495 C18.820,18.495 17.287,16.963 17.287,16.963 C15.442,18.833 12.812,20.005 10.000,20.005 C4.474,20.005 -0.005,15.526 -0.005,10.000 C-0.005,9.514 0.041,9.039 0.109,8.571 C0.109,8.571 2.275,8.571 2.275,8.571 C2.190,9.035 2.139,9.511 2.139,10.000 Z" id="path-1" class="cls-2" fill-rule="evenodd"/>
</svg>
