<svg xmlns="http://www.w3.org/2000/svg" xmlns:xlink="http://www.w3.org/1999/xlink" preserveAspectRatio="xMidYMid" width="19" height="21" viewBox="0 0 19 21">
  <defs>
    <style>

      .cls-2 {
        fill: #5d6267;
      }
    </style>
  </defs>
  <path d="M17.785,10.654 C17.785,9.178 16.586,7.984 15.104,7.984 C13.623,7.984 12.424,9.178 12.424,10.654 C12.424,11.817 13.170,12.803 14.211,13.170 C14.211,13.170 14.211,15.105 14.211,15.105 C14.211,16.823 12.808,18.221 11.084,18.221 C9.359,18.221 7.957,16.823 7.957,15.105 C7.957,15.105 7.957,13.011 7.957,13.011 C7.957,13.011 13.752,2.743 13.752,2.743 C14.473,1.464 13.860,0.416 12.385,0.416 C12.385,0.416 10.265,0.416 10.265,0.416 C10.021,0.161 9.678,-0.001 9.297,-0.001 C8.558,-0.001 7.957,0.599 7.957,1.334 C7.957,2.070 8.558,2.670 9.297,2.670 C9.704,2.670 10.065,2.484 10.311,2.197 C10.311,2.197 11.414,2.197 11.414,2.197 C11.742,2.197 11.879,2.428 11.718,2.713 C11.718,2.713 7.316,10.511 7.316,10.511 C7.155,10.796 6.893,10.796 6.732,10.511 C6.732,10.511 2.331,2.714 2.331,2.714 C2.170,2.429 2.307,2.197 2.635,2.197 C2.635,2.197 3.815,2.197 3.815,2.197 C4.061,2.484 4.422,2.670 4.830,2.670 C5.568,2.670 6.170,2.071 6.170,1.335 C6.170,0.599 5.568,-0.000 4.830,-0.000 C4.448,-0.000 4.105,0.161 3.861,0.417 C3.861,0.417 1.663,0.417 1.663,0.417 C0.189,0.417 -0.424,1.464 0.297,2.743 C0.297,2.743 6.170,13.148 6.170,13.148 C6.170,13.148 6.170,15.105 6.170,15.105 C6.170,17.809 8.370,20.001 11.084,20.001 C13.798,20.001 15.998,17.809 15.998,15.105 C15.998,15.105 15.998,13.170 15.998,13.170 C17.039,12.803 17.785,11.817 17.785,10.654 ZM15.104,11.989 C14.366,11.989 13.764,11.390 13.764,10.654 C13.764,9.918 14.366,9.319 15.104,9.319 C15.843,9.319 16.445,9.918 16.445,10.654 C16.445,11.390 15.843,11.989 15.104,11.989 Z" id="path-1" class="cls-2" fill-rule="evenodd"/>
</svg>
