<svg xmlns="http://www.w3.org/2000/svg" xmlns:xlink="http://www.w3.org/1999/xlink" preserveAspectRatio="xMidYMid" width="17" height="20" viewBox="0 0 17 20">
  <defs>
    <style>

      .cls-2 {
        fill: #5d6267;
      }
    </style>
  </defs>
  <path d="M2.651,0.001 C2.651,0.001 14.286,0.001 14.286,0.001 C15.755,0.001 16.953,1.164 16.953,2.590 C16.953,2.590 16.953,17.411 16.953,17.411 C16.953,18.837 15.755,19.999 14.286,19.999 C14.286,19.999 2.651,19.999 2.651,19.999 C1.182,19.999 -0.015,18.836 -0.015,17.411 C-0.015,17.411 -0.015,2.590 -0.015,2.590 C-0.015,1.164 1.182,0.001 2.651,0.001 C2.651,0.001 2.651,0.001 2.651,0.001 ZM10.282,1.752 C9.609,1.752 9.062,2.282 9.062,2.936 C9.062,3.591 9.608,4.120 10.282,4.120 C10.955,4.120 11.501,3.591 11.501,2.936 C11.501,2.282 10.956,1.752 10.282,1.752 C10.282,1.752 10.282,1.752 10.282,1.752 ZM9.722,8.424 C8.768,8.135 7.683,8.122 6.943,8.857 C6.570,9.228 6.340,9.734 6.340,10.294 C6.340,11.429 7.288,12.349 8.458,12.349 C9.618,12.349 10.575,13.274 10.575,14.405 C10.575,15.467 9.745,16.341 8.681,16.450 C8.681,16.450 8.604,16.475 8.604,16.475 C10.849,16.365 12.688,14.589 12.693,12.349 C12.697,10.515 11.451,8.948 9.722,8.424 C9.722,8.424 9.722,8.424 9.722,8.424 ZM8.458,6.466 C5.111,6.466 2.398,9.101 2.398,12.350 C2.398,15.599 5.112,18.234 8.458,18.234 C11.804,18.234 14.519,15.599 14.519,12.350 C14.519,9.101 11.804,6.466 8.458,6.466 C8.458,6.466 8.458,6.466 8.458,6.466 ZM13.933,1.752 C13.260,1.752 12.714,2.282 12.714,2.936 C12.714,3.591 13.260,4.120 13.933,4.120 C14.606,4.120 15.152,3.591 15.152,2.936 C15.152,2.282 14.606,1.752 13.933,1.752 Z" id="path-1" class="cls-2" fill-rule="evenodd"/>
</svg>
