<svg xmlns="http://www.w3.org/2000/svg" xmlns:xlink="http://www.w3.org/1999/xlink" preserveAspectRatio="xMidYMid" width="20" height="20" viewBox="0 0 20 20">
  <defs>
    <style>

      .cls-2 {
        fill: #5d6267;
      }
    </style>
  </defs>
  <path d="M16.923,0.000 C16.923,0.000 3.077,0.000 3.077,0.000 C1.385,0.000 0.000,1.385 0.000,3.077 C0.000,3.077 0.000,16.923 0.000,16.923 C0.000,18.615 1.385,20.000 3.077,20.000 C3.077,20.000 16.923,20.000 16.923,20.000 C18.615,20.000 20.000,18.615 20.000,16.923 C20.000,16.923 20.000,3.077 20.000,3.077 C20.000,1.385 18.615,0.000 16.923,0.000 ZM17.692,16.154 C17.692,17.000 17.000,17.692 16.154,17.692 C16.154,17.692 3.846,17.692 3.846,17.692 C3.000,17.692 2.308,17.000 2.308,16.154 C2.308,16.154 2.308,3.846 2.308,3.846 C2.308,3.000 3.000,2.308 3.846,2.308 C3.846,2.308 16.154,2.308 16.154,2.308 C17.000,2.308 17.692,3.000 17.692,3.846 C17.692,3.846 17.692,16.154 17.692,16.154 ZM11.546,4.615 C11.546,4.615 5.393,4.615 5.393,4.615 C5.393,4.615 5.393,15.385 5.393,15.385 C5.393,15.385 7.700,15.385 7.700,15.385 C7.700,15.385 7.700,12.308 7.700,12.308 C7.700,12.308 11.546,12.308 11.546,12.308 C13.669,12.308 15.393,10.585 15.393,8.462 C15.393,6.339 13.670,4.615 11.546,4.615 ZM11.546,10.000 C11.546,10.000 7.700,10.000 7.700,10.000 C7.700,10.000 7.700,6.923 7.700,6.923 C7.700,6.923 11.546,6.923 11.546,6.923 C12.395,6.923 13.085,7.613 13.085,8.462 C13.085,9.310 12.395,10.000 11.546,10.000 Z" id="path-1" class="cls-2" fill-rule="evenodd"/>
</svg>
