<svg xmlns="http://www.w3.org/2000/svg" xmlns:xlink="http://www.w3.org/1999/xlink" preserveAspectRatio="xMidYMid" width="22" height="22" viewBox="0 0 22 22">
  <defs>
    <style>

      .cls-2 {
        fill: #5d6267;
      }
    </style>
  </defs>
  <path d="M4.801,4.353 C4.837,4.353 4.873,4.339 4.901,4.312 C4.901,4.312 5.289,3.924 5.289,3.924 C5.344,3.869 5.344,3.780 5.289,3.725 C5.234,3.670 5.144,3.670 5.089,3.725 C5.089,3.725 4.701,4.113 4.701,4.113 C4.646,4.168 4.646,4.257 4.701,4.312 C4.729,4.339 4.765,4.353 4.801,4.353 ZM11.846,16.923 C11.846,16.455 11.468,16.077 11.000,16.077 C10.532,16.077 10.154,16.455 10.154,16.923 C10.154,16.923 10.154,20.353 10.154,20.353 C8.627,20.501 7.141,21.047 5.923,22.000 C5.923,22.000 16.077,22.000 16.077,22.000 C14.859,21.047 13.373,20.501 11.846,20.353 C11.846,20.353 11.846,16.923 11.846,16.923 ZM6.752,3.492 C6.758,3.486 6.766,3.481 6.772,3.472 C6.800,3.444 6.828,3.416 6.856,3.388 C6.865,3.382 6.871,3.373 6.876,3.368 C7.943,2.333 9.398,1.692 11.000,1.692 C13.476,1.692 15.603,3.221 16.483,5.384 C16.483,5.387 16.486,5.387 16.486,5.390 C16.486,5.390 16.486,5.393 16.486,5.393 C16.666,5.825 17.157,6.036 17.591,5.858 C18.000,5.695 18.209,5.246 18.088,4.832 C18.079,4.806 18.071,4.778 18.060,4.753 C18.057,4.745 18.051,4.736 18.048,4.727 C16.909,1.955 14.181,0.000 11.000,0.000 C8.927,0.000 7.054,0.827 5.681,2.172 C5.658,2.192 5.635,2.211 5.616,2.231 C5.596,2.251 5.576,2.273 5.556,2.296 C5.286,2.629 5.305,3.120 5.616,3.433 C5.929,3.743 6.420,3.763 6.752,3.492 ZM0.000,6.769 C2.563,9.775 6.235,11.590 10.154,11.820 C10.154,11.820 10.154,13.538 10.154,13.538 C10.154,13.538 8.462,13.538 8.462,13.538 C6.826,13.538 5.500,14.864 5.500,16.500 C5.500,18.135 6.826,19.462 8.462,19.462 C8.930,19.462 9.308,19.083 9.308,18.615 C9.308,18.147 8.930,17.769 8.462,17.769 C7.762,17.769 7.192,17.200 7.192,16.500 C7.192,15.800 7.762,15.231 8.462,15.231 C8.462,15.231 11.000,15.231 11.000,15.231 C12.718,15.231 14.303,14.664 15.575,13.705 C15.580,13.699 15.589,13.696 15.595,13.691 C15.611,13.677 15.628,13.663 15.645,13.648 C15.657,13.640 15.665,13.631 15.674,13.623 C15.978,13.330 16.023,12.847 15.761,12.503 C15.479,12.128 14.949,12.055 14.574,12.334 C14.574,12.337 14.571,12.337 14.571,12.337 C14.563,12.345 14.551,12.351 14.542,12.359 C13.767,12.938 12.845,13.329 11.846,13.474 C11.846,13.474 11.846,11.820 11.846,11.820 C15.765,11.590 19.437,9.775 22.000,6.769 C22.000,6.769 0.000,6.769 0.000,6.769 ZM14.385,18.615 C14.385,18.147 14.007,17.769 13.538,17.769 C13.070,17.769 12.692,18.147 12.692,18.615 C12.692,19.083 13.070,19.462 13.538,19.462 C14.007,19.462 14.385,19.083 14.385,18.615 Z" id="path-1" class="cls-2" fill-rule="evenodd"/>
</svg>
