<svg xmlns="http://www.w3.org/2000/svg" xmlns:xlink="http://www.w3.org/1999/xlink" preserveAspectRatio="xMidYMid" width="20" height="20" viewBox="0 0 20 20">
  <defs>
    <style>

      .cls-2 {
        fill: #5d6267;
      }
    </style>
  </defs>
  <path d="M10.000,0.000 C4.487,0.000 0.000,4.487 0.000,10.000 C0.000,15.513 4.487,20.000 10.000,20.000 C15.513,20.000 20.000,15.513 20.000,10.000 C20.000,4.487 15.513,0.000 10.000,0.000 ZM10.385,5.385 C10.385,5.385 10.385,1.590 10.385,1.590 C11.179,1.795 11.949,2.564 12.564,3.821 C12.795,4.308 13.000,4.821 13.179,5.385 C13.179,5.385 10.385,5.385 10.385,5.385 ZM13.410,6.154 C13.667,7.231 13.820,8.385 13.846,9.615 C13.846,9.615 10.385,9.615 10.385,9.615 C10.385,9.615 10.385,6.154 10.385,6.154 C10.385,6.154 13.410,6.154 13.410,6.154 ZM9.615,1.590 C9.615,1.590 9.615,5.385 9.615,5.385 C9.615,5.385 6.821,5.385 6.821,5.385 C7.000,4.821 7.205,4.282 7.436,3.821 C8.051,2.564 8.821,1.795 9.615,1.590 ZM9.615,6.154 C9.615,6.154 9.615,9.615 9.615,9.615 C9.615,9.615 6.154,9.615 6.154,9.615 C6.180,8.385 6.333,7.231 6.590,6.154 C6.590,6.154 9.615,6.154 9.615,6.154 ZM5.385,9.615 C5.385,9.615 1.539,9.615 1.539,9.615 C1.590,8.385 1.923,7.205 2.462,6.154 C2.462,6.154 5.795,6.154 5.795,6.154 C5.564,7.205 5.410,8.385 5.385,9.615 ZM1.539,10.385 C1.539,10.385 5.385,10.385 5.385,10.385 C5.410,11.615 5.564,12.795 5.795,13.846 C5.795,13.846 2.462,13.846 2.462,13.846 C1.923,12.795 1.616,11.615 1.539,10.385 ZM6.154,10.385 C6.154,10.385 9.615,10.385 9.615,10.385 C9.615,10.385 9.615,13.846 9.615,13.846 C9.615,13.846 6.590,13.846 6.590,13.846 C6.333,12.769 6.180,11.615 6.154,10.385 ZM9.615,14.615 C9.615,14.615 9.615,18.410 9.615,18.410 C8.821,18.205 8.051,17.436 7.436,16.179 C7.205,15.692 7.000,15.179 6.821,14.615 C6.821,14.615 9.615,14.615 9.615,14.615 ZM10.385,18.410 C10.385,18.410 10.385,14.615 10.385,14.615 C10.385,14.615 13.179,14.615 13.179,14.615 C13.000,15.179 12.795,15.718 12.564,16.179 C11.949,17.436 11.179,18.205 10.385,18.410 ZM10.385,13.846 C10.385,13.846 10.385,10.385 10.385,10.385 C10.385,10.385 13.846,10.385 13.846,10.385 C13.820,11.615 13.667,12.769 13.410,13.846 C13.410,13.846 10.385,13.846 10.385,13.846 ZM14.615,10.385 C14.615,10.385 18.461,10.385 18.461,10.385 C18.410,11.615 18.077,12.795 17.538,13.846 C17.538,13.846 14.205,13.846 14.205,13.846 C14.436,12.795 14.590,11.615 14.615,10.385 ZM14.615,9.615 C14.590,8.385 14.436,7.205 14.205,6.154 C14.205,6.154 17.538,6.154 17.538,6.154 C18.077,7.205 18.410,8.385 18.461,9.615 C18.461,9.615 14.615,9.615 14.615,9.615 ZM17.077,5.385 C17.077,5.385 14.000,5.385 14.000,5.385 C13.564,3.872 12.923,2.616 12.128,1.821 C14.179,2.359 15.948,3.641 17.077,5.385 ZM7.872,1.821 C7.103,2.641 6.436,3.872 6.000,5.385 C6.000,5.385 2.923,5.385 2.923,5.385 C4.052,3.641 5.821,2.359 7.872,1.821 ZM2.923,14.615 C2.923,14.615 6.026,14.615 6.026,14.615 C6.462,16.128 7.103,17.384 7.897,18.179 C5.821,17.641 4.052,16.359 2.923,14.615 ZM12.128,18.179 C12.897,17.359 13.564,16.128 14.000,14.615 C14.000,14.615 17.102,14.615 17.102,14.615 C15.948,16.359 14.179,17.641 12.128,18.179 Z" id="path-1" class="cls-2" fill-rule="evenodd"/>
</svg>
