<svg xmlns="http://www.w3.org/2000/svg" xmlns:xlink="http://www.w3.org/1999/xlink" preserveAspectRatio="xMidYMid" width="20" height="18" viewBox="0 0 20 18">
  <defs>
    <style>

      .cls-2 {
        fill: #5d6267;
      }
    </style>
  </defs>
  <path d="M3.321,15.186 C2.884,15.625 2.884,16.323 3.321,16.762 C3.757,17.202 4.450,17.202 4.886,16.762 C4.886,16.762 9.352,12.266 9.352,12.266 C9.352,12.266 7.787,10.689 7.787,10.689 C7.787,10.689 3.321,15.186 3.321,15.186 ZM15.666,8.622 C15.666,8.622 19.824,4.436 19.824,4.436 C20.055,4.203 20.055,3.815 19.824,3.583 C19.593,3.350 19.208,3.350 18.977,3.583 C18.977,3.583 14.819,7.769 14.819,7.769 C14.588,8.002 14.203,8.002 13.972,7.769 C13.741,7.537 13.741,7.149 13.972,6.916 C13.972,6.916 18.105,2.756 18.105,2.756 C18.336,2.523 18.336,2.136 18.105,1.903 C17.874,1.670 17.489,1.670 17.258,1.903 C17.258,1.903 13.125,6.038 13.125,6.038 C12.894,6.270 12.509,6.270 12.278,6.038 C12.047,5.805 12.047,5.418 12.278,5.185 C12.278,5.185 16.411,1.024 16.411,1.024 C16.642,0.792 16.642,0.404 16.411,0.172 C16.180,-0.061 15.795,-0.061 15.564,0.172 C15.564,0.172 11.431,4.332 11.431,4.332 C10.379,5.392 10.764,6.451 11.277,7.201 C11.277,7.201 10.097,8.389 10.097,8.389 C6.837,5.133 3.629,1.929 3.603,1.903 C2.730,1.205 1.473,1.231 0.651,2.058 C-0.221,2.937 -0.221,4.332 0.651,5.211 C0.651,5.211 6.247,10.844 6.247,10.844 C6.247,10.844 7.812,9.268 7.812,9.268 C7.812,9.268 15.256,16.762 15.256,16.762 C15.692,17.202 16.385,17.202 16.821,16.762 C17.258,16.323 17.258,15.625 16.821,15.186 C16.821,15.186 14.409,12.757 11.637,9.966 C11.637,9.966 12.817,8.777 12.817,8.777 C13.562,9.294 14.640,9.656 15.666,8.622 Z" id="path-1" class="cls-2" fill-rule="evenodd"/>
</svg>
