<svg xmlns="http://www.w3.org/2000/svg" xmlns:xlink="http://www.w3.org/1999/xlink" preserveAspectRatio="xMidYMid" width="21" height="20" viewBox="0 0 21 20">
  <defs>
    <style>

      .cls-2 {
        fill: #5d6267;
      }
    </style>
  </defs>
  <path d="M20.066,18.751 C20.066,18.751 18.778,18.751 18.778,18.751 C18.779,18.756 18.781,18.759 18.781,18.764 C18.781,18.764 18.781,19.769 18.781,19.769 C18.781,19.895 18.681,19.997 18.558,19.997 C18.558,19.997 15.174,19.997 15.174,19.997 C15.051,19.997 14.950,19.895 14.950,19.769 C14.950,19.769 14.950,18.764 14.950,18.764 C14.950,18.759 14.952,18.756 14.953,18.751 C14.953,18.751 6.029,18.751 6.029,18.751 C6.029,18.756 6.032,18.759 6.032,18.764 C6.032,18.764 6.032,19.769 6.032,19.769 C6.032,19.895 5.931,19.997 5.808,19.997 C5.808,19.997 2.424,19.997 2.424,19.997 C2.301,19.997 2.201,19.895 2.201,19.769 C2.201,19.769 2.201,18.764 2.201,18.764 C2.201,18.759 2.203,18.756 2.203,18.751 C2.203,18.751 0.934,18.751 0.934,18.751 C0.422,18.751 0.004,18.324 0.004,17.802 C0.004,17.802 0.004,0.951 0.004,0.951 C0.004,0.429 0.423,0.001 0.934,0.001 C0.934,0.001 20.067,0.001 20.067,0.001 C20.578,0.001 20.996,0.429 20.996,0.951 C20.996,0.951 20.996,17.802 20.996,17.802 C20.996,18.324 20.577,18.751 20.066,18.751 ZM19.246,1.750 C19.246,1.750 1.754,1.750 1.754,1.750 C1.754,1.750 1.754,17.003 1.754,17.003 C1.754,17.003 19.246,17.003 19.246,17.003 C19.246,17.003 19.246,1.750 19.246,1.750 ZM18.371,5.506 C18.371,5.506 17.385,5.506 17.385,5.506 C16.902,5.506 16.510,5.906 16.510,6.399 C16.510,6.892 16.902,7.292 17.385,7.292 C17.385,7.292 18.371,7.292 18.371,7.292 C18.371,7.292 18.371,11.516 18.371,11.516 C18.371,11.516 17.385,11.516 17.385,11.516 C16.902,11.516 16.510,11.916 16.510,12.409 C16.510,12.902 16.902,13.302 17.385,13.302 C17.385,13.302 18.372,13.302 18.372,13.302 C18.372,13.302 18.372,16.137 18.372,16.137 C18.372,16.137 2.629,16.137 2.629,16.137 C2.629,16.137 2.629,2.671 2.629,2.671 C2.629,2.671 18.371,2.671 18.371,2.671 C18.371,2.671 18.371,5.506 18.371,5.506 ZM10.491,6.373 C9.487,6.373 8.675,7.203 8.675,8.227 C8.675,8.913 9.043,9.504 9.585,9.825 C9.585,9.825 9.043,12.378 9.043,12.378 C9.043,12.378 11.939,12.378 11.939,12.378 C11.939,12.378 11.397,9.825 11.397,9.825 C11.938,9.504 12.307,8.912 12.307,8.227 C12.307,7.203 11.494,6.373 10.491,6.373 Z" id="path-1" class="cls-2" fill-rule="evenodd"/>
</svg>
