<svg xmlns="http://www.w3.org/2000/svg" xmlns:xlink="http://www.w3.org/1999/xlink" preserveAspectRatio="xMidYMid" width="20" height="20" viewBox="0 0 20 20">
  <defs>
    <style>

      .cls-2 {
        fill: #5d6267;
      }
    </style>
  </defs>
  <path d="M18.758,18.191 C18.758,18.191 18.758,16.375 18.758,16.375 C19.112,15.871 19.007,15.696 19.063,15.694 C19.103,15.693 19.102,16.041 19.373,16.402 C19.789,16.957 20.507,17.916 19.404,18.182 C19.180,18.235 18.980,18.234 18.758,18.191 C18.758,18.191 18.758,18.191 18.758,18.191 ZM18.758,11.554 C18.758,11.554 18.758,10.417 18.758,10.417 C18.758,10.417 19.384,10.417 19.384,10.417 C19.384,10.417 19.384,11.554 19.384,11.554 C19.384,11.554 18.758,11.554 18.758,11.554 C18.758,11.554 18.758,11.554 18.758,11.554 ZM18.758,9.547 C18.758,9.547 18.758,8.844 18.758,8.844 C18.979,9.066 19.188,9.301 19.384,9.547 C19.384,9.547 18.758,9.547 18.758,9.547 ZM18.758,8.844 C18.758,8.844 18.758,9.547 18.758,9.547 C18.758,9.547 17.058,9.547 17.058,9.547 C17.058,9.547 17.058,7.520 17.058,7.520 C17.680,7.889 18.251,8.334 18.758,8.844 C18.758,8.844 18.758,8.844 18.758,8.844 ZM18.758,10.417 C18.758,10.417 18.758,11.554 18.758,11.554 C18.758,11.554 17.058,11.554 17.058,11.554 C17.058,11.554 17.058,10.417 17.058,10.417 C17.058,10.417 18.758,10.417 18.758,10.417 C18.758,10.417 18.758,10.417 18.758,10.417 ZM18.758,16.375 C18.758,16.375 18.758,18.190 18.758,18.190 C18.758,18.190 18.755,18.190 18.755,18.190 C17.610,17.965 18.315,16.983 18.724,16.422 C18.736,16.406 18.747,16.391 18.758,16.375 C18.758,16.375 18.758,16.375 18.758,16.375 ZM17.058,14.937 C17.058,14.937 17.058,12.409 17.058,12.409 C17.058,12.409 17.061,12.409 17.061,12.409 C17.100,12.408 17.099,12.756 17.370,13.117 C17.786,13.672 18.505,14.631 17.401,14.896 C17.282,14.925 17.170,14.938 17.058,14.937 ZM17.058,7.520 C17.058,7.520 17.058,9.547 17.058,9.547 C17.058,9.547 14.833,9.547 14.833,9.547 C14.833,9.547 14.833,6.600 14.833,6.600 C15.625,6.802 16.373,7.114 17.058,7.520 C17.058,7.520 17.058,7.520 17.058,7.520 ZM17.058,10.417 C17.058,10.417 17.058,11.554 17.058,11.554 C17.058,11.554 14.833,11.554 14.833,11.554 C14.833,11.554 14.833,10.417 14.833,10.417 C14.833,10.417 17.058,10.417 17.058,10.417 C17.058,10.417 17.058,10.417 17.058,10.417 ZM17.058,12.409 C17.058,12.409 17.058,14.937 17.058,14.937 C16.958,14.937 16.858,14.925 16.752,14.905 C15.607,14.680 16.312,13.697 16.721,13.137 C17.109,12.606 17.007,12.417 17.058,12.409 C17.058,12.409 17.058,12.409 17.058,12.409 ZM14.833,18.223 C14.833,18.223 14.833,15.694 14.833,15.694 C14.833,15.694 14.835,15.694 14.835,15.694 C14.875,15.693 14.874,16.041 15.145,16.402 C15.561,16.957 16.279,17.916 15.176,18.181 C15.057,18.210 14.945,18.223 14.833,18.223 ZM14.833,6.600 C14.833,6.600 14.833,9.547 14.833,9.547 C14.833,9.547 12.697,9.547 12.697,9.547 C12.697,9.547 12.697,2.465 12.697,2.465 C13.278,3.252 13.624,4.216 13.620,5.348 C13.620,5.348 13.620,6.383 13.620,6.383 C14.034,6.426 14.439,6.499 14.833,6.600 C14.833,6.600 14.833,6.600 14.833,6.600 ZM14.833,10.417 C14.833,10.417 14.833,11.554 14.833,11.554 C14.833,11.554 12.697,11.554 12.697,11.554 C12.697,11.554 12.697,10.417 12.697,10.417 C12.697,10.417 14.833,10.417 14.833,10.417 C14.833,10.417 14.833,10.417 14.833,10.417 ZM14.833,15.694 C14.833,15.694 14.833,18.223 14.833,18.223 C14.733,18.222 14.632,18.211 14.527,18.190 C13.382,17.965 14.087,16.983 14.496,16.422 C14.884,15.891 14.781,15.702 14.833,15.694 C14.833,15.694 14.833,15.694 14.833,15.694 ZM12.697,14.937 C12.697,14.937 12.697,12.409 12.697,12.409 C12.697,12.409 12.699,12.409 12.699,12.409 C12.739,12.408 12.738,12.756 13.009,13.117 C13.425,13.672 14.143,14.631 13.040,14.896 C12.921,14.925 12.809,14.938 12.697,14.937 ZM12.697,2.465 C12.697,2.465 12.697,9.547 12.697,9.547 C12.697,9.547 10.605,9.547 10.605,9.547 C10.605,9.547 10.605,6.600 10.605,6.600 C10.999,6.499 11.403,6.426 11.817,6.383 C11.817,6.383 11.818,5.345 11.818,5.345 C11.822,4.322 11.348,3.493 10.605,2.892 C10.605,2.892 10.605,0.776 10.605,0.776 C11.442,1.184 12.168,1.750 12.697,2.465 C12.697,2.465 12.697,2.465 12.697,2.465 ZM12.697,10.417 C12.697,10.417 12.697,11.554 12.697,11.554 C12.697,11.554 10.605,11.554 10.605,11.554 C10.605,11.554 10.605,10.417 10.605,10.417 C10.605,10.417 12.697,10.417 12.697,10.417 C12.697,10.417 12.697,10.417 12.697,10.417 ZM12.697,12.409 C12.697,12.409 12.697,14.937 12.697,14.937 C12.597,14.937 12.496,14.925 12.391,14.905 C11.246,14.680 11.951,13.697 12.360,13.137 C12.748,12.606 12.645,12.417 12.697,12.409 C12.697,12.409 12.697,12.409 12.697,12.409 ZM10.605,18.223 C10.605,18.223 10.605,15.694 10.605,15.694 C10.605,15.694 10.608,15.694 10.608,15.694 C10.647,15.693 10.646,16.041 10.917,16.402 C11.333,16.957 12.051,17.916 10.948,18.181 C10.829,18.210 10.717,18.223 10.605,18.223 ZM8.383,12.409 C8.383,12.409 8.380,12.409 8.380,12.409 C8.380,12.409 8.380,14.937 8.380,14.937 C8.492,14.938 8.604,14.925 8.723,14.896 C9.827,14.630 9.108,13.672 8.692,13.117 C8.421,12.756 8.422,12.407 8.383,12.409 C8.383,12.409 8.383,12.409 8.383,12.409 ZM10.605,0.776 C10.605,0.776 10.605,2.892 10.605,2.892 C10.003,2.406 9.224,2.070 8.380,1.900 C8.380,1.900 8.380,0.096 8.380,0.096 C9.166,0.214 9.922,0.443 10.605,0.776 C10.605,0.776 10.605,0.776 10.605,0.776 ZM10.605,6.600 C10.605,6.600 10.605,9.547 10.605,9.547 C10.605,9.547 8.380,9.547 8.380,9.547 C8.380,9.547 8.380,7.520 8.380,7.520 C9.065,7.114 9.813,6.802 10.605,6.600 C10.605,6.600 10.605,6.600 10.605,6.600 ZM10.605,10.417 C10.605,10.417 10.605,11.554 10.605,11.554 C10.605,11.554 8.380,11.554 8.380,11.554 C8.380,11.554 8.380,10.417 8.380,10.417 C8.380,10.417 10.605,10.417 10.605,10.417 C10.605,10.417 10.605,10.417 10.605,10.417 ZM10.605,15.694 C10.605,15.694 10.605,18.223 10.605,18.223 C10.505,18.222 10.405,18.211 10.299,18.190 C9.154,17.965 9.859,16.983 10.268,16.422 C10.656,15.891 10.554,15.702 10.605,15.694 ZM8.380,12.409 C8.328,12.417 8.431,12.605 8.043,13.137 C7.634,13.698 6.929,14.680 8.074,14.905 C8.180,14.926 8.280,14.937 8.380,14.937 C8.380,14.937 8.380,12.409 8.380,12.409 C8.380,12.409 8.380,12.409 8.380,12.409 ZM8.380,0.096 C8.380,0.096 8.380,1.900 8.380,1.900 C7.734,1.771 7.050,1.740 6.377,1.815 C6.377,1.815 6.377,0.034 6.377,0.034 C7.048,-0.024 7.724,-0.003 8.380,0.096 C8.380,0.096 8.380,0.096 8.380,0.096 ZM8.380,7.520 C8.380,7.520 8.380,9.547 8.380,9.547 C8.380,9.547 6.377,9.547 6.377,9.547 C6.377,9.547 6.377,9.165 6.377,9.165 C6.954,8.520 7.629,7.964 8.380,7.520 C8.380,7.520 8.380,7.520 8.380,7.520 ZM8.380,10.417 C8.380,10.417 8.380,11.554 8.380,11.554 C8.380,11.554 6.377,11.554 6.377,11.554 C6.377,11.554 6.377,10.417 6.377,10.417 C6.377,10.417 8.380,10.417 8.380,10.417 C8.380,10.417 8.380,10.417 8.380,10.417 ZM6.377,18.223 C6.377,18.223 6.377,15.694 6.377,15.694 C6.377,15.694 6.380,15.694 6.380,15.694 C6.419,15.693 6.418,16.041 6.689,16.402 C7.105,16.957 7.824,17.916 6.720,18.181 C6.601,18.210 6.489,18.223 6.377,18.223 ZM6.377,0.034 C6.377,0.034 6.377,1.815 6.377,1.815 C4.029,2.077 1.812,3.630 1.818,6.820 C1.818,6.820 1.821,20.001 1.821,20.001 C1.821,20.001 0.013,20.001 0.013,20.001 C0.013,20.001 0.016,6.820 0.016,6.820 C0.008,2.460 3.125,0.313 6.377,0.034 C6.377,0.034 6.377,0.034 6.377,0.034 ZM6.377,9.165 C6.266,9.289 6.158,9.417 6.054,9.547 C6.054,9.547 6.377,9.547 6.377,9.547 C6.377,9.547 6.377,9.165 6.377,9.165 C6.377,9.165 6.377,9.165 6.377,9.165 ZM6.377,10.417 C6.377,10.417 6.054,10.417 6.054,10.417 C6.054,10.417 6.054,11.554 6.054,11.554 C6.054,11.554 6.377,11.554 6.377,11.554 C6.377,11.554 6.377,10.417 6.377,10.417 C6.377,10.417 6.377,10.417 6.377,10.417 ZM6.377,15.694 C6.326,15.702 6.428,15.891 6.040,16.422 C5.631,16.983 4.926,17.965 6.071,18.190 C6.177,18.211 6.277,18.222 6.377,18.223 C6.377,18.223 6.377,15.694 6.377,15.694 Z" id="path-1" class="cls-2" fill-rule="evenodd"/>
</svg>
