<svg xmlns="http://www.w3.org/2000/svg" xmlns:xlink="http://www.w3.org/1999/xlink" preserveAspectRatio="xMidYMid" width="19" height="24" viewBox="0 0 19 24">
  <defs>
    <style>

      .cls-2 {
        fill: #5d6267;
      }
    </style>
  </defs>
  <path d="M18.455,18.328 C18.455,22.917 15.285,23.987 11.398,23.987 C7.510,23.987 4.367,22.917 4.367,18.328 C4.367,14.447 7.413,10.101 10.060,8.853 C10.060,8.853 10.060,6.070 10.060,6.070 C10.060,6.070 9.355,6.070 9.355,6.070 C8.758,7.376 8.324,7.792 7.402,8.501 C6.480,9.211 5.557,8.540 6.452,8.294 C7.347,8.049 8.012,6.086 8.012,6.086 C8.012,6.086 8.012,3.256 8.012,3.256 C8.012,3.256 13.450,3.256 13.450,3.256 C13.450,3.256 15.344,3.512 15.344,5.204 C15.344,6.895 12.857,7.293 12.857,7.293 C12.857,7.293 12.857,8.883 12.857,8.883 C15.454,10.168 18.455,14.477 18.455,18.328 ZM11.390,10.327 C10.871,10.327 9.565,11.093 8.286,12.795 C6.959,14.561 6.167,16.629 6.167,18.328 C6.167,20.303 6.876,20.999 7.409,21.351 C8.233,21.895 9.535,22.160 11.390,22.160 C13.244,22.160 14.546,21.895 15.370,21.351 C15.903,20.999 16.612,20.303 16.612,18.328 C16.612,16.629 15.820,14.561 14.493,12.795 C13.214,11.093 11.908,10.327 11.390,10.327 ZM11.319,21.249 C9.018,21.249 7.204,20.577 7.214,18.800 C7.224,17.024 7.739,15.474 8.366,14.640 C8.993,13.805 9.766,12.905 11.319,14.486 C12.536,15.724 14.084,14.295 14.325,14.209 C14.325,14.209 15.601,15.746 15.601,18.940 C15.513,20.772 13.563,21.249 11.319,21.249 ZM5.929,4.665 C5.929,3.891 6.562,3.264 7.343,3.264 C7.350,3.264 7.363,3.265 7.363,3.265 C7.363,3.265 7.363,6.065 7.363,6.065 C7.363,6.065 7.350,6.065 7.343,6.065 C6.562,6.065 5.929,5.438 5.929,4.665 ZM4.366,7.065 C4.253,6.918 4.280,6.706 4.426,6.592 C4.572,6.479 4.783,6.506 4.896,6.653 C5.009,6.800 4.982,7.012 4.835,7.126 C4.689,7.239 4.479,7.212 4.366,7.065 ZM4.325,3.121 C4.184,3.001 4.167,2.788 4.287,2.646 C4.407,2.505 4.618,2.487 4.759,2.608 C4.900,2.729 4.917,2.941 4.797,3.083 C4.677,3.225 4.466,3.242 4.325,3.121 ZM4.253,4.363 C4.188,4.538 3.995,4.625 3.822,4.559 C3.649,4.494 3.562,4.299 3.627,4.125 C3.692,3.951 3.886,3.864 4.059,3.929 C4.231,3.995 4.319,4.190 4.253,4.363 ZM3.042,2.188 C2.848,2.023 2.825,1.730 2.990,1.536 C3.154,1.341 3.445,1.317 3.639,1.483 C3.832,1.649 3.856,1.941 3.691,2.136 C3.526,2.331 3.236,2.354 3.042,2.188 ZM2.895,3.847 C2.805,4.086 2.539,4.206 2.301,4.116 C2.063,4.026 1.943,3.758 2.034,3.519 C2.123,3.280 2.389,3.159 2.627,3.250 C2.865,3.340 2.985,3.608 2.895,3.847 ZM1.529,1.082 C1.275,0.865 1.244,0.481 1.460,0.226 C1.676,-0.029 2.057,-0.060 2.311,0.157 C2.565,0.374 2.596,0.758 2.380,1.013 C2.163,1.269 1.783,1.300 1.529,1.082 ZM1.284,3.234 C1.166,3.548 0.817,3.706 0.506,3.587 C0.194,3.469 0.037,3.118 0.155,2.804 C0.272,2.491 0.621,2.332 0.933,2.451 C1.245,2.570 1.402,2.920 1.284,3.234 ZM1.183,6.094 C1.234,6.426 1.008,6.736 0.679,6.787 C0.350,6.838 0.041,6.611 -0.010,6.279 C-0.061,5.948 0.165,5.638 0.495,5.587 C0.824,5.536 1.133,5.763 1.183,6.094 ZM1.536,8.495 C1.800,8.290 2.179,8.339 2.383,8.605 C2.587,8.871 2.538,9.252 2.274,9.457 C2.010,9.662 1.631,9.613 1.427,9.347 C1.224,9.082 1.272,8.700 1.536,8.495 ZM1.975,5.971 C1.936,5.718 2.109,5.482 2.360,5.443 C2.611,5.404 2.846,5.577 2.885,5.830 C2.924,6.083 2.752,6.319 2.500,6.358 C2.249,6.397 2.014,6.224 1.975,5.971 ZM3.382,7.366 C3.636,7.366 3.842,7.574 3.842,7.829 C3.842,8.085 3.636,8.292 3.382,8.292 C3.127,8.292 2.921,8.085 2.921,7.829 C2.921,7.574 3.127,7.366 3.382,7.366 ZM3.659,5.709 C3.631,5.525 3.756,5.353 3.939,5.325 C4.121,5.297 4.292,5.423 4.321,5.607 C4.349,5.790 4.223,5.963 4.041,5.991 C3.858,6.019 3.687,5.893 3.659,5.709 Z" id="path-1" class="cls-2" fill-rule="evenodd"/>
</svg>
