<svg xmlns="http://www.w3.org/2000/svg" xmlns:xlink="http://www.w3.org/1999/xlink" preserveAspectRatio="xMidYMid" width="20" height="19" viewBox="0 0 20 19">
  <defs>
    <style>

      .cls-2 {
        fill: #5d6267;
      }
    </style>
  </defs>
  <path d="M8.974,18.990 C8.974,18.990 10.513,18.990 10.513,18.990 C10.513,18.990 10.513,0.010 10.513,0.010 C10.513,0.010 8.974,0.010 8.974,0.010 C8.974,0.010 8.974,18.990 8.974,18.990 ZM3.462,4.694 C4.524,4.694 5.385,3.844 5.385,2.796 C5.385,1.748 4.524,0.898 3.462,0.898 C2.400,0.898 1.539,1.748 1.539,2.796 C1.539,3.844 2.400,4.694 3.462,4.694 ZM16.154,4.657 C17.145,4.657 17.949,3.864 17.949,2.886 C17.949,1.908 17.145,1.114 16.154,1.114 C15.163,1.114 14.359,1.908 14.359,2.886 C14.359,3.864 15.163,4.657 16.154,4.657 ZM18.461,5.796 C18.461,5.796 17.524,5.590 17.524,5.590 C17.524,5.590 16.154,6.991 16.154,6.991 C16.154,6.991 14.784,5.591 14.784,5.591 C14.784,5.591 13.846,5.796 13.846,5.796 C13.846,5.796 12.308,13.642 12.308,13.642 C12.308,13.642 14.688,14.403 14.688,14.403 C14.688,14.403 15.385,18.956 15.385,18.956 C15.385,18.956 16.923,18.956 16.923,18.956 C16.923,18.956 17.629,14.404 17.629,14.404 C17.629,14.404 20.000,13.642 20.000,13.642 C20.000,13.642 18.461,5.796 18.461,5.796 ZM3.462,7.299 C3.462,7.299 1.840,5.329 1.840,5.329 C1.840,5.329 0.000,6.002 0.000,6.002 C0.000,6.002 0.000,11.317 0.000,11.317 C0.000,11.317 1.349,12.367 1.349,12.367 C1.349,12.367 2.564,18.909 2.564,18.909 C2.564,18.909 4.360,18.909 4.360,18.909 C4.360,18.909 5.573,12.374 5.573,12.374 C5.573,12.374 6.923,11.317 6.923,11.317 C6.923,11.317 6.923,6.002 6.923,6.002 C6.923,6.002 5.084,5.329 5.084,5.329 C5.084,5.329 3.462,7.299 3.462,7.299 Z" id="path-1" class="cls-2" fill-rule="evenodd"/>
</svg>
