<svg xmlns="http://www.w3.org/2000/svg" xmlns:xlink="http://www.w3.org/1999/xlink" preserveAspectRatio="xMidYMid" width="24" height="24" viewBox="0 0 24 24">
  <defs>
    <style>

      .cls-2 {
        fill: #5d6267;
      }
    </style>
  </defs>
  <path d="M7.223,17.637 C7.221,17.636 7.219,17.636 7.217,17.636 C5.708,18.566 2.380,19.506 0.038,19.931 C0.912,18.200 1.881,15.823 1.832,14.166 C0.655,12.752 -0.010,10.929 -0.010,9.073 C-0.010,3.839 5.085,0.013 10.788,0.013 C16.456,0.013 21.586,3.811 21.586,9.073 C21.586,9.148 21.584,9.222 21.582,9.297 C20.924,8.942 20.211,8.654 19.447,8.442 C19.047,4.896 15.317,2.109 10.788,2.109 C5.993,2.109 2.093,5.233 2.093,9.073 C2.093,11.093 2.968,12.366 4.203,13.620 C3.952,15.483 3.349,17.103 3.349,17.103 C3.349,17.103 5.130,16.633 7.153,15.456 C7.068,16.194 7.092,16.922 7.223,17.637 ZM23.977,23.800 C22.366,23.507 20.075,22.859 19.036,22.220 C13.317,23.619 9.149,20.098 9.149,16.327 C9.149,12.706 12.679,10.092 16.579,10.092 C20.504,10.092 24.010,12.726 24.010,16.327 C24.010,17.604 23.552,18.858 22.742,19.832 C22.708,20.972 23.376,22.608 23.977,23.800 ZM14.712,16.403 C14.712,15.841 14.255,15.386 13.691,15.386 C13.127,15.386 12.670,15.841 12.670,16.403 C12.670,16.965 13.127,17.421 13.691,17.421 C14.255,17.421 14.712,16.965 14.712,16.403 ZM17.757,16.403 C17.757,15.841 17.300,15.386 16.736,15.386 C16.172,15.386 15.715,15.841 15.715,16.403 C15.715,16.965 16.172,17.421 16.736,17.421 C17.300,17.421 17.757,16.965 17.757,16.403 ZM20.765,16.403 C20.765,15.841 20.308,15.386 19.744,15.386 C19.180,15.386 18.723,15.841 18.723,16.403 C18.723,16.965 19.180,17.421 19.744,17.421 C20.308,17.421 20.765,16.965 20.765,16.403 Z" id="path-1" class="cls-2" fill-rule="evenodd"/>
</svg>
