<svg xmlns="http://www.w3.org/2000/svg" xmlns:xlink="http://www.w3.org/1999/xlink" preserveAspectRatio="xMidYMid" width="20" height="16" viewBox="0 0 20 16">
  <defs>
    <style>

      .cls-2 {
        fill: #5d6267;
      }
    </style>
  </defs>
  <path d="M10.005,11.279 C8.723,11.279 7.698,12.299 7.698,13.576 C7.698,14.851 8.723,15.872 10.005,15.872 C11.286,15.872 12.311,14.851 12.311,13.576 C12.311,12.299 11.286,11.279 10.005,11.279 ZM10.005,5.613 C7.877,5.613 5.852,6.456 4.340,7.961 C3.879,8.421 3.879,9.135 4.340,9.594 C4.802,10.054 5.519,10.054 5.981,9.594 C7.057,8.523 8.492,7.910 10.005,7.910 C11.517,7.910 12.952,8.497 14.054,9.569 C14.285,9.799 14.567,9.901 14.874,9.901 C15.182,9.901 15.464,9.799 15.695,9.569 C16.156,9.110 16.130,8.395 15.695,7.936 C14.157,6.456 12.132,5.613 10.005,5.613 ZM19.667,3.980 C17.079,1.403 13.644,-0.001 10.005,-0.001 C6.365,-0.001 2.931,1.403 0.342,3.980 C-0.119,4.440 -0.119,5.154 0.342,5.613 C0.803,6.073 1.521,6.073 1.982,5.613 C4.135,3.470 6.980,2.296 10.005,2.296 C13.029,2.296 15.874,3.470 18.027,5.613 C18.258,5.843 18.540,5.945 18.847,5.945 C19.155,5.945 19.437,5.843 19.667,5.613 C20.103,5.154 20.103,4.440 19.667,3.980 Z" id="path-1" class="cls-2" fill-rule="evenodd"/>
</svg>
