<?xml version="1.0" encoding="utf-8"?>
<!-- Generator: Adobe Illustrator 18.0.0, SVG Export Plug-In . SVG Version: 6.00 Build 0)  -->
<!DOCTYPE svg PUBLIC "-//W3C//DTD SVG 1.1//EN" "http://www.w3.org/Graphics/SVG/1.1/DTD/svg11.dtd">
<svg version="1.1" id="Layer_1" xmlns="http://www.w3.org/2000/svg" xmlns:xlink="http://www.w3.org/1999/xlink" x="0px" y="0px"
	 viewBox="0 0 90 90" enable-background="new 0 0 90 90" xml:space="preserve">
<circle fill="#FB5A50" cx="45" cy="45" r="45"/>
<g>
	<path fill="#EFEAE1" d="M70,36H54V20c0-2.2-1.8-4-4-4H40c-2.2,0-4,1.8-4,4v16H20c-2.2,0-4,1.8-4,4v10c0,2.2,1.8,4,4,4h16v16
		c0,2.2,1.8,4,4,4h10c2.2,0,4-1.8,4-4V54h16c2.2,0,4-1.8,4-4V40C74,37.8,72.2,36,70,36z"/>
	<path fill="#383128" d="M50,75H40c-2.8,0-5-2.2-5-5V55H20c-2.8,0-5-2.2-5-5V40c0-2.8,2.2-5,5-5h15V20c0-2.8,2.2-5,5-5h10
		c2.8,0,5,2.2,5,5v15h15c2.8,0,5,2.2,5,5v10c0,2.8-2.2,5-5,5H55v15C55,72.8,52.8,75,50,75z M20,37c-1.7,0-3,1.3-3,3v10
		c0,1.7,1.3,3,3,3h16c0.6,0,1,0.4,1,1v16c0,1.7,1.3,3,3,3h10c1.7,0,3-1.3,3-3V54c0-0.6,0.4-1,1-1h16c1.7,0,3-1.3,3-3V40
		c0-1.7-1.3-3-3-3H54c-0.6,0-1-0.4-1-1V20c0-1.7-1.3-3-3-3H40c-1.7,0-3,1.3-3,3v16c0,0.6-0.4,1-1,1H20z"/>
</g>
</svg>
