<?xml version="1.0" encoding="utf-8"?>
<!-- Generator: Adobe Illustrator 18.0.0, SVG Export Plug-In . SVG Version: 6.00 Build 0)  -->
<!DOCTYPE svg PUBLIC "-//W3C//DTD SVG 1.1//EN" "http://www.w3.org/Graphics/SVG/1.1/DTD/svg11.dtd">
<svg version="1.1" id="Layer_1" xmlns="http://www.w3.org/2000/svg" xmlns:xlink="http://www.w3.org/1999/xlink" x="0px" y="0px"
	 viewBox="0 0 90 90" enable-background="new 0 0 90 90" xml:space="preserve">
<circle fill="#F4EFE1" cx="45" cy="45" r="45"/>
<g>
	<path fill="#A6ACB2" d="M51,55.2V59c0,3.3-2.7,6-6,6l0,0c-3.3,0-6-2.7-6-6v-3.8"/>
	<path fill="#232E38" d="M45,66c-3.9,0-7-3.1-7-7v-3.8c0-0.6,0.4-1,1-1s1,0.4,1,1V59c0,2.8,2.2,5,5,5s5-2.2,5-5v-3.8
		c0-0.6,0.4-1,1-1s1,0.4,1,1V59C52,62.9,48.9,66,45,66z"/>
</g>
<g>
	<path fill="#FFCC00" d="M38,55c-3-2.2-5-6-5-10c0-6.6,5.4-12,12-12s12,5.4,12,12c0,4.1-2,7.8-5.2,10H38z"/>
	<path fill="#383128" d="M51.8,56H38c-0.2,0-0.4-0.1-0.6-0.2C34.1,53.4,32,49.2,32,45c0-7.2,5.8-13,13-13s13,5.8,13,13
		c0,4.3-2.1,8.4-5.6,10.8C52.2,55.9,52,56,51.8,56z M38.3,54h13.2c2.8-2.1,4.5-5.4,4.5-9c0-6.1-4.9-11-11-11s-11,4.9-11,11
		C34,48.5,35.7,51.9,38.3,54z"/>
</g>
<path fill="#383128" d="M45,26c-0.6,0-1-0.4-1-1v-6c0-0.6,0.4-1,1-1s1,0.4,1,1v6C46,25.6,45.6,26,45,26z"/>
<path fill="#383128" d="M71,46h-6c-0.6,0-1-0.4-1-1s0.4-1,1-1h6c0.6,0,1,0.4,1,1S71.6,46,71,46z"/>
<path fill="#383128" d="M25,46h-6c-0.6,0-1-0.4-1-1s0.4-1,1-1h6c0.6,0,1,0.4,1,1S25.6,46,25,46z"/>
<path fill="#383128" d="M30.9,31.9c-0.3,0-0.5-0.1-0.7-0.3l-4.2-4.2c-0.4-0.4-0.4-1,0-1.4s1-0.4,1.4,0l4.2,4.2c0.4,0.4,0.4,1,0,1.4
	C31.4,31.8,31.1,31.9,30.9,31.9z"/>
<path fill="#383128" d="M59.1,31.9c-0.3,0-0.5-0.1-0.7-0.3c-0.4-0.4-0.4-1,0-1.4l4.2-4.2c0.4-0.4,1-0.4,1.4,0c0.4,0.4,0.4,1,0,1.4
	l-4.2,4.2C59.7,31.8,59.4,31.9,59.1,31.9z"/>
<path fill="#383128" d="M37.3,27.5c-0.4,0-0.8-0.2-0.9-0.6l-2.3-5.5c-0.2-0.5,0-1.1,0.5-1.3c0.5-0.2,1.1,0,1.3,0.5l2.3,5.5
	c0.2,0.5,0,1.1-0.5,1.3C37.6,27.5,37.5,27.5,37.3,27.5z"/>
<path fill="#383128" d="M63.5,38.3c-0.4,0-0.8-0.2-0.9-0.6c-0.2-0.5,0-1.1,0.5-1.3l5.5-2.3c0.5-0.2,1.1,0,1.3,0.5s0,1.1-0.5,1.3
	l-5.5,2.3C63.7,38.3,63.6,38.3,63.5,38.3z"/>
<path fill="#383128" d="M26.5,38.3c-0.1,0-0.3,0-0.4-0.1L20.6,36c-0.5-0.2-0.8-0.8-0.5-1.3s0.8-0.8,1.3-0.5l5.5,2.3
	c0.5,0.2,0.8,0.8,0.5,1.3C27.3,38.1,26.9,38.3,26.5,38.3z"/>
<path fill="#383128" d="M52.7,27.5c-0.1,0-0.3,0-0.4-0.1c-0.5-0.2-0.8-0.8-0.5-1.3l2.3-5.5c0.2-0.5,0.8-0.8,1.3-0.5
	c0.5,0.2,0.8,0.8,0.5,1.3l-2.3,5.5C53.4,27.3,53,27.5,52.7,27.5z"/>
</svg>
